<svg xmlns="http://www.w3.org/2000/svg" xmlns:xlink="http://www.w3.org/1999/xlink" width="500" zoomAndPan="magnify" viewBox="0 0 375 374.999991" height="500" preserveAspectRatio="xMidYMid meet" version="1.0"><rect x="-37.5" width="450" fill="#ffffff" y="-37.499999" height="449.999989" fill-opacity="1"/><rect x="-37.5" width="450" fill="#ffffff" y="-37.499999" height="449.999989" fill-opacity="1"/><rect x="-37.5" width="450" fill="#ffffff" y="-37.499999" height="449.999989" fill-opacity="1"/><path fill="#33a457" d="M 47.675781 208.34375 C 35.902344 208.34375 30.066406 198.550781 29.09375 193.183594 L 20.339844 193.183594 L 20.40625 185.703125 L 29.027344 185.671875 C 31.007812 175.441406 40.164062 170.511719 47.710938 170.542969 L 47.644531 163.03125 L 20.371094 162.964844 L 20.441406 155.449219 L 55.191406 155.382812 C 63.375 155.382812 72.398438 160.148438 74.441406 170.511719 L 81.1875 170.578125 L 81.253906 178.089844 L 74.378906 178.125 C 73.570312 183.527344 67.902344 193.253906 55.191406 193.253906 L 55.191406 200.667969 L 81.222656 200.667969 L 81.222656 208.347656 L 55.226562 208.347656 L 55.257812 217.371094 L 47.644531 217.40625 Z M 107.179688 205.328125 L 107.28125 198.148438 L 111.542969 198.183594 L 111.609375 175.710938 L 107.347656 175.808594 L 107.144531 168.664062 L 154.542969 168.566406 L 154.644531 182.6875 L 147.667969 182.621094 C 147.566406 179.5 147.96875 176.011719 144.714844 175.710938 L 125.363281 175.808594 L 125.292969 184.664062 L 136.496094 184.664062 L 136.496094 181.578125 L 143.070312 181.578125 L 143.070312 195.332031 L 136.496094 195.332031 L 136.496094 192.617188 L 125.292969 192.617188 L 125.292969 198.183594 L 131.53125 198.25 L 131.566406 205.261719 Z M 148.941406 205.328125 L 148.910156 198.214844 L 154.542969 198.183594 L 164.003906 175.773438 L 160.34375 175.808594 L 160.3125 168.597656 L 191.675781 168.660156 L 191.609375 175.773438 L 187.886719 175.773438 L 197.34375 198.210938 L 201.871094 198.210938 L 201.871094 205.324219 L 175.878906 205.324219 L 175.910156 198.246094 L 181.78125 198.179688 L 179.367188 192.375 L 167.894531 192.414062 L 165.34375 198.214844 L 169.539062 198.179688 L 169.570312 205.355469 Z M 258.929688 205.261719 L 258.960938 198.25 L 262.585938 198.148438 L 262.550781 175.808594 L 258.023438 175.773438 L 258.089844 168.632812 L 305.71875 168.664062 L 305.683594 184.296875 L 298.84375 184.226562 C 298.640625 177.351562 299.140625 175.839844 295.386719 175.808594 L 276.269531 175.773438 L 276.335938 184.628906 C 282.707031 184.964844 284.351562 184.09375 284.386719 180.472656 L 291.632812 180.539062 L 291.597656 195.261719 L 284.351562 195.328125 C 284.152344 190.832031 278.28125 191.402344 276.269531 191.371094 L 276.269531 198.214844 L 295.855469 198.179688 C 299.242188 198.214844 298.84375 194.960938 299.011719 192.34375 L 305.617188 192.277344 L 305.648438 205.257812 L 258.929688 205.257812 Z M 205.863281 198.183594 L 210.492188 198.214844 L 210.558594 175.710938 L 205.765625 175.675781 L 205.832031 168.566406 L 242.960938 168.601562 C 248.832031 168.566406 253.054688 173.097656 253.660156 177.085938 C 253.898438 179.199219 254.46875 184.96875 250.476562 186.410156 C 253.660156 188.691406 255.269531 192.582031 254.597656 197.578125 C 254.296875 200.230469 252.386719 205.359375 246.015625 205.296875 L 205.964844 205.328125 Z M 310.113281 198.183594 L 316.117188 198.214844 L 316.152344 175.742188 L 310.28125 175.808594 L 310.078125 168.566406 L 349.695312 168.664062 C 362.707031 168.765625 366.195312 186.410156 354.660156 190.066406 C 356.941406 194.023438 358.515625 198.214844 369.382812 198.214844 L 369.484375 205.460938 C 363.347656 205.664062 351.269531 205.328125 349.023438 201.371094 C 347.210938 198.046875 346.039062 196.339844 342.683594 194.324219 L 329.933594 194.359375 L 329.898438 198.214844 L 335.738281 198.214844 L 335.738281 205.296875 L 310.144531 205.328125 Z M 37.078125 193.253906 L 47.644531 193.253906 L 47.679688 200.664062 C 42.746094 200.699219 38.957031 197.945312 37.078125 193.253906 Z M 224.179688 198.214844 L 224.277344 190.230469 L 236.054688 190.230469 C 238.804688 190.230469 241.554688 191.640625 241.523438 194.523438 C 241.523438 195.734375 239.8125 198.183594 238.066406 198.183594 Z M 55.191406 185.703125 L 55.226562 178.15625 L 66.429688 178.15625 C 65.085938 182.316406 60.757812 185.738281 55.191406 185.703125 Z M 37.144531 185.703125 C 37.847656 182.316406 41.839844 178.15625 47.675781 178.15625 L 47.675781 185.703125 Z M 170.546875 186.171875 L 173.566406 178.929688 L 176.785156 186.140625 Z M 329.902344 175.777344 L 344.496094 175.742188 C 350.5 175.777344 350.902344 185.671875 344.261719 185.636719 L 330.140625 185.671875 Z M 224.210938 175.777344 L 236.1875 175.777344 C 241.015625 175.777344 241.652344 184.128906 236.1875 184.09375 L 224.210938 184.09375 Z M 55.191406 163.03125 C 60.757812 163.03125 64.484375 165.511719 66.460938 170.578125 L 55.191406 170.578125 Z M 5.515625 141.5625 L 97.386719 141.5625 L 97.386719 233.4375 L 5.515625 233.4375 Z M 197.378906 198.214844 L 187.855469 175.777344 Z M 197.378906 198.214844 " fill-opacity="1" fill-rule="evenodd"/></svg>