<svg xmlns="http://www.w3.org/2000/svg" xmlns:xlink="http://www.w3.org/1999/xlink" width="500" zoomAndPan="magnify" viewBox="0 0 375 374.999991" height="500" preserveAspectRatio="xMidYMid meet" version="1.0"><defs><clipPath id="eeeca2ade0"><path d="M 0 0 L 373.800781 0 L 373.800781 375 L 0 375 Z M 0 0 " clip-rule="nonzero"/></clipPath><clipPath id="14f57e2cd0"><path d="M 186.300781 0 C 82.75 0 -1.199219 83.945312 -1.199219 187.5 C -1.199219 291.054688 82.75 375 186.300781 375 C 289.855469 375 373.800781 291.054688 373.800781 187.5 C 373.800781 83.945312 289.855469 0 186.300781 0 Z M 186.300781 0 " clip-rule="nonzero"/></clipPath><clipPath id="4e3abff6fb"><path d="M 19.679688 20.875 L 352.925781 20.875 L 352.925781 354.125 L 19.679688 354.125 Z M 19.679688 20.875 " clip-rule="nonzero"/></clipPath><clipPath id="3d7cfe57c8"><path d="M 186.300781 20.875 C 94.277344 20.875 19.679688 95.476562 19.679688 187.5 C 19.679688 279.523438 94.277344 354.125 186.300781 354.125 C 278.324219 354.125 352.925781 279.523438 352.925781 187.5 C 352.925781 95.476562 278.324219 20.875 186.300781 20.875 Z M 186.300781 20.875 " clip-rule="nonzero"/></clipPath><clipPath id="5fc61d0c83"><path d="M 19.679688 20.875 L 352.679688 20.875 L 352.679688 353.875 L 19.679688 353.875 Z M 19.679688 20.875 " clip-rule="nonzero"/></clipPath><clipPath id="68a927fbd4"><path d="M 186.300781 20.875 C 94.277344 20.875 19.679688 95.476562 19.679688 187.5 C 19.679688 279.523438 94.277344 354.121094 186.300781 354.121094 C 278.324219 354.121094 352.925781 279.523438 352.925781 187.5 C 352.925781 95.476562 278.324219 20.875 186.300781 20.875 Z M 186.300781 20.875 " clip-rule="nonzero"/></clipPath><clipPath id="a5c2764fc2"><path d="M 83 211 L 291 211 L 291 296.4375 L 83 296.4375 Z M 83 211 " clip-rule="nonzero"/></clipPath><clipPath id="f627f206c3"><path d="M 83 72.1875 L 291 72.1875 L 291 157 L 83 157 Z M 83 72.1875 " clip-rule="nonzero"/></clipPath></defs><rect x="-37.5" width="450" fill="#ffffff" y="-37.499999" height="449.999989" fill-opacity="1"/><rect x="-37.5" width="450" fill="#ffffff" y="-37.499999" height="449.999989" fill-opacity="1"/><g clip-path="url(#eeeca2ade0)"><g clip-path="url(#14f57e2cd0)"><path fill="#ff914d" d="M -1.199219 0 L 373.800781 0 L 373.800781 375 L -1.199219 375 Z M -1.199219 0 " fill-opacity="1" fill-rule="nonzero"/><path stroke-linecap="butt" transform="matrix(0.75, 0, 0, 0.75, -1.198078, 0.000000000000106581)" fill="none" stroke-linejoin="miter" d="M 249.99848 -0.000000000000142109 C 111.930771 -0.000000000000142109 -0.00152044 111.927084 -0.00152044 250 C -0.00152044 388.072917 111.930771 500.000001 249.99848 500.000001 C 388.071397 500.000001 499.99848 388.072917 499.99848 250 C 499.99848 111.927084 388.071397 -0.000000000000142109 249.99848 -0.000000000000142109 Z M 249.99848 -0.000000000000142109 " stroke="#000000" stroke-width="8" stroke-opacity="1" stroke-miterlimit="4"/></g></g><g clip-path="url(#4e3abff6fb)"><g clip-path="url(#3d7cfe57c8)"><path fill="#ff914d" d="M 19.679688 20.875 L 352.925781 20.875 L 352.925781 354.125 L 19.679688 354.125 Z M 19.679688 20.875 " fill-opacity="1" fill-rule="nonzero"/></g></g><g clip-path="url(#5fc61d0c83)"><g clip-path="url(#68a927fbd4)"><path stroke-linecap="butt" transform="matrix(0.75, 0, 0, 0.75, 19.678518, 20.876595)" fill="none" stroke-linejoin="miter" d="M 222.163032 -0.00212628 C 99.465107 -0.00212628 0.0015589 99.46663 0.0015589 222.164555 C 0.0015589 344.86248 99.465107 444.326028 222.163032 444.326028 C 344.860957 444.326028 444.329713 344.86248 444.329713 222.164555 C 444.329713 99.46663 344.860957 -0.00212628 222.163032 -0.00212628 Z M 222.163032 -0.00212628 " stroke="#ffffff" stroke-width="8" stroke-opacity="1" stroke-miterlimit="4"/></g></g><g clip-path="url(#a5c2764fc2)"><path fill="#ffffff" d="M 282.628906 217.3125 C 283.195312 218.507812 283.457031 219.796875 283.453125 221.113281 C 283.453125 221.410156 283.308594 222.3125 283.480469 221.613281 C 283.4375 221.769531 283.382812 221.929688 283.332031 222.085938 C 283.25 222.34375 283.179688 222.597656 283.117188 222.863281 C 283.085938 223.003906 282.992188 223.257812 283.015625 223.398438 C 283.082031 223.753906 283.402344 222.695312 283.226562 222.976562 C 282.980469 223.371094 282.804688 223.835938 282.648438 224.265625 C 282.441406 224.84375 282.285156 225.4375 282.101562 226.019531 L 283.011719 224.464844 C 282.484375 225.105469 281.882812 225.738281 281.445312 226.441406 C 280.8125 227.453125 282.199219 225.785156 281.285156 226.628906 C 281.089844 226.8125 280.925781 226.992188 280.75 227.195312 C 280.6875 227.269531 279.910156 228.050781 279.949219 228.15625 C 279.847656 227.890625 280.988281 227.488281 280.34375 227.820312 C 280.148438 227.917969 279.964844 228.046875 279.777344 228.160156 C 279.4375 228.363281 279.128906 228.558594 278.8125 228.796875 C 278.039062 229.382812 278.367188 228.917969 278.78125 228.808594 C 278.632812 228.847656 278.492188 228.945312 278.355469 229.007812 C 278.207031 229.082031 277.992188 229.183594 277.871094 229.296875 C 277.535156 229.617188 278.992188 229.019531 278.25 229.121094 C 277.742188 229.1875 277.28125 229.476562 276.816406 229.683594 C 277.671875 229.300781 277.457031 229.394531 276.714844 229.558594 C 276.402344 229.625 276.089844 229.699219 275.777344 229.765625 C 273.164062 230.328125 270.699219 230.949219 268.625 232.738281 C 267.46875 233.738281 266.320312 234.660156 265.359375 235.851562 C 264.339844 237.117188 263.640625 238.691406 262.941406 240.15625 C 262.234375 241.628906 262 243.332031 261.929688 244.957031 C 261.839844 247.035156 262.453125 248.910156 262.769531 250.925781 C 262.992188 252.367188 262.835938 253.769531 262.394531 255.148438 C 262.300781 255.4375 262.164062 255.722656 262.066406 256.007812 C 262.160156 255.75 262.332031 255.75 262.160156 256.019531 C 261.847656 256.507812 261.410156 256.9375 261.078125 257.417969 C 260.984375 257.558594 260.890625 257.703125 260.804688 257.84375 C 260.285156 258.683594 261.144531 257.585938 260.945312 257.664062 C 260.707031 257.757812 260.507812 258.050781 260.328125 258.238281 C 259.566406 259.046875 259.140625 259.605469 258.109375 260.140625 C 257.261719 260.582031 256.394531 260.726562 255.476562 260.921875 C 255.4375 260.933594 254.726562 261.078125 254.726562 261.089844 C 254.726562 261.03125 256.140625 260.964844 255.011719 260.992188 C 254.441406 261.007812 253.882812 261.109375 253.316406 261.191406 L 255.191406 261.191406 C 253.710938 260.980469 252.320312 260.828125 250.84375 260.535156 C 249.644531 260.300781 248.476562 260.160156 247.253906 260.167969 C 244.523438 260.1875 242.3125 261.039062 239.941406 262.292969 C 238.109375 263.257812 236.460938 264.859375 235.160156 266.457031 C 233.964844 267.921875 233.125 269.523438 232.566406 271.34375 C 232.210938 272.496094 232.140625 273.679688 231.890625 274.847656 C 231.769531 275.414062 231.574219 275.945312 231.414062 276.5 C 231.367188 276.671875 231.246094 276.8125 231.195312 276.984375 C 231.253906 276.789062 231.558594 276.574219 231.273438 276.984375 C 231.0625 277.289062 229.640625 278.695312 229.824219 278.933594 C 229.746094 278.835938 230.660156 278.09375 230.019531 278.570312 C 229.917969 278.644531 229.8125 278.734375 229.722656 278.820312 C 229.535156 279.007812 229.375 279.238281 229.203125 279.441406 C 229.144531 279.511719 228.515625 280.117188 228.535156 280.234375 C 228.5 280.003906 229.675781 279.480469 228.582031 280.0625 C 227.855469 280.445312 227.25 280.933594 226.628906 281.460938 L 228.179688 280.554688 C 227.421875 280.796875 226.695312 281.070312 225.980469 281.429688 C 225.757812 281.542969 224.730469 282.226562 225.511719 281.710938 C 226.050781 281.351562 225.917969 281.59375 225.636719 281.597656 C 225.378906 281.601562 225.101562 281.703125 224.847656 281.753906 C 224.777344 281.769531 223.746094 282.078125 223.65625 281.984375 C 223.636719 281.957031 224.964844 281.9375 223.980469 281.863281 C 223.867188 281.855469 223.753906 281.863281 223.640625 281.863281 C 223.539062 281.863281 222.429688 281.875 222.429688 281.882812 C 222.429688 281.890625 223.5 282.027344 223.042969 281.96875 L 222.105469 281.839844 L 222.921875 281.949219 C 222.738281 281.835938 222.296875 281.835938 222.097656 281.800781 C 221.425781 281.683594 220.882812 281.554688 220.25 281.3125 C 218.953125 280.8125 221.445312 281.8125 220.121094 281.269531 C 219.71875 281.105469 219.246094 280.96875 218.859375 280.761719 C 219.605469 281.160156 218.394531 280.382812 218.253906 280.28125 C 217.367188 279.664062 216.597656 278.988281 215.636719 278.480469 C 212.898438 277.015625 209 276.027344 205.886719 276.824219 C 204.476562 277.183594 202.953125 277.640625 201.636719 278.273438 C 200.25 278.9375 199.164062 279.832031 198.003906 280.824219 C 196.835938 281.816406 195.824219 282.925781 194.960938 284.207031 C 194.300781 285.1875 195.621094 283.492188 194.929688 284.277344 C 194.667969 284.578125 194.410156 284.886719 194.160156 285.195312 C 193.582031 285.90625 193.046875 286.65625 192.503906 287.390625 L 193.769531 286.125 C 193.378906 286.417969 192.949219 286.695312 192.605469 287.039062 C 192.582031 287.066406 192.144531 287.578125 192.152344 287.582031 C 192.050781 287.46875 193.160156 287.058594 192.542969 287.238281 C 191.921875 287.414062 191.496094 287.929688 190.960938 288.226562 C 190.339844 288.574219 189.558594 288.925781 188.878906 289.132812 C 188.585938 289.21875 188.886719 289.046875 188.9375 289.035156 C 188.628906 289.09375 188.367188 289.171875 188.0625 289.191406 C 187.722656 289.21875 187.367188 289.183594 187.023438 289.183594 C 186.683594 289.183594 186.328125 289.21875 185.984375 289.191406 C 185.792969 289.175781 185.585938 289.105469 185.398438 289.097656 C 184.644531 289.070312 185.519531 289.230469 185.191406 289.140625 C 184.53125 288.960938 183.75 288.585938 183.148438 288.253906 C 182.621094 287.964844 182.191406 287.546875 181.625 287.300781 C 180.785156 286.9375 182.464844 288.078125 181.511719 287.125 C 181.140625 286.75 180.703125 286.441406 180.285156 286.125 L 181.550781 287.390625 C 181.195312 286.910156 180.84375 286.429688 180.484375 285.957031 C 180.179688 285.554688 179.878906 285.1875 179.5625 284.804688 C 179.445312 284.660156 179.324219 284.519531 179.207031 284.382812 C 178.992188 284.136719 178.820312 283.648438 179.105469 284.285156 C 179.4375 285.03125 179.089844 284.191406 178.925781 283.960938 C 178.660156 283.585938 178.378906 283.257812 178.09375 282.910156 C 177.695312 282.433594 177.316406 281.945312 176.867188 281.523438 C 175.847656 280.566406 174.691406 279.515625 173.476562 278.820312 C 172.085938 278.027344 170.589844 277.597656 169.074219 277.113281 C 166.453125 276.277344 163.421875 276.527344 160.832031 277.414062 C 159.265625 277.953125 157.824219 278.734375 156.507812 279.730469 C 155.972656 280.132812 155.445312 280.496094 154.871094 280.84375 C 155.480469 280.476562 154.605469 280.988281 154.347656 281.09375 C 151.804688 282.125 155.367188 280.699219 153.796875 281.3125 C 153.554688 281.410156 153.316406 281.53125 153.066406 281.601562 C 152.449219 281.78125 151.757812 281.738281 151.148438 281.945312 L 151.121094 281.953125 C 152.25 281.804688 152.210938 281.8125 151 281.96875 C 150.441406 282.046875 152.144531 282.011719 151.417969 281.882812 C 151.078125 281.824219 150.675781 281.867188 150.324219 281.867188 C 150.195312 281.867188 150.039062 281.855469 149.921875 281.871094 C 149.101562 281.964844 150.488281 282.03125 150.3125 281.976562 C 150.175781 281.933594 150.015625 281.917969 149.878906 281.890625 C 149.4375 281.796875 148.957031 281.652344 148.507812 281.628906 C 147.539062 281.574219 149.445312 282.195312 148.542969 281.6875 C 147.636719 281.183594 146.792969 280.859375 145.859375 280.558594 L 147.414062 281.46875 C 146.894531 281.027344 146.382812 280.585938 145.796875 280.246094 C 145.554688 280.101562 145.285156 279.929688 145.027344 279.835938 C 144.621094 279.699219 145.753906 280.703125 145.277344 279.972656 C 145.011719 279.5625 144.621094 279.136719 144.273438 278.792969 C 143.453125 277.992188 144.265625 278.882812 144.214844 278.941406 C 144.300781 278.84375 143.085938 277.359375 143.332031 277.65625 C 143.175781 277.464844 143.003906 277.285156 142.847656 277.085938 C 142.777344 276.996094 142.632812 276.867188 142.566406 276.753906 C 142.804688 277.164062 142.765625 277.027344 142.636719 276.558594 C 142.363281 275.542969 142.085938 274.609375 141.9375 273.566406 C 141.628906 271.371094 140.875 269.214844 139.597656 267.386719 C 136.917969 263.550781 132.445312 260.480469 127.695312 260.195312 C 126.300781 260.109375 124.917969 260.207031 123.550781 260.472656 C 121.957031 260.777344 120.445312 260.972656 118.851562 261.195312 L 120.722656 261.195312 C 120.234375 261.125 119.746094 261.035156 119.253906 261.003906 C 119.070312 260.992188 118.835938 260.960938 118.65625 260.992188 C 118.132812 261.085938 119.828125 261.300781 119.121094 261.054688 C 118.410156 260.808594 117.617188 260.804688 116.894531 260.566406 C 115.953125 260.257812 115.050781 259.746094 114.375 259.039062 C 114.121094 258.769531 113.921875 258.449219 113.667969 258.183594 C 113.601562 258.117188 113.550781 258.058594 113.480469 257.996094 L 113.269531 257.816406 C 112.890625 257.464844 112.957031 257.597656 113.46875 258.207031 C 113.609375 257.988281 112.03125 256.242188 111.972656 256.136719 C 111.828125 255.886719 111.828125 255.589844 111.972656 256.019531 C 111.902344 255.820312 111.796875 255.613281 111.722656 255.410156 C 111.40625 254.546875 111.203125 253.636719 111.179688 252.714844 C 111.144531 251.179688 111.601562 249.855469 111.847656 248.359375 C 112.214844 246.132812 112.226562 243.820312 111.640625 241.625 C 110.824219 238.5625 108.855469 235.726562 106.488281 233.6875 C 104.46875 231.941406 102.445312 230.605469 99.75 230.066406 C 98.984375 229.914062 98.230469 229.769531 97.464844 229.605469 C 97.289062 229.5625 97.097656 229.503906 96.917969 229.484375 C 96.304688 229.414062 96.769531 229.277344 96.875 229.546875 C 96.960938 229.757812 97.433594 229.78125 96.929688 229.570312 C 96.773438 229.503906 96.128906 229.179688 95.785156 229.132812 C 95.046875 229.035156 96.5 229.632812 96.164062 229.3125 C 96.027344 229.183594 95.78125 229.0625 95.605469 228.980469 C 94.542969 228.496094 96.96875 229.953125 94.863281 228.535156 C 94.523438 228.308594 94.148438 228.082031 93.785156 227.894531 C 92.933594 227.453125 94.363281 228.703125 93.828125 227.867188 C 93.609375 227.523438 93.28125 227.152344 92.992188 226.855469 C 92.917969 226.78125 92.832031 226.71875 92.75 226.648438 C 92.085938 226.042969 92.519531 226.757812 92.808594 226.882812 C 92.542969 226.769531 92.046875 225.730469 91.835938 225.46875 C 91.570312 225.136719 91.292969 224.8125 91.023438 224.488281 L 91.933594 226.042969 C 91.757812 225.480469 91.601562 224.910156 91.40625 224.355469 C 91.257812 223.921875 91.066406 223.507812 90.863281 223.097656 C 90.566406 222.5 91.050781 223.535156 91.042969 223.539062 C 91.074219 223.523438 90.929688 222.921875 90.921875 222.882812 C 90.871094 222.660156 90.808594 222.453125 90.75 222.234375 C 90.691406 222.03125 90.609375 221.832031 90.5625 221.628906 C 90.695312 222.175781 90.585938 221.703125 90.589844 221.402344 C 90.601562 219.976562 90.796875 218.632812 91.410156 217.332031 C 90.398438 217.914062 89.382812 218.496094 88.367188 219.078125 L 261.320312 219.078125 C 269.308594 219.078125 277.335938 219.308594 285.324219 219.078125 C 285.433594 219.078125 285.546875 219.078125 285.65625 219.078125 C 290.191406 219.078125 290.199219 212.03125 285.65625 212.03125 L 112.71875 212.03125 C 104.730469 212.03125 96.703125 211.800781 88.714844 212.03125 C 88.601562 212.03125 88.492188 212.03125 88.382812 212.03125 C 87.222656 212.03125 85.855469 212.683594 85.339844 213.777344 C 83.988281 216.625 83.203125 219.792969 83.6875 222.953125 C 83.777344 223.535156 83.980469 224.0625 84.117188 224.632812 C 84.300781 225.410156 84.714844 226.113281 84.894531 226.863281 C 84.773438 226.367188 84.546875 225.925781 84.746094 226.628906 C 84.84375 226.960938 84.945312 227.300781 85.058594 227.628906 C 85.363281 228.523438 85.855469 229.230469 86.449219 229.949219 C 86.609375 230.144531 86.773438 230.441406 86.980469 230.585938 C 86.28125 230.078125 86.421875 229.976562 86.785156 230.539062 C 87.171875 231.132812 87.695312 231.511719 88.164062 232.019531 C 89.03125 232.957031 89.859375 234.082031 91.136719 234.519531 C 91.578125 234.671875 90.773438 234.292969 90.738281 234.195312 C 90.808594 234.390625 91.421875 234.761719 91.589844 234.863281 C 91.757812 234.964844 91.964844 235.015625 92.132812 235.117188 C 92.335938 235.234375 92.535156 235.371094 92.746094 235.480469 C 92.917969 235.570312 93.992188 235.796875 94.128906 235.992188 C 93.875 235.632812 93.113281 235.589844 94.195312 236.011719 C 94.519531 236.140625 94.730469 236.203125 95.054688 236.285156 C 95.5625 236.417969 96.085938 236.527344 96.605469 236.640625 C 97.589844 236.84375 98.585938 236.964844 99.53125 237.324219 C 99.808594 237.429688 100.644531 237.691406 99.957031 237.332031 C 100.167969 237.441406 100.351562 237.675781 100.53125 237.828125 C 101.371094 238.554688 102.292969 239.242188 103.042969 240.058594 C 103.144531 240.167969 103.566406 240.859375 103.707031 240.855469 C 103.476562 240.859375 103.085938 239.785156 103.355469 240.5 C 103.609375 241.160156 104.023438 241.796875 104.347656 242.421875 C 104.574219 242.863281 104.902344 243.335938 105.0625 243.808594 C 104.796875 243.015625 105.003906 244.167969 105.035156 244.429688 C 105.132812 245.222656 105.136719 246.128906 105.007812 246.921875 C 104.8125 248.144531 104.417969 249.3125 104.269531 250.554688 C 104.070312 252.230469 104.171875 253.851562 104.480469 255.507812 C 104.738281 256.902344 105.234375 258.332031 105.90625 259.582031 C 106.167969 260.074219 106.484375 260.496094 106.835938 260.929688 C 106.921875 261.035156 107.007812 261.136719 107.09375 261.242188 C 107.65625 261.890625 106.59375 260.386719 106.894531 260.996094 C 107.445312 262.117188 108.453125 262.886719 109.238281 263.828125 C 110.675781 265.570312 113.113281 266.863281 115.277344 267.449219 C 116.402344 267.757812 117.90625 268.183594 119.050781 268.058594 C 119.789062 267.980469 117.953125 267.886719 118.867188 268.003906 C 119.375 268.070312 119.765625 268.113281 120.273438 268.070312 C 121.007812 268 120.890625 268.136719 120.578125 268.035156 C 119.980469 267.84375 120.554688 268.109375 120.859375 268.097656 C 121.722656 268.070312 122.640625 267.90625 123.488281 267.714844 C 124.125 267.570312 124.757812 267.414062 125.402344 267.289062 C 125.625 267.246094 125.859375 267.21875 126.082031 267.164062 C 126.609375 267.03125 125.023438 267.144531 125.527344 267.25 C 125.730469 267.292969 125.992188 267.242188 126.207031 267.242188 C 126.671875 267.238281 127.273438 267.34375 127.71875 267.253906 C 128.023438 267.195312 126.714844 267.019531 127.382812 267.214844 C 127.734375 267.316406 128.105469 267.375 128.464844 267.457031 C 128.613281 267.488281 129.132812 267.699219 129.25 267.628906 C 129.023438 267.757812 128.074219 267.050781 128.890625 267.515625 C 129.503906 267.859375 130.132812 268.210938 130.769531 268.507812 C 131.773438 268.972656 130.015625 267.769531 130.855469 268.496094 C 131.390625 268.960938 131.949219 269.398438 132.480469 269.871094 C 132.742188 270.105469 132.953125 270.320312 133.1875 270.589844 C 133.417969 270.859375 133.625 271.121094 133.851562 271.378906 C 134.378906 271.980469 133.234375 270.425781 133.707031 271.222656 C 134.816406 273.09375 134.929688 274.890625 135.425781 276.976562 C 135.734375 278.269531 136.226562 279.613281 136.894531 280.769531 C 137.125 281.171875 137.421875 281.527344 137.722656 281.886719 C 137.832031 282.023438 137.949219 282.15625 138.0625 282.289062 C 138.417969 282.707031 138.363281 282.359375 138.121094 282.339844 C 137.878906 282.324219 137.792969 281.871094 138.085938 282.394531 C 138.125 282.460938 138.164062 282.539062 138.207031 282.605469 C 138.589844 283.179688 138.828125 283.324219 139.257812 283.746094 C 139.644531 284.117188 139.949219 284.566406 140.3125 284.960938 C 140.753906 285.4375 141.238281 285.78125 141.808594 286.097656 C 141.898438 286.148438 142.453125 286.5 142.503906 286.464844 C 142.449219 286.5 141.601562 285.738281 142.148438 286.199219 C 142.363281 286.382812 142.578125 286.570312 142.804688 286.734375 C 143.289062 287.074219 143.78125 287.285156 144.339844 287.46875 C 144.296875 287.453125 144.820312 287.652344 144.855469 287.636719 C 144.792969 287.667969 143.863281 287.105469 144.3125 287.417969 C 144.855469 287.792969 145.691406 288.183594 146.3125 288.363281 C 147.289062 288.648438 148.515625 288.878906 149.539062 288.933594 C 150.03125 288.960938 150.535156 288.929688 151.027344 288.933594 C 151.433594 288.941406 151.769531 288.929688 152.175781 288.882812 C 152.371094 288.863281 152.574219 288.816406 152.773438 288.796875 C 150.96875 288.976562 152.671875 288.8125 153.015625 288.753906 C 154.042969 288.585938 154.964844 288.40625 155.921875 288.023438 C 156.296875 287.875 156.679688 287.707031 157.050781 287.5625 C 156.300781 287.851562 156.289062 287.882812 156.964844 287.609375 C 158.277344 287.082031 159.308594 286.375 160.449219 285.546875 C 161.902344 284.488281 163.210938 284.078125 164.910156 283.699219 C 164.976562 283.683594 165.390625 283.652344 165.429688 283.59375 C 165.265625 283.828125 164.199219 283.695312 165.363281 283.691406 C 165.867188 283.6875 166.445312 283.78125 166.9375 283.707031 C 167.1875 283.667969 165.992188 283.394531 166.304688 283.625 C 166.480469 283.753906 166.886719 283.808594 167.085938 283.875 C 167.796875 284.101562 168.507812 284.347656 169.222656 284.554688 C 169.433594 284.617188 170.03125 284.859375 169.25 284.523438 C 168.386719 284.152344 169.257812 284.566406 169.449219 284.660156 C 169.550781 284.71875 170.171875 285.128906 170.277344 285.089844 C 170.121094 285.144531 169.238281 284.234375 170.050781 284.9375 C 170.84375 285.621094 171.6875 286.25 172.386719 287.023438 C 172.613281 287.273438 172.820312 287.542969 173.039062 287.800781 C 173.722656 288.601562 172.871094 287.800781 172.902344 287.597656 C 172.839844 288.023438 173.890625 288.960938 174.148438 289.273438 C 174.371094 289.539062 174.589844 289.816406 174.824219 290.074219 C 175.253906 290.539062 174.113281 289.109375 174.617188 289.800781 C 175.160156 290.542969 175.6875 291.355469 176.386719 291.945312 C 176.558594 292.09375 176.757812 292.21875 176.933594 292.367188 C 177.324219 292.699219 176.398438 291.667969 176.542969 292.121094 C 176.597656 292.28125 176.871094 292.535156 176.988281 292.648438 C 177.519531 293.167969 178.179688 293.382812 178.78125 293.777344 C 179.699219 294.378906 180.613281 294.78125 181.625 295.226562 C 185.011719 296.722656 189.324219 296.605469 192.683594 295.128906 C 193.6875 294.6875 194.527344 294.246094 195.445312 293.675781 C 196.046875 293.304688 196.628906 293.101562 197.148438 292.578125 C 197.589844 292.128906 197.941406 292.007812 197.050781 292.4375 C 197.6875 292.128906 198.191406 291.5 198.601562 290.957031 C 198.929688 290.519531 199.28125 290.085938 199.585938 289.632812 C 199.511719 289.746094 198.835938 290.550781 199.488281 289.792969 C 199.703125 289.546875 199.914062 289.292969 200.125 289.039062 C 200.382812 288.722656 200.632812 288.398438 200.867188 288.066406 C 200.933594 287.96875 201.007812 287.871094 201.0625 287.773438 C 201.378906 287.210938 200.753906 288.171875 200.710938 288.199219 C 201.195312 287.910156 201.535156 287.148438 201.9375 286.738281 C 202.664062 285.996094 203.558594 285.414062 204.3125 284.699219 C 204.703125 284.332031 203.445312 285.125 203.941406 285.023438 C 204.238281 284.964844 204.613281 284.6875 204.871094 284.546875 C 205.601562 284.136719 204.605469 284.675781 204.5 284.675781 C 204.742188 284.679688 205.09375 284.484375 205.324219 284.410156 C 205.996094 284.195312 206.679688 284 207.347656 283.765625 C 208.667969 283.308594 206.253906 283.691406 207.625 283.699219 C 208.117188 283.699219 208.664062 283.746094 209.148438 283.699219 C 209.839844 283.628906 208.292969 283.484375 208.808594 283.628906 C 209.097656 283.707031 209.402344 283.753906 209.695312 283.816406 C 211.539062 284.207031 212.867188 285.027344 214.390625 286.136719 C 215.320312 286.8125 216.304688 287.296875 217.371094 287.71875 C 218.664062 288.226562 215.273438 286.871094 217.894531 287.929688 C 218.140625 288.03125 218.398438 288.132812 218.648438 288.222656 C 219.730469 288.621094 220.9375 288.761719 222.082031 288.90625 C 220.191406 288.667969 222.796875 288.941406 223.328125 288.933594 C 224.066406 288.925781 224.777344 288.929688 225.511719 288.804688 C 226.578125 288.625 227.683594 288.472656 228.664062 288.007812 C 228.882812 287.902344 229.101562 287.777344 229.316406 287.664062 C 229.492188 287.570312 230.363281 287.140625 229.570312 287.496094 C 228.777344 287.851562 229.746094 287.484375 229.976562 287.402344 C 230.703125 287.144531 231.238281 286.78125 231.828125 286.296875 C 232.59375 285.664062 231.214844 286.554688 231.71875 286.398438 C 232 286.308594 232.339844 286.085938 232.589844 285.9375 C 233.230469 285.550781 233.644531 285.113281 234.113281 284.554688 C 234.40625 284.207031 234.707031 283.902344 235.019531 283.578125 C 235.355469 283.234375 235.652344 282.949219 235.929688 282.511719 C 236.558594 281.511719 235.417969 282.992188 235.9375 282.394531 C 237.507812 280.589844 238.457031 278.367188 238.84375 276.003906 C 239.035156 274.820312 239.144531 273.640625 239.617188 272.527344 C 239.703125 272.332031 240.585938 271.027344 240.542969 270.960938 C 240.605469 271.058594 239.710938 271.984375 240.457031 271.109375 C 240.652344 270.878906 240.835938 270.636719 241.042969 270.417969 C 241.304688 270.132812 241.582031 269.894531 241.882812 269.640625 C 242.378906 269.21875 242.894531 268.808594 243.378906 268.371094 C 243.902344 267.894531 242.746094 268.714844 243 268.675781 C 243.253906 268.636719 243.535156 268.394531 243.746094 268.28125 C 244.304688 267.984375 244.894531 267.722656 245.429688 267.390625 C 245.96875 267.058594 244.375 267.625 244.980469 267.601562 C 245.363281 267.589844 245.820312 267.414062 246.191406 267.332031 C 246.375 267.292969 246.574219 267.269531 246.753906 267.207031 C 247.304688 267.023438 246.296875 267.328125 246.253906 267.261719 C 246.265625 267.277344 246.820312 267.253906 246.742188 267.253906 C 247.292969 267.257812 247.910156 267.316406 248.453125 267.253906 C 249.144531 267.171875 247.292969 267.015625 248.238281 267.214844 C 248.449219 267.257812 248.664062 267.292969 248.875 267.335938 C 249.773438 267.511719 250.65625 267.757812 251.558594 267.898438 C 252.140625 267.984375 252.746094 268.097656 253.332031 268.101562 C 253.417969 268.101562 253.796875 268.0625 253.832031 268.09375 C 253.8125 268.074219 252.789062 267.972656 253.332031 268.011719 C 254.078125 268.0625 254.679688 268.066406 255.425781 267.980469 C 255.953125 267.917969 254.386719 267.980469 254.914062 268.070312 C 255.089844 268.097656 255.339844 268.070312 255.511719 268.054688 C 259.070312 267.828125 262.792969 266.238281 265.101562 263.519531 C 265.394531 263.171875 265.703125 262.925781 266.019531 262.605469 C 265.996094 262.628906 267.359375 261.035156 267.277344 260.851562 C 267.335938 260.980469 266.554688 261.742188 266.980469 261.25 C 267.09375 261.117188 267.203125 260.980469 267.316406 260.84375 C 267.703125 260.363281 268.015625 259.910156 268.28125 259.351562 C 268.941406 257.953125 269.441406 256.519531 269.679688 254.992188 C 269.921875 253.460938 269.980469 252.066406 269.804688 250.5625 C 269.636719 249.144531 269.136719 247.777344 269.011719 246.367188 C 268.957031 245.734375 268.957031 245.070312 269.035156 244.4375 C 269.070312 244.175781 269.253906 243.03125 269.027344 243.777344 C 269.195312 243.230469 269.597656 242.667969 269.859375 242.160156 C 270.148438 241.59375 270.535156 241.023438 270.75 240.425781 C 270.988281 239.777344 270.125 241.109375 270.425781 240.785156 C 270.679688 240.507812 270.890625 240.183594 271.148438 239.914062 C 271.902344 239.132812 272.8125 238.460938 273.628906 237.75 C 273.78125 237.621094 273.941406 237.441406 274.109375 237.335938 C 273.4375 237.757812 274.242188 237.441406 274.535156 237.332031 C 275.546875 236.949219 276.617188 236.824219 277.667969 236.59375 C 278.113281 236.492188 278.566406 236.40625 279.011719 236.296875 C 279.550781 236.160156 279.636719 236.117188 280.292969 235.84375 C 281.101562 235.511719 279.449219 236.113281 280.144531 235.949219 C 280.839844 235.785156 281.386719 235.449219 281.972656 235.109375 C 282.128906 235.015625 282.324219 234.972656 282.480469 234.875 C 284.71875 233.480469 282.15625 234.914062 283.027344 234.472656 C 284.316406 233.828125 285.042969 232.90625 286.011719 231.90625 C 286.496094 231.40625 286.921875 231.140625 287.308594 230.503906 C 287.71875 229.832031 287.496094 230.339844 287.089844 230.601562 C 287.339844 230.441406 287.601562 229.988281 287.785156 229.761719 C 288.347656 229.074219 288.761719 228.386719 289.042969 227.542969 C 289.140625 227.246094 289.238281 226.941406 289.320312 226.640625 C 289.640625 225.511719 288.996094 227.210938 289.277344 226.675781 C 291.378906 222.71875 290.566406 217.667969 288.730469 213.796875 C 287.914062 212.074219 285.449219 211.628906 283.910156 212.527344 C 282.148438 213.558594 281.824219 215.625 282.640625 217.351562 Z M 282.628906 217.3125 " fill-opacity="1" fill-rule="nonzero"/></g><g clip-path="url(#f627f206c3)"><path fill="#ffffff" d="M 90.679688 148.851562 C 90.597656 147.945312 90.53125 146.996094 90.675781 146.09375 C 90.695312 145.964844 90.894531 144.933594 90.644531 145.707031 C 90.707031 145.523438 90.835938 145.351562 90.917969 145.175781 C 91.339844 144.296875 91.722656 143.445312 92.015625 142.515625 L 91.109375 144.070312 C 91.582031 143.496094 92.046875 142.9375 92.40625 142.285156 C 92.476562 142.164062 92.605469 141.960938 92.648438 141.816406 C 92.828125 141.242188 92.390625 142.296875 92.261719 142.261719 C 92.382812 142.292969 93.054688 141.585938 93.164062 141.484375 C 93.3125 141.351562 94.226562 140.464844 94.160156 140.394531 C 94.226562 140.464844 93.128906 141.019531 93.738281 140.742188 C 93.882812 140.679688 94.050781 140.5625 94.179688 140.480469 C 94.5625 140.230469 94.917969 139.953125 95.273438 139.664062 C 96.113281 138.972656 95.113281 139.714844 95.226562 139.714844 C 95.417969 139.714844 95.921875 139.429688 96.101562 139.328125 C 96.34375 139.195312 96.722656 139 95.691406 139.46875 C 95.9375 139.355469 96.855469 139.007812 96.648438 139.085938 C 96.746094 139.046875 96.832031 138.988281 96.9375 138.957031 C 97.515625 138.78125 96.378906 139.0625 97.089844 138.976562 C 98.308594 138.828125 99.769531 138.550781 100.949219 138.183594 C 105.792969 136.679688 110.308594 132.121094 111.5625 127.152344 C 112.292969 124.261719 112.109375 121.628906 111.550781 118.714844 C 111.445312 118.152344 111.402344 117.578125 111.308594 117.011719 C 111.285156 116.859375 111.257812 116.707031 111.226562 116.554688 C 111.074219 115.773438 111.277344 117.453125 111.304688 116.972656 C 111.332031 116.457031 111.148438 115.84375 111.078125 115.320312 L 111.078125 117.195312 C 111.144531 116.71875 111.21875 116.242188 111.273438 115.769531 C 111.273438 115.789062 111.292969 114.996094 111.34375 114.910156 C 110.945312 115.574219 111.246094 115.71875 111.367188 115.042969 C 111.539062 114.078125 111.664062 113.222656 112.105469 112.332031 C 112.285156 111.96875 112.5 111.625 112.714844 111.285156 C 112.933594 110.949219 113.425781 110.539062 112.914062 110.988281 C 113.226562 110.707031 113.582031 110.460938 113.878906 110.160156 C 114.097656 109.949219 114.410156 109.679688 114.539062 109.40625 C 114.8125 108.828125 113.882812 109.765625 114.136719 109.648438 C 114.351562 109.546875 114.546875 109.371094 114.746094 109.242188 C 115.242188 108.910156 115.695312 108.542969 116.1875 108.207031 C 116.648438 107.890625 115.5625 108.675781 115.863281 108.484375 C 116.234375 108.25 115.222656 108.730469 115.265625 108.710938 C 115.785156 108.515625 116.292969 108.292969 116.800781 108.070312 C 116.992188 107.988281 117.183594 107.902344 117.375 107.816406 C 118.265625 107.425781 117.113281 107.917969 117.121094 107.941406 C 117.121094 107.941406 118.949219 107.539062 119.023438 107.511719 C 119.671875 107.289062 118.066406 107.484375 118.566406 107.574219 C 118.75 107.609375 118.980469 107.574219 119.175781 107.5625 C 119.71875 107.527344 120.269531 107.425781 120.816406 107.34375 L 118.941406 107.34375 C 119.40625 107.414062 119.933594 107.558594 120.378906 107.535156 C 121.234375 107.488281 119.265625 107.285156 120.144531 107.460938 C 120.820312 107.597656 121.5 107.699219 122.183594 107.8125 C 123.507812 108.023438 124.808594 108.371094 126.152344 108.382812 C 127.496094 108.394531 128.855469 108.238281 130.203125 107.949219 C 131.554688 107.65625 132.832031 106.886719 134.097656 106.21875 C 136.390625 105.011719 137.953125 103.167969 139.566406 101.183594 C 140.550781 99.972656 141.175781 98.421875 141.59375 96.921875 C 141.8125 96.125 141.863281 95.328125 142.03125 94.523438 C 141.855469 95.355469 142.148438 94.269531 142.214844 94.015625 C 142.292969 93.722656 142.386719 93.425781 142.445312 93.125 C 142.570312 92.460938 142.542969 92.84375 142.25 93.292969 C 142.429688 93.015625 142.789062 92.269531 142.757812 91.890625 C 142.710938 91.398438 142.242188 92.59375 142.546875 92.34375 C 142.675781 92.242188 142.765625 91.976562 142.847656 91.828125 C 142.894531 91.738281 142.976562 91.636719 143.007812 91.535156 C 143.265625 90.75 142.875 91.820312 142.734375 91.734375 C 142.820312 91.789062 143.507812 90.683594 143.640625 90.464844 C 143.738281 90.308594 143.839844 90.136719 143.929688 89.96875 C 144.359375 89.144531 143.933594 90.257812 143.667969 90.21875 C 143.816406 90.238281 144.429688 89.578125 144.554688 89.464844 C 144.742188 89.292969 144.90625 89.140625 145.078125 88.953125 C 145.183594 88.839844 145.382812 88.640625 145.449219 88.515625 C 145.722656 87.957031 144.574219 88.800781 145.210938 88.683594 C 145.980469 88.542969 146.734375 87.613281 147.316406 87.113281 L 145.761719 88.019531 C 146.507812 87.78125 147.261719 87.570312 147.972656 87.230469 C 148.195312 87.121094 148.414062 87.003906 148.632812 86.878906 C 149.523438 86.378906 147.546875 87.070312 148.824219 86.890625 C 149.382812 86.816406 150.921875 86.40625 149.402344 86.722656 C 149.476562 86.707031 150.132812 86.621094 150.453125 86.578125 C 149.027344 86.761719 149.667969 86.65625 150 86.6875 C 150.308594 86.714844 150.636719 86.710938 150.949219 86.695312 C 151.949219 86.648438 150.925781 86.558594 150.78125 86.578125 C 150.042969 86.699219 151.714844 86.664062 151.902344 86.707031 C 150.667969 86.421875 151.261719 86.605469 151.511719 86.679688 C 152.105469 86.855469 152.71875 86.917969 153.304688 87.105469 C 153.554688 87.1875 153.785156 87.285156 154.042969 87.347656 C 154.832031 87.53125 153.746094 87.171875 153.722656 87.171875 C 153.726562 87.171875 154.597656 87.613281 154.515625 87.574219 C 155.882812 88.265625 153.769531 87.054688 154.828125 87.808594 C 155.0625 87.972656 155.308594 88.117188 155.550781 88.265625 C 157.929688 89.734375 160.128906 91.207031 162.957031 91.707031 C 164.621094 92 166.617188 92.140625 168.289062 91.738281 C 171.292969 91.019531 174.035156 89.6875 176.316406 87.605469 C 177.269531 86.734375 178.066406 85.648438 178.882812 84.640625 C 179.449219 83.941406 179.976562 83.203125 180.515625 82.484375 C 180.699219 82.234375 180.890625 81.988281 181.070312 81.738281 C 181.289062 81.429688 181.398438 81.523438 181.007812 81.804688 C 180.203125 82.375 181.230469 81.519531 181.488281 81.171875 L 180.222656 82.4375 C 181.109375 81.765625 181.988281 81.09375 182.839844 80.378906 C 183.394531 79.914062 182.046875 80.933594 182.578125 80.644531 C 183.199219 80.300781 182.378906 80.609375 182.175781 80.699219 C 182.761719 80.441406 183.367188 80.242188 183.953125 79.972656 C 184.210938 79.855469 184.472656 79.734375 184.722656 79.601562 C 185.332031 79.285156 183.574219 79.90625 184.488281 79.769531 C 185.09375 79.675781 185.792969 79.277344 184.671875 79.566406 C 185.316406 79.402344 186.042969 79.519531 186.695312 79.296875 C 187.050781 79.171875 185.480469 79.296875 186.53125 79.398438 C 186.699219 79.414062 186.878906 79.429688 187.050781 79.429688 C 187.222656 79.429688 187.402344 79.414062 187.566406 79.398438 C 188.527344 79.300781 187.410156 79.472656 187.269531 79.269531 C 187.550781 79.6875 188.933594 79.328125 189.3125 79.558594 C 189.550781 79.703125 188.113281 79.308594 189.128906 79.648438 C 189.285156 79.699219 189.445312 79.746094 189.609375 79.769531 C 190.492188 79.878906 188.808594 79.316406 189.375 79.601562 C 189.601562 79.71875 189.832031 79.828125 190.066406 79.933594 C 190.640625 80.199219 191.226562 80.433594 191.816406 80.65625 C 192.28125 80.832031 190.738281 80.15625 191.523438 80.644531 C 192.023438 80.957031 190.710938 79.925781 191.261719 80.378906 C 192.117188 81.089844 192.996094 81.765625 193.878906 82.4375 L 192.613281 81.171875 C 192.757812 81.367188 192.90625 81.554688 193.046875 81.746094 C 193.945312 82.921875 192.566406 81.027344 192.929688 81.59375 C 193.035156 81.757812 193.164062 81.914062 193.277344 82.070312 C 193.726562 82.679688 194.175781 83.289062 194.632812 83.890625 C 195.5 85.039062 196.414062 86.257812 197.421875 87.285156 C 199.535156 89.441406 202.09375 90.554688 204.914062 91.457031 C 209.339844 92.871094 213.898438 91.265625 217.621094 88.824219 C 218.085938 88.519531 218.570312 88.257812 219.039062 87.960938 C 219.171875 87.878906 219.386719 87.769531 219.507812 87.660156 C 220.023438 87.179688 218.824219 87.816406 219.101562 87.777344 C 219.464844 87.726562 219.816406 87.507812 220.136719 87.320312 C 220.828125 86.914062 219.410156 87.433594 219.925781 87.386719 C 220.445312 87.335938 220.917969 87.046875 221.417969 86.925781 C 221.722656 86.855469 222.035156 86.824219 222.339844 86.753906 C 222.402344 86.738281 222.839844 86.625 222.839844 86.621094 L 222.199219 86.714844 C 222.578125 86.714844 222.949219 86.671875 223.320312 86.585938 C 222.832031 86.480469 222.386719 86.679688 223.207031 86.703125 C 223.511719 86.710938 223.921875 86.753906 224.222656 86.691406 C 224.761719 86.574219 223.71875 86.59375 223.652344 86.582031 C 224.023438 86.632812 224.394531 86.691406 224.769531 86.734375 C 223.257812 86.574219 224.175781 86.675781 224.558594 86.761719 C 224.71875 86.796875 225.75 87.082031 225.816406 87.003906 C 225.695312 87.148438 224.683594 86.441406 225.363281 86.828125 C 225.542969 86.933594 225.730469 87.027344 225.914062 87.121094 C 226.699219 87.503906 227.511719 87.761719 228.339844 88.023438 L 226.785156 87.117188 C 227.355469 87.605469 227.914062 88.117188 228.550781 88.511719 C 228.601562 88.542969 229.078125 88.800781 229.082031 88.789062 C 228.976562 88.933594 228.292969 87.882812 228.652344 88.515625 C 228.792969 88.773438 229.050781 89.023438 229.261719 89.226562 C 229.46875 89.433594 229.71875 89.621094 229.949219 89.8125 C 230.855469 90.585938 229.847656 89.765625 229.953125 89.601562 C 229.8125 89.8125 231.304688 91.675781 231.359375 91.734375 C 230.601562 90.917969 231.03125 91.394531 231.199219 91.746094 C 231.269531 91.898438 231.871094 92.875 231.449219 92.101562 C 230.972656 91.222656 231.816406 93.234375 231.816406 93.234375 C 231.714844 93.316406 231.476562 92.214844 231.652344 93.128906 C 231.765625 93.726562 231.957031 94.324219 232.105469 94.914062 C 231.835938 93.878906 232.164062 95.351562 232.183594 95.46875 C 232.238281 95.796875 232.296875 96.125 232.375 96.449219 C 232.597656 97.386719 232.941406 98.273438 233.328125 99.152344 C 234.402344 101.601562 236.773438 104.324219 239.089844 105.746094 C 241.539062 107.257812 244.113281 108.3125 247.019531 108.371094 C 248.644531 108.40625 250.144531 108.105469 251.738281 107.839844 C 252.347656 107.742188 252.953125 107.648438 253.558594 107.539062 C 253.726562 107.507812 253.898438 107.484375 254.0625 107.445312 C 254.582031 107.328125 253.527344 107.4375 253.554688 107.539062 C 253.585938 107.65625 254.796875 107.402344 255.152344 107.351562 L 253.277344 107.351562 C 253.800781 107.425781 254.34375 107.527344 254.871094 107.566406 C 255.015625 107.574219 255.257812 107.613281 255.410156 107.578125 C 256.070312 107.433594 254.5 107.320312 255.066406 107.519531 C 255.085938 107.527344 256.96875 107.949219 256.96875 107.945312 C 256.976562 107.933594 255.824219 107.4375 256.597656 107.773438 C 256.800781 107.863281 257.003906 107.953125 257.207031 108.042969 C 257.644531 108.234375 258.382812 108.339844 258.714844 108.675781 C 258.871094 108.832031 257.617188 108.011719 257.910156 108.210938 C 258.398438 108.546875 258.855469 108.917969 259.347656 109.25 C 259.527344 109.367188 259.703125 109.5 259.890625 109.609375 C 260.320312 109.863281 259.238281 108.824219 259.550781 109.410156 C 259.683594 109.664062 259.941406 109.910156 260.144531 110.113281 C 260.4375 110.40625 260.789062 110.683594 261.113281 110.9375 C 261.265625 111.074219 261.214844 110.996094 260.964844 110.699219 L 261.242188 111.089844 C 261.503906 111.5 261.765625 111.902344 261.984375 112.339844 C 262.429688 113.222656 262.546875 114.09375 262.722656 115.046875 C 262.757812 115.242188 263.023438 116.023438 262.792969 115.257812 C 262.601562 114.605469 262.738281 115.066406 262.753906 115.304688 C 262.789062 115.925781 262.929688 116.582031 263.015625 117.199219 L 263.015625 115.328125 C 262.980469 115.566406 262.945312 115.800781 262.914062 116.042969 C 262.519531 118.882812 263.039062 115.648438 262.863281 116.554688 C 262.742188 117.191406 262.6875 117.832031 262.574219 118.464844 C 262.113281 121.019531 261.734375 123.351562 262.261719 125.933594 C 262.820312 128.683594 264.097656 131.011719 265.878906 133.160156 C 267.652344 135.296875 269.722656 136.804688 272.296875 137.847656 C 273.253906 138.230469 274.222656 138.449219 275.234375 138.644531 C 275.742188 138.746094 276.261719 138.835938 276.769531 138.921875 C 277.796875 139.089844 276.527344 138.757812 277.355469 139.050781 C 277.671875 139.160156 277.96875 139.34375 278.289062 139.445312 C 278.78125 139.609375 277.519531 139.023438 277.882812 139.273438 C 278.113281 139.4375 278.496094 139.625 278.761719 139.675781 C 279.335938 139.789062 278.480469 139.503906 278.398438 139.308594 C 278.445312 139.425781 278.792969 139.65625 278.894531 139.738281 C 279.265625 140.050781 279.621094 140.296875 280.019531 140.554688 C 280.140625 140.632812 280.292969 140.769531 280.433594 140.800781 C 280.746094 140.867188 279.789062 140.011719 280.058594 140.566406 C 280.167969 140.796875 280.449219 141.0625 280.632812 141.246094 C 280.875 141.488281 281.167969 141.726562 281.4375 141.9375 C 281.515625 142 281.679688 142.222656 281.769531 142.222656 C 281.933594 142.222656 281.300781 141.277344 281.4375 141.824219 C 281.644531 142.675781 282.441406 143.429688 282.976562 144.078125 L 282.070312 142.523438 C 282.386719 143.550781 282.882812 144.453125 283.296875 145.433594 C 283.578125 146.105469 283.238281 145.015625 283.3125 145.707031 C 283.347656 146.023438 283.429688 146.320312 283.457031 146.640625 C 283.503906 147.175781 283.507812 147.761719 283.457031 148.300781 C 283.523438 147.621094 283.457031 148.234375 283.410156 148.398438 C 283.238281 149.023438 283.105469 149.652344 282.933594 150.269531 C 282.878906 150.46875 282.800781 150.695312 282.773438 150.898438 C 282.667969 151.652344 283.308594 150.082031 282.855469 150.714844 C 282.609375 151.0625 282.527344 151.507812 282.316406 151.875 C 282.066406 152.3125 282.753906 150.984375 282.457031 151.449219 C 283.472656 150.867188 284.488281 150.285156 285.503906 149.703125 L 96.582031 149.703125 C 94.042969 149.703125 91.449219 149.542969 88.914062 149.703125 C 88.804688 149.710938 88.695312 149.703125 88.585938 149.703125 C 89.597656 150.285156 90.613281 150.867188 91.628906 151.449219 C 91.335938 150.992188 92.25 152.785156 91.59375 151.449219 C 91.480469 151.230469 91.363281 150.792969 91.164062 150.601562 C 91.039062 150.480469 91.53125 151.667969 91.238281 150.605469 C 91.195312 150.457031 91.152344 150.304688 91.109375 150.152344 C 90.910156 149.417969 90.742188 148.664062 90.554688 147.917969 C 89.4375 143.523438 82.636719 145.386719 83.753906 149.792969 C 83.960938 150.613281 84.144531 151.433594 84.378906 152.242188 C 84.585938 152.949219 84.738281 153.628906 85.140625 154.265625 C 85.609375 155.015625 84.585938 152.988281 85.226562 154.378906 C 85.585938 155.148438 86.03125 155.820312 86.800781 156.269531 C 87.53125 156.695312 88.265625 156.734375 89.050781 156.75 C 90.382812 156.777344 91.71875 156.75 93.050781 156.75 L 140.355469 156.75 C 151.886719 156.75 163.417969 156.75 174.949219 156.75 C 186.484375 156.75 198.988281 156.75 211.007812 156.75 C 222.054688 156.75 233.097656 156.75 244.144531 156.75 C 252.75 156.75 261.355469 156.75 269.964844 156.75 L 284.078125 156.75 C 284.476562 156.75 284.875 156.765625 285.273438 156.75 C 285.335938 156.75 285.402344 156.753906 285.460938 156.75 C 286.71875 156.679688 287.851562 156.097656 288.511719 155.003906 C 288.734375 154.640625 288.894531 154.246094 289.039062 153.847656 C 288.804688 154.496094 288.765625 154.59375 289.09375 153.945312 C 290.605469 150.980469 290.773438 146.957031 290.078125 143.828125 C 289.875 142.894531 289.472656 142.046875 289.015625 141.214844 C 288.558594 140.382812 289.199219 141.382812 289.105469 141.496094 C 289.183594 141.402344 288.691406 140.292969 288.660156 140.21875 C 288.40625 139.671875 288.050781 139.238281 287.671875 138.773438 C 287.144531 138.132812 288.113281 139.648438 287.792969 138.839844 C 287.542969 138.21875 287.132812 137.640625 286.664062 137.175781 C 285.867188 136.394531 284.960938 135.367188 284.046875 134.757812 C 283.847656 134.625 283.582031 134.402344 283.351562 134.339844 C 283.246094 134.3125 284.21875 135.042969 283.507812 134.449219 C 282.871094 133.917969 282.296875 133.601562 281.558594 133.257812 C 281.292969 133.132812 281.046875 132.996094 280.773438 132.875 C 279.371094 132.257812 281.425781 133.175781 280.675781 132.863281 C 279.492188 132.371094 278.398438 132.082031 277.144531 131.851562 C 276.378906 131.710938 275.578125 131.578125 274.847656 131.328125 C 274.558594 131.230469 274.277344 131.097656 273.996094 130.984375 C 273.710938 130.871094 272.96875 130.753906 273.675781 130.859375 C 274.382812 130.96875 273.78125 130.902344 273.542969 130.769531 C 272.515625 130.183594 273.847656 131.109375 273.5 130.777344 C 272.792969 130.101562 271.996094 129.546875 271.359375 128.804688 C 270.929688 128.308594 270.535156 127.785156 270.101562 127.292969 C 269.695312 126.824219 270.476562 128.007812 270.4375 127.703125 C 270.410156 127.464844 270.15625 127.152344 270.046875 126.9375 C 269.765625 126.394531 269.511719 125.816406 269.199219 125.289062 C 268.839844 124.679688 269.382812 125.871094 269.398438 125.769531 C 269.4375 125.5 269.226562 124.988281 269.171875 124.730469 C 269.109375 124.433594 269.039062 124.140625 268.980469 123.847656 C 268.964844 123.773438 268.941406 123.699219 268.929688 123.625 C 269.070312 124.503906 268.957031 123.609375 268.964844 123.453125 C 269.015625 122.371094 269.132812 121.488281 269.324219 120.429688 C 269.417969 119.917969 269.460938 119.402344 269.546875 118.890625 C 269.585938 118.648438 269.636719 118.417969 269.675781 118.179688 C 269.707031 117.980469 269.828125 117.402344 269.808594 117.195312 C 269.761719 116.671875 269.675781 118.25 269.714844 117.679688 C 269.78125 116.695312 269.84375 115.832031 269.714844 114.847656 C 269.578125 113.769531 269.761719 115.695312 269.765625 114.917969 C 269.769531 114.371094 269.613281 113.84375 269.523438 113.308594 C 269.214844 111.546875 268.710938 109.933594 267.8125 108.351562 C 267.007812 106.933594 265.917969 106.015625 264.863281 104.855469 C 264.390625 104.335938 264.011719 103.9375 263.417969 103.523438 C 263.164062 103.34375 262.902344 103.171875 262.644531 103.003906 C 262.523438 102.925781 262.402344 102.804688 262.269531 102.757812 C 261.941406 102.636719 263.085938 103.410156 262.621094 103.023438 C 261.96875 102.484375 261.453125 102.242188 260.671875 101.921875 C 259.832031 101.578125 260.824219 101.992188 260.824219 101.996094 C 260.53125 101.855469 260.226562 101.730469 259.925781 101.601562 C 258.894531 101.152344 257.917969 100.917969 256.816406 100.707031 C 256.417969 100.628906 256.015625 100.5625 255.609375 100.539062 C 255.480469 100.53125 255.222656 100.503906 255.117188 100.53125 C 254.730469 100.628906 254.996094 100.253906 255.269531 100.578125 C 255.425781 100.769531 255.863281 100.664062 255.328125 100.589844 C 255.261719 100.578125 255.199219 100.566406 255.128906 100.5625 C 254.371094 100.460938 253.671875 100.460938 252.921875 100.609375 C 254.84375 100.230469 252.363281 100.621094 252.386719 100.617188 C 252.191406 100.648438 251.996094 100.691406 251.800781 100.722656 C 251.292969 100.8125 250.78125 100.90625 250.273438 100.988281 C 249.855469 101.054688 249.441406 101.125 249.027344 101.203125 C 248.667969 101.265625 248.308594 101.328125 247.949219 101.402344 C 247.050781 101.582031 248.933594 101.429688 248.164062 101.347656 C 247.699219 101.292969 247.164062 101.316406 246.703125 101.328125 C 245.765625 101.347656 247.027344 101.433594 246.945312 101.40625 C 246.65625 101.324219 246.347656 101.296875 246.054688 101.234375 C 245.863281 101.195312 245.675781 101.140625 245.484375 101.109375 C 244.542969 100.957031 245.65625 101.261719 245.695312 101.292969 C 245.234375 100.96875 244.65625 100.746094 244.160156 100.484375 C 243.710938 100.25 243.171875 99.84375 242.679688 99.707031 C 242.164062 99.558594 243.464844 100.398438 243.082031 100.042969 C 242.792969 99.777344 242.480469 99.539062 242.183594 99.28125 C 241.449219 98.644531 240.867188 97.859375 240.242188 97.113281 C 240.050781 96.886719 239.796875 96.648438 239.636719 96.394531 C 239.390625 96 239.773438 96.40625 239.792969 96.484375 C 239.550781 95.363281 239.125 94.25 238.894531 93.105469 C 238.6875 92.066406 238.433594 90.675781 237.910156 89.753906 C 238.191406 90.253906 238.308594 90.632812 238.066406 89.851562 C 237.9375 89.453125 237.75 89.082031 237.558594 88.714844 C 237.296875 88.214844 237.027344 87.699219 236.699219 87.246094 C 235.875 86.105469 236.796875 87.546875 236.640625 87.136719 C 236.519531 86.828125 236.277344 86.488281 236.101562 86.207031 C 235.71875 85.605469 235.324219 85.195312 234.800781 84.753906 C 234.046875 84.113281 233.183594 82.621094 232.179688 82.488281 C 231.652344 82.417969 232.410156 82.613281 232.546875 82.835938 C 232.492188 82.746094 232.226562 82.5625 232.171875 82.519531 C 231.914062 82.296875 231.65625 82.066406 231.378906 81.867188 C 230.753906 81.421875 229.816406 81.011719 229.023438 80.867188 C 228.421875 80.757812 230.074219 81.417969 229.332031 80.984375 C 229.101562 80.851562 228.863281 80.726562 228.625 80.613281 C 227.867188 80.25 227.203125 80.140625 226.398438 79.96875 C 225.839844 79.855469 225.300781 79.792969 224.734375 79.691406 C 225.960938 79.914062 225.164062 79.683594 224.40625 79.648438 C 224.082031 79.632812 223.75 79.660156 223.425781 79.660156 C 223.015625 79.660156 221.746094 79.527344 221.542969 79.777344 C 221.578125 79.730469 222.789062 79.570312 221.515625 79.742188 C 221.117188 79.800781 220.761719 79.894531 220.371094 79.984375 C 219.335938 80.214844 218.324219 80.433594 217.34375 80.84375 C 216.828125 81.058594 216.191406 81.332031 217.132812 81.019531 C 216.738281 81.152344 216.363281 81.324219 216.003906 81.527344 C 215.570312 81.777344 215.15625 82.078125 214.726562 82.335938 C 212.972656 83.390625 211.394531 84.769531 209.242188 84.925781 C 208.847656 84.953125 208.429688 84.90625 208.039062 84.898438 C 207.761719 84.890625 207.433594 84.839844 207.160156 84.882812 C 206.5 84.976562 208.015625 85.160156 207.605469 84.941406 C 207.105469 84.679688 206.4375 84.570312 205.902344 84.398438 C 205.609375 84.304688 205.320312 84.199219 205.023438 84.117188 C 204.179688 83.882812 205.390625 84.304688 205.386719 84.300781 C 204.929688 83.957031 204.269531 83.664062 203.746094 83.445312 C 203.03125 83.144531 204.089844 83.796875 204.042969 83.746094 C 203.816406 83.511719 203.535156 83.3125 203.285156 83.101562 C 202.488281 82.417969 201.875 81.707031 201.199219 80.898438 C 200.90625 80.542969 200.589844 79.96875 200.207031 79.710938 C 200.207031 79.710938 200.953125 80.703125 200.496094 80.078125 C 200.273438 79.777344 200.050781 79.480469 199.828125 79.179688 C 199.570312 78.832031 199.316406 78.488281 199.058594 78.144531 C 198.785156 77.777344 197.742188 76.398438 198.753906 77.738281 C 198.308594 77.152344 197.949219 76.78125 197.347656 76.320312 C 197.105469 76.132812 196.859375 75.949219 196.617188 75.761719 C 195.867188 75.1875 197.304688 76.34375 196.804688 75.898438 C 196.257812 75.40625 195.667969 74.957031 195.054688 74.574219 C 194.496094 74.226562 193.917969 73.945312 193.289062 73.734375 C 192.5625 73.488281 194.320312 74.246094 193.484375 73.808594 C 193.234375 73.675781 192.972656 73.554688 192.710938 73.433594 C 192.078125 73.144531 191.425781 72.957031 190.753906 72.78125 C 190.335938 72.671875 189.945312 72.582031 189.503906 72.535156 C 189.390625 72.523438 189.277344 72.523438 189.167969 72.519531 C 188.421875 72.480469 190.0625 72.789062 189.515625 72.570312 C 188.550781 72.191406 187.109375 72.320312 186.058594 72.335938 C 185.597656 72.347656 185.109375 72.433594 184.65625 72.539062 C 183.832031 72.734375 185.773438 72.464844 184.757812 72.523438 C 184.039062 72.5625 183.503906 72.742188 182.851562 72.925781 C 182.195312 73.109375 181.554688 73.332031 180.914062 73.636719 C 180.757812 73.710938 180.597656 73.78125 180.445312 73.859375 C 179.941406 74.136719 180.917969 73.507812 180.972656 73.648438 C 180.972656 73.648438 180.222656 73.933594 180.179688 73.949219 C 179.375 74.273438 178.695312 74.699219 178.023438 75.246094 C 177.855469 75.378906 177.695312 75.515625 177.535156 75.65625 C 177.414062 75.753906 177.28125 75.84375 177.167969 75.957031 C 176.871094 76.265625 178.152344 75.214844 177.539062 75.679688 C 176.738281 76.28125 175.996094 76.832031 175.371094 77.628906 C 175.273438 77.75 175.085938 77.996094 175.515625 77.445312 C 176.09375 76.695312 175.402344 77.582031 175.152344 77.914062 C 175.050781 78.046875 174.957031 78.191406 174.855469 78.328125 C 174.496094 78.8125 174.136719 79.292969 173.777344 79.773438 C 172.8125 81.070312 174.414062 79.035156 173.53125 80.078125 C 172.882812 80.84375 172.289062 81.703125 171.574219 82.40625 C 171.15625 82.820312 170.660156 83.167969 170.21875 83.558594 C 169.539062 84.164062 170.746094 83.296875 170.464844 83.355469 C 170.183594 83.414062 169.847656 83.675781 169.589844 83.8125 C 169.328125 83.945312 169.042969 84.0625 168.796875 84.226562 C 168.1875 84.621094 169.632812 83.964844 169.265625 84.035156 C 168.597656 84.164062 167.925781 84.464844 167.28125 84.671875 C 167.039062 84.746094 166.730469 84.796875 166.507812 84.914062 C 165.976562 85.195312 166.953125 84.746094 167.101562 84.871094 C 166.886719 84.6875 165.605469 84.90625 165.335938 84.90625 C 162.242188 84.886719 159.652344 82.476562 157.03125 81.0625 C 156.632812 80.84375 157.472656 81.242188 157.492188 81.238281 C 157.417969 81.246094 157.1875 81.050781 157.121094 81.015625 C 156.675781 80.777344 156.21875 80.679688 155.75 80.527344 C 155.34375 80.390625 154.945312 80.234375 154.527344 80.136719 C 154.0625 80.027344 153.578125 79.933594 153.109375 79.832031 C 152.753906 79.757812 150.96875 79.414062 152.5625 79.785156 C 152.117188 79.683594 151.664062 79.667969 151.214844 79.652344 C 150.765625 79.636719 150.296875 79.628906 149.851562 79.644531 C 149.441406 79.65625 149.003906 79.808594 148.605469 79.777344 C 148.207031 79.746094 149.597656 79.597656 149.269531 79.683594 C 148.945312 79.773438 148.539062 79.78125 148.203125 79.84375 C 147.042969 80.058594 145.980469 80.292969 144.933594 80.863281 C 143.988281 81.378906 144.914062 80.722656 145.167969 80.8125 C 145.042969 80.769531 144.554688 81.011719 144.417969 81.050781 C 143.488281 81.359375 142.722656 81.792969 141.972656 82.417969 C 141.867188 82.507812 141.757812 82.597656 141.65625 82.691406 C 141.148438 83.160156 142.039062 82.347656 142.0625 82.378906 C 142.050781 82.363281 141.480469 82.675781 141.390625 82.730469 C 140.722656 83.144531 140.398438 83.683594 139.867188 84.214844 C 138.96875 85.113281 138.132812 85.746094 137.527344 86.917969 C 137.136719 87.667969 137.675781 86.796875 137.671875 86.820312 C 137.636719 86.992188 137.105469 87.613281 136.921875 87.929688 C 136.582031 88.523438 136.203125 89.136719 135.992188 89.789062 C 135.886719 90.109375 135.542969 90.59375 135.984375 90.082031 C 136.5 89.472656 135.90625 90.140625 135.71875 90.800781 C 135.578125 91.292969 135.480469 91.804688 135.355469 92.296875 C 135.15625 93.058594 135.070312 93.824219 134.890625 94.585938 C 134.773438 95.070312 134.566406 95.542969 134.464844 96.023438 C 134.429688 96.1875 134.28125 96.320312 134.25 96.484375 C 134.230469 96.578125 134.675781 95.984375 134.453125 96.339844 C 133.894531 97.230469 133.019531 98.171875 132.28125 98.917969 C 131.960938 99.242188 131.570312 99.519531 131.226562 99.820312 C 130.445312 100.496094 131.507812 99.652344 131.496094 99.636719 C 131.496094 99.636719 131.007812 99.894531 130.960938 99.917969 C 130.386719 100.203125 129.820312 100.519531 129.253906 100.820312 C 128.992188 100.957031 128.71875 101.085938 128.464844 101.234375 C 127.835938 101.601562 129.515625 100.996094 128.816406 101.054688 C 128.386719 101.089844 127.898438 101.246094 127.472656 101.335938 C 126.535156 101.535156 127.667969 101.316406 127.691406 101.320312 C 127.328125 101.257812 126.863281 101.34375 126.492188 101.347656 C 126.332031 101.347656 126.160156 101.332031 126 101.347656 C 125.0625 101.433594 126.699219 101.535156 126.28125 101.433594 C 125.671875 101.289062 125.035156 101.199219 124.417969 101.089844 C 123.507812 100.933594 122.597656 100.769531 121.6875 100.621094 C 121.613281 100.609375 120.445312 100.5625 120.40625 100.5 C 120.421875 100.53125 121.585938 100.648438 120.902344 100.578125 C 120.707031 100.5625 120.523438 100.515625 120.316406 100.5 C 119.734375 100.453125 119.1875 100.542969 118.609375 100.605469 C 117.96875 100.679688 119.796875 100.484375 118.652344 100.539062 C 117.503906 100.59375 116.386719 100.832031 115.332031 101.132812 C 114.714844 101.3125 114.125 101.597656 113.535156 101.859375 C 112.484375 102.328125 114.246094 101.582031 113.582031 101.839844 C 113.179688 102 112.746094 102.148438 112.371094 102.359375 C 112.148438 102.484375 111.996094 102.59375 111.769531 102.753906 C 110.558594 103.613281 112.210938 102.519531 111.699219 102.804688 C 111.058594 103.164062 110.238281 103.695312 109.714844 104.203125 C 107.328125 106.519531 105.140625 109.222656 104.625 112.632812 C 104.539062 113.195312 104.398438 113.75 104.328125 114.320312 C 104.300781 114.539062 104.261719 114.714844 104.265625 114.921875 C 104.269531 115.691406 104.371094 114.492188 104.367188 114.476562 C 104.410156 114.734375 104.285156 115.066406 104.253906 115.332031 C 104.140625 116.148438 104.210938 116.777344 104.300781 117.566406 C 104.390625 118.351562 104.082031 116.121094 104.28125 117.671875 C 104.351562 118.195312 104.453125 118.714844 104.53125 119.238281 C 104.628906 119.886719 104.71875 120.507812 104.863281 121.144531 C 104.980469 121.660156 105.039062 122.125 105.058594 122.652344 C 105.070312 123.007812 105.011719 123.378906 105.046875 123.730469 C 105.121094 124.503906 105.140625 123.363281 105.066406 123.761719 C 104.960938 124.347656 104.75 124.933594 104.679688 125.527344 C 104.597656 126.261719 104.871094 125.183594 104.921875 125.117188 C 104.773438 125.316406 104.679688 125.585938 104.566406 125.808594 C 104.269531 126.382812 103.878906 126.96875 103.65625 127.574219 C 103.421875 128.21875 104.054688 127.152344 104.015625 127.191406 C 103.820312 127.390625 103.65625 127.628906 103.476562 127.84375 C 102.78125 128.683594 102.144531 129.386719 101.324219 130.101562 C 101.082031 130.308594 100.835938 130.511719 100.597656 130.726562 C 99.972656 131.296875 101.292969 130.363281 100.824219 130.554688 C 100.648438 130.625 100.410156 130.789062 100.253906 130.90625 C 99.644531 131.351562 101.253906 130.507812 100.300781 130.886719 C 99.265625 131.300781 98.300781 131.585938 97.203125 131.796875 C 96.609375 131.914062 96.007812 131.980469 95.421875 132.121094 C 94.785156 132.277344 94.199219 132.507812 93.597656 132.765625 C 92.667969 133.160156 93.828125 132.675781 93.671875 132.707031 C 93.105469 132.824219 92.285156 133.3125 91.742188 133.589844 C 91.335938 133.800781 91.136719 133.945312 90.710938 134.296875 C 90.648438 134.347656 90.585938 134.402344 90.523438 134.457031 C 89.984375 134.917969 90.476562 134.632812 90.476562 134.527344 C 90.476562 134.300781 90.992188 134.203125 90.484375 134.464844 C 90.375 134.523438 90.261719 134.59375 90.15625 134.664062 C 89.816406 134.886719 89.460938 135.101562 89.175781 135.390625 C 88.875 135.695312 88.632812 136.0625 88.324219 136.363281 C 88.085938 136.59375 85.695312 138.878906 86.097656 139.125 C 86.140625 139.148438 86.835938 138.1875 86.140625 139.042969 C 85.675781 139.621094 85.402344 140.066406 85.164062 140.75 C 85.105469 140.914062 85.042969 141.097656 85 141.269531 C 84.839844 141.949219 85.027344 140.71875 85.21875 140.828125 C 85.226562 140.828125 84.898438 141.449219 84.878906 141.492188 C 83.710938 143.757812 83.382812 146.335938 83.609375 148.863281 C 83.78125 150.761719 85.109375 152.386719 87.136719 152.386719 C 88.910156 152.386719 90.832031 150.769531 90.660156 148.863281 Z M 90.679688 148.851562 " fill-opacity="1" fill-rule="nonzero"/></g><path fill="#ffffff" d="M 254.320312 213.753906 C 245.355469 234.316406 227.699219 250.160156 206.050781 256.046875 C 184.199219 261.988281 160.101562 257.175781 142.332031 243.183594 C 132.40625 235.371094 124.785156 225.328125 119.738281 213.753906 C 118.722656 215.523438 117.710938 217.292969 116.695312 219.058594 L 130.683594 219.058594 C 141.878906 219.058594 153.078125 219.058594 164.277344 219.058594 C 177.824219 219.058594 191.371094 219.058594 204.921875 219.058594 L 240.058594 219.058594 C 245.734375 219.058594 251.453125 219.25 257.125 219.058594 C 257.207031 219.058594 257.285156 219.058594 257.363281 219.058594 C 261.902344 219.058594 261.90625 212.007812 257.363281 212.007812 L 134.003906 212.007812 C 128.324219 212.007812 122.609375 211.816406 116.933594 212.007812 C 116.855469 212.007812 116.773438 212.007812 116.695312 212.007812 C 113.785156 212.007812 112.621094 214.949219 113.652344 217.3125 C 123.273438 239.386719 142.863281 256.515625 166.132812 262.84375 C 189.402344 269.167969 216.359375 263.988281 236.035156 248.695312 C 246.605469 240.480469 255.054688 229.582031 260.40625 217.3125 C 261.164062 215.566406 260.921875 213.527344 259.140625 212.488281 C 257.648438 211.617188 255.082031 212 254.316406 213.753906 Z M 254.320312 213.753906 " fill-opacity="1" fill-rule="nonzero"/><path fill="#ffffff" d="M 119.738281 155 C 128.703125 134.441406 146.359375 118.59375 168.011719 112.710938 C 189.859375 106.769531 213.957031 111.582031 231.726562 125.570312 C 241.652344 133.386719 249.273438 143.429688 254.320312 155 C 255.335938 153.230469 256.351562 151.460938 257.363281 149.695312 L 134.003906 149.695312 C 128.324219 149.695312 122.609375 149.507812 116.933594 149.695312 C 116.855469 149.695312 116.773438 149.695312 116.695312 149.695312 C 112.15625 149.695312 112.152344 156.746094 116.695312 156.746094 L 240.058594 156.746094 C 245.734375 156.746094 251.453125 156.9375 257.125 156.746094 C 257.207031 156.746094 257.285156 156.746094 257.363281 156.746094 C 260.273438 156.746094 261.4375 153.808594 260.410156 151.445312 C 250.785156 129.367188 231.195312 112.242188 207.925781 105.914062 C 183.820312 99.359375 157.703125 104.765625 138.023438 120.058594 C 127.453125 128.277344 119.003906 139.171875 113.652344 151.445312 C 112.894531 153.1875 113.140625 155.226562 114.921875 156.265625 C 116.414062 157.140625 118.980469 156.757812 119.742188 155 Z M 119.738281 155 " fill-opacity="1" fill-rule="nonzero"/><path fill="#ffffff" d="M 304.957031 186.15625 C 309.433594 195.25 313.910156 204.339844 318.386719 213.433594 C 319.027344 214.726562 319.660156 216.019531 320.296875 217.3125 C 321.3125 215.546875 322.328125 213.777344 323.34375 212.011719 L 61.785156 212.011719 C 58.257812 212.011719 54.699219 211.863281 51.175781 212.011719 C 51.023438 212.015625 50.867188 212.011719 50.714844 212.011719 C 51.730469 213.78125 52.742188 215.546875 53.757812 217.3125 C 58.28125 208.128906 62.800781 198.941406 67.324219 189.757812 C 67.914062 188.5625 68.535156 187.378906 69.089844 186.171875 C 70.089844 184.007812 68.949219 182.300781 68.023438 180.417969 C 65.402344 175.089844 62.773438 169.753906 60.148438 164.421875 C 58.019531 160.097656 55.890625 155.773438 53.761719 151.449219 C 52.746094 153.214844 51.730469 154.984375 50.71875 156.75 L 312.277344 156.75 C 315.800781 156.75 319.359375 156.898438 322.882812 156.75 C 323.035156 156.746094 323.191406 156.75 323.34375 156.75 C 322.332031 154.980469 321.316406 153.214844 320.300781 151.449219 C 315.824219 160.539062 311.351562 169.632812 306.871094 178.722656 C 306.234375 180.015625 305.597656 181.3125 304.960938 182.605469 C 304.121094 184.3125 304.5 186.417969 306.226562 187.425781 C 307.78125 188.335938 310.207031 187.875 311.050781 186.160156 C 315.523438 177.066406 320 167.976562 324.480469 158.882812 C 325.117188 157.589844 325.75 156.296875 326.390625 155.003906 C 327.542969 152.65625 326.160156 149.699219 323.34375 149.699219 L 61.785156 149.699219 C 58.25 149.699219 54.707031 149.628906 51.175781 149.699219 C 51.023438 149.699219 50.867188 149.699219 50.714844 149.699219 C 47.898438 149.699219 46.515625 152.65625 47.671875 155.003906 C 52.144531 164.09375 56.621094 173.1875 61.101562 182.28125 C 61.738281 183.574219 62.371094 184.867188 63.011719 186.160156 L 63.011719 182.601562 C 58.535156 191.695312 54.058594 200.785156 49.582031 209.878906 C 48.941406 211.171875 48.308594 212.464844 47.671875 213.757812 C 46.515625 216.105469 47.898438 219.0625 50.714844 219.0625 L 312.273438 219.0625 C 315.808594 219.0625 319.347656 219.132812 322.878906 219.0625 C 323.03125 219.0625 323.1875 219.0625 323.34375 219.0625 C 326.160156 219.0625 327.542969 216.101562 326.386719 213.757812 C 321.910156 204.667969 317.433594 195.574219 312.957031 186.480469 C 312.320312 185.1875 311.683594 183.894531 311.046875 182.601562 C 310.207031 180.894531 307.78125 180.425781 306.222656 181.335938 C 304.484375 182.351562 304.117188 184.445312 304.957031 186.15625 Z M 304.957031 186.15625 " fill-opacity="1" fill-rule="nonzero"/><path fill="#ffffff" d="M 207.085938 174.503906 L 204.546875 190.046875 L 209.621094 190.046875 L 207.082031 174.503906 Z M 131.308594 174.503906 L 128.769531 190.046875 L 133.84375 190.046875 L 131.304688 174.503906 Z M 178.777344 170.480469 L 178.777344 181.726562 L 180.945312 181.726562 C 182.882812 181.726562 184.261719 181.285156 185.074219 180.402344 C 185.890625 179.519531 186.296875 178.070312 186.296875 176.058594 C 186.296875 174.046875 185.9375 172.691406 185.214844 171.808594 C 184.488281 170.925781 183.191406 170.480469 181.3125 170.480469 Z M 152.964844 170.480469 L 152.964844 181.726562 L 155.132812 181.726562 C 157.070312 181.726562 158.445312 181.285156 159.261719 180.402344 C 160.078125 179.519531 160.484375 178.070312 160.484375 176.058594 C 160.484375 174.046875 160.121094 172.691406 159.398438 171.808594 C 158.675781 170.925781 157.375 170.480469 155.5 170.480469 L 152.960938 170.480469 Z M 264.574219 165.863281 L 270.941406 165.863281 L 275.554688 180.539062 L 279.890625 165.863281 L 286.121094 165.863281 L 278.648438 188.769531 L 278.648438 202.894531 L 272.144531 202.894531 L 272.144531 188.769531 L 264.578125 165.863281 Z M 244.894531 165.863281 L 263.484375 165.863281 L 263.484375 170.847656 L 257.675781 170.847656 L 257.675781 202.898438 L 250.847656 202.898438 L 250.847656 170.847656 L 244.898438 170.847656 L 244.898438 165.863281 Z M 221.960938 165.863281 L 226.714844 165.863281 L 235.800781 186.984375 L 235.800781 165.863281 L 241.429688 165.863281 L 241.429688 202.894531 L 236.910156 202.894531 L 227.773438 180.769531 L 227.773438 202.894531 L 221.960938 202.894531 Z M 203.394531 165.863281 L 210.683594 165.863281 L 218.15625 202.894531 L 211.835938 202.894531 L 210.359375 194.34375 L 203.855469 194.34375 L 202.332031 202.894531 L 195.917969 202.894531 L 203.390625 165.863281 Z M 172 165.863281 L 180.996094 165.863281 C 184.929688 165.863281 187.867188 166.601562 189.804688 168.082031 C 191.742188 169.558594 192.710938 172.097656 192.710938 175.691406 C 192.710938 178.039062 192.363281 179.949219 191.671875 181.429688 C 190.980469 182.90625 189.785156 183.984375 188.097656 184.652344 L 193.3125 202.894531 L 186.484375 202.894531 L 182.011719 185.933594 L 178.78125 185.933594 L 178.78125 202.894531 L 172 202.894531 Z M 146.183594 165.863281 L 155.179688 165.863281 C 159.117188 165.863281 162.054688 166.601562 163.992188 168.082031 C 165.929688 169.558594 166.898438 172.097656 166.898438 175.691406 C 166.898438 178.039062 166.550781 179.949219 165.859375 181.429688 C 165.164062 182.90625 163.972656 183.984375 162.285156 184.652344 L 167.5 202.894531 L 160.671875 202.894531 L 156.195312 185.933594 L 152.96875 185.933594 L 152.96875 202.894531 L 146.1875 202.894531 L 146.1875 165.863281 Z M 127.617188 165.863281 L 134.90625 165.863281 L 142.378906 202.894531 L 136.058594 202.894531 L 134.582031 194.34375 L 128.078125 194.34375 L 126.554688 202.894531 L 120.140625 202.894531 L 127.613281 165.863281 Z M 87.722656 165.863281 L 93.398438 165.863281 L 96.488281 189.867188 L 100.363281 165.957031 L 104.976562 165.957031 L 108.988281 189.867188 L 112.03125 165.863281 L 117.660156 165.863281 L 112.445312 202.894531 L 106.910156 202.894531 L 102.757812 178.070312 L 98.65625 202.894531 L 92.980469 202.894531 L 87.71875 165.863281 Z M 87.722656 165.863281 " fill-opacity="1" fill-rule="evenodd"/><path fill="#ffffff" d="M 171.003906 229.945312 L 171.042969 229.953125 L 171.082031 229.945312 L 171.152344 229.964844 L 171.355469 229.988281 L 171.5 230.046875 L 171.558594 230.0625 L 171.597656 230.089844 L 171.683594 230.128906 L 171.871094 230.289062 L 171.910156 230.316406 L 171.917969 230.328125 L 171.957031 230.359375 C 172.042969 230.453125 172.109375 230.558594 172.164062 230.675781 L 174.171875 235.074219 C 174.261719 235.269531 174.390625 235.429688 174.550781 235.554688 L 174.730469 235.65625 L 174.808594 235.703125 C 174.90625 235.742188 175.003906 235.769531 175.105469 235.785156 L 179.730469 236.484375 C 180.402344 236.585938 180.871094 237.226562 180.773438 237.914062 C 180.734375 238.175781 180.613281 238.421875 180.429688 238.613281 L 179.625 239.445312 C 179.625 239.445312 176.992188 242.171875 176.992188 242.171875 C 176.714844 242.460938 176.589844 242.863281 176.65625 243.261719 L 177.46875 248.230469 C 177.496094 248.375 177.492188 248.515625 177.46875 248.65625 L 177.453125 248.699219 L 177.453125 248.730469 C 177.453125 248.730469 177.40625 248.839844 177.40625 248.839844 L 177.332031 249.054688 L 177.285156 249.109375 L 177.257812 249.171875 L 177.128906 249.296875 L 177.011719 249.433594 L 176.957031 249.464844 L 176.914062 249.503906 L 176.769531 249.5625 L 176.589844 249.65625 L 176.515625 249.660156 L 176.457031 249.683594 L 176.25 249.683594 C 176.25 249.683594 176.117188 249.695312 176.117188 249.695312 L 176.082031 249.683594 L 176.042969 249.683594 C 175.90625 249.65625 175.773438 249.613281 175.652344 249.542969 L 171.640625 247.261719 C 171.542969 247.207031 171.445312 247.167969 171.34375 247.140625 L 171.035156 247.101562 L 170.726562 247.140625 C 170.625 247.167969 170.527344 247.207031 170.433594 247.261719 L 166.417969 249.542969 C 166.296875 249.613281 166.164062 249.65625 166.03125 249.683594 L 165.988281 249.683594 L 165.953125 249.695312 L 165.820312 249.683594 L 165.617188 249.683594 C 165.617188 249.683594 165.554688 249.660156 165.554688 249.660156 L 165.480469 249.65625 L 165.304688 249.5625 L 165.15625 249.503906 L 165.117188 249.464844 L 165.058594 249.433594 L 164.941406 249.296875 L 164.8125 249.171875 L 164.785156 249.109375 L 164.738281 249.054688 L 164.664062 248.839844 L 164.617188 248.730469 L 164.617188 248.699219 C 164.617188 248.699219 164.601562 248.65625 164.601562 248.65625 C 164.578125 248.515625 164.578125 248.375 164.601562 248.230469 L 165.417969 243.261719 C 165.480469 242.863281 165.355469 242.457031 165.078125 242.171875 L 163 240.023438 C 163 240.023438 161.644531 238.613281 161.644531 238.613281 C 161.460938 238.421875 161.339844 238.175781 161.304688 237.914062 C 161.203125 237.226562 161.671875 236.589844 162.34375 236.484375 L 166.972656 235.785156 C 167.074219 235.769531 167.171875 235.742188 167.265625 235.703125 L 167.34375 235.65625 L 167.523438 235.554688 C 167.683594 235.429688 167.816406 235.269531 167.902344 235.074219 L 169.910156 230.675781 C 169.964844 230.558594 170.035156 230.453125 170.117188 230.359375 L 170.15625 230.328125 L 170.164062 230.316406 L 170.203125 230.289062 L 170.394531 230.128906 L 170.480469 230.089844 L 170.519531 230.0625 L 170.578125 230.046875 L 170.722656 229.988281 L 170.925781 229.964844 L 170.996094 229.945312 Z M 171.003906 229.945312 " fill-opacity="1" fill-rule="evenodd"/><path fill="#ffffff" d="M 202.972656 229.945312 L 203.015625 229.953125 L 203.054688 229.945312 L 203.125 229.964844 L 203.328125 229.988281 L 203.472656 230.046875 L 203.53125 230.0625 L 203.570312 230.089844 L 203.65625 230.128906 L 203.84375 230.289062 L 203.882812 230.316406 L 203.890625 230.328125 L 203.929688 230.359375 C 204.015625 230.453125 204.082031 230.558594 204.136719 230.675781 L 206.144531 235.074219 C 206.234375 235.269531 206.363281 235.429688 206.523438 235.554688 L 206.703125 235.65625 L 206.78125 235.703125 C 206.875 235.742188 206.976562 235.769531 207.074219 235.785156 L 211.703125 236.484375 C 212.375 236.585938 212.84375 237.226562 212.746094 237.914062 C 212.707031 238.175781 212.585938 238.421875 212.402344 238.613281 L 211.597656 239.445312 C 211.597656 239.445312 208.964844 242.171875 208.964844 242.171875 C 208.6875 242.460938 208.5625 242.863281 208.628906 243.261719 L 209.441406 248.230469 C 209.46875 248.375 209.464844 248.515625 209.441406 248.65625 L 209.425781 248.699219 L 209.425781 248.730469 C 209.425781 248.730469 209.378906 248.839844 209.378906 248.839844 L 209.304688 249.054688 L 209.257812 249.109375 L 209.230469 249.171875 L 209.101562 249.296875 L 208.984375 249.433594 L 208.925781 249.464844 L 208.886719 249.503906 L 208.742188 249.5625 L 208.5625 249.65625 L 208.488281 249.660156 L 208.429688 249.683594 L 208.222656 249.683594 C 208.222656 249.683594 208.089844 249.695312 208.089844 249.695312 L 208.054688 249.683594 L 208.015625 249.683594 C 207.878906 249.65625 207.746094 249.613281 207.625 249.542969 L 203.613281 247.261719 C 203.515625 247.207031 203.417969 247.167969 203.316406 247.140625 L 203.007812 247.101562 L 202.699219 247.140625 C 202.597656 247.167969 202.5 247.207031 202.40625 247.261719 L 198.390625 249.542969 C 198.269531 249.613281 198.136719 249.65625 198.003906 249.683594 L 197.960938 249.683594 L 197.925781 249.695312 L 197.792969 249.683594 L 197.589844 249.683594 C 197.589844 249.683594 197.527344 249.660156 197.527344 249.660156 L 197.453125 249.65625 L 197.277344 249.5625 L 197.128906 249.503906 L 197.089844 249.464844 L 197.03125 249.433594 L 196.914062 249.296875 L 196.785156 249.171875 L 196.757812 249.109375 L 196.710938 249.054688 L 196.636719 248.839844 L 196.589844 248.730469 L 196.589844 248.699219 C 196.589844 248.699219 196.574219 248.65625 196.574219 248.65625 C 196.550781 248.515625 196.550781 248.375 196.574219 248.230469 L 197.390625 243.261719 C 197.453125 242.863281 197.328125 242.457031 197.050781 242.171875 L 194.972656 240.023438 C 194.972656 240.023438 193.617188 238.613281 193.617188 238.613281 C 193.433594 238.421875 193.3125 238.175781 193.277344 237.914062 C 193.175781 237.226562 193.644531 236.589844 194.316406 236.484375 L 198.945312 235.785156 C 199.046875 235.769531 199.144531 235.742188 199.238281 235.703125 L 199.316406 235.65625 L 199.496094 235.554688 C 199.65625 235.429688 199.789062 235.269531 199.875 235.074219 L 201.882812 230.675781 C 201.9375 230.558594 202.007812 230.453125 202.089844 230.359375 L 202.128906 230.328125 L 202.136719 230.316406 L 202.175781 230.289062 L 202.367188 230.128906 L 202.453125 230.089844 L 202.492188 230.0625 L 202.550781 230.046875 L 202.695312 229.988281 L 202.898438 229.964844 L 202.96875 229.945312 Z M 202.972656 229.945312 " fill-opacity="1" fill-rule="evenodd"/><path fill="#ffffff" d="M 171.003906 119.078125 L 171.042969 119.082031 L 171.082031 119.078125 L 171.152344 119.09375 L 171.355469 119.117188 L 171.5 119.175781 L 171.558594 119.191406 L 171.597656 119.21875 L 171.683594 119.257812 L 171.871094 119.417969 L 171.910156 119.445312 L 171.917969 119.457031 L 171.957031 119.488281 C 172.042969 119.582031 172.109375 119.6875 172.164062 119.804688 L 174.171875 124.203125 C 174.261719 124.398438 174.390625 124.558594 174.550781 124.683594 L 174.730469 124.789062 L 174.808594 124.832031 C 174.90625 124.875 175.003906 124.902344 175.105469 124.914062 L 179.730469 125.613281 C 180.402344 125.714844 180.871094 126.355469 180.773438 127.042969 C 180.734375 127.308594 180.613281 127.550781 180.429688 127.742188 L 179.625 128.574219 C 179.625 128.574219 176.992188 131.300781 176.992188 131.300781 C 176.714844 131.589844 176.589844 131.992188 176.65625 132.390625 L 177.46875 137.363281 C 177.496094 137.503906 177.492188 137.648438 177.46875 137.785156 L 177.453125 137.828125 L 177.453125 137.863281 C 177.453125 137.863281 177.40625 137.96875 177.40625 137.96875 L 177.332031 138.183594 L 177.285156 138.238281 L 177.257812 138.300781 L 177.128906 138.425781 L 177.011719 138.5625 L 176.957031 138.59375 L 176.914062 138.632812 L 176.769531 138.691406 L 176.589844 138.785156 L 176.515625 138.789062 L 176.457031 138.816406 L 176.25 138.816406 C 176.25 138.816406 176.117188 138.824219 176.117188 138.824219 L 176.082031 138.8125 L 176.042969 138.8125 C 175.90625 138.785156 175.773438 138.742188 175.652344 138.671875 L 171.640625 136.390625 C 171.542969 136.335938 171.445312 136.296875 171.34375 136.269531 L 171.035156 136.230469 L 170.726562 136.269531 C 170.625 136.296875 170.527344 136.335938 170.433594 136.390625 L 166.417969 138.671875 C 166.296875 138.742188 166.164062 138.785156 166.03125 138.8125 L 165.988281 138.8125 L 165.953125 138.824219 L 165.820312 138.8125 L 165.617188 138.8125 C 165.617188 138.8125 165.554688 138.789062 165.554688 138.789062 L 165.480469 138.785156 L 165.304688 138.691406 L 165.15625 138.632812 L 165.117188 138.59375 L 165.058594 138.5625 L 164.941406 138.425781 L 164.8125 138.300781 L 164.785156 138.238281 L 164.738281 138.183594 L 164.664062 137.96875 L 164.617188 137.863281 L 164.617188 137.828125 C 164.617188 137.828125 164.601562 137.785156 164.601562 137.785156 C 164.578125 137.648438 164.578125 137.503906 164.601562 137.363281 L 165.417969 132.390625 C 165.480469 131.992188 165.355469 131.585938 165.078125 131.300781 L 163 129.152344 C 163 129.152344 161.644531 127.742188 161.644531 127.742188 C 161.460938 127.550781 161.339844 127.308594 161.304688 127.042969 C 161.203125 126.355469 161.671875 125.71875 162.34375 125.613281 L 166.972656 124.914062 C 167.074219 124.902344 167.171875 124.875 167.265625 124.832031 L 167.34375 124.789062 L 167.523438 124.683594 C 167.683594 124.558594 167.816406 124.398438 167.902344 124.203125 L 169.910156 119.804688 C 169.964844 119.6875 170.035156 119.582031 170.117188 119.488281 L 170.15625 119.457031 L 170.164062 119.445312 L 170.203125 119.417969 L 170.394531 119.257812 L 170.480469 119.21875 L 170.519531 119.191406 L 170.578125 119.175781 L 170.722656 119.117188 L 170.925781 119.09375 L 170.996094 119.078125 Z M 171.003906 119.078125 " fill-opacity="1" fill-rule="evenodd"/><path fill="#ffffff" d="M 202.972656 119.078125 L 203.015625 119.082031 L 203.054688 119.078125 L 203.125 119.09375 L 203.328125 119.117188 L 203.472656 119.175781 L 203.53125 119.191406 L 203.570312 119.21875 L 203.65625 119.257812 L 203.84375 119.417969 L 203.882812 119.445312 L 203.890625 119.457031 L 203.929688 119.488281 C 204.015625 119.582031 204.082031 119.6875 204.136719 119.804688 L 206.144531 124.203125 C 206.234375 124.398438 206.363281 124.558594 206.523438 124.683594 L 206.703125 124.789062 L 206.78125 124.832031 C 206.875 124.875 206.976562 124.902344 207.074219 124.914062 L 211.703125 125.613281 C 212.375 125.714844 212.84375 126.355469 212.746094 127.042969 C 212.707031 127.308594 212.585938 127.550781 212.402344 127.742188 L 211.597656 128.574219 C 211.597656 128.574219 208.964844 131.300781 208.964844 131.300781 C 208.6875 131.589844 208.5625 131.992188 208.628906 132.390625 L 209.441406 137.363281 C 209.46875 137.503906 209.464844 137.648438 209.441406 137.785156 L 209.425781 137.828125 L 209.425781 137.863281 C 209.425781 137.863281 209.378906 137.96875 209.378906 137.96875 L 209.304688 138.183594 L 209.257812 138.238281 L 209.230469 138.300781 L 209.101562 138.425781 L 208.984375 138.5625 L 208.925781 138.59375 L 208.886719 138.632812 L 208.742188 138.691406 L 208.5625 138.785156 L 208.488281 138.789062 L 208.429688 138.816406 L 208.222656 138.816406 C 208.222656 138.816406 208.089844 138.824219 208.089844 138.824219 L 208.054688 138.8125 L 208.015625 138.8125 C 207.878906 138.785156 207.746094 138.742188 207.625 138.671875 L 203.613281 136.390625 C 203.515625 136.335938 203.417969 136.296875 203.316406 136.269531 L 203.007812 136.230469 L 202.699219 136.269531 C 202.597656 136.296875 202.5 136.335938 202.40625 136.390625 L 198.390625 138.671875 C 198.269531 138.742188 198.136719 138.785156 198.003906 138.8125 L 197.960938 138.8125 L 197.925781 138.824219 L 197.792969 138.8125 L 197.589844 138.8125 C 197.589844 138.8125 197.527344 138.789062 197.527344 138.789062 L 197.453125 138.785156 L 197.277344 138.691406 L 197.128906 138.632812 L 197.089844 138.59375 L 197.03125 138.5625 L 196.914062 138.425781 L 196.785156 138.300781 L 196.757812 138.238281 L 196.710938 138.183594 L 196.636719 137.96875 L 196.589844 137.863281 L 196.589844 137.828125 C 196.589844 137.828125 196.574219 137.785156 196.574219 137.785156 C 196.550781 137.648438 196.550781 137.503906 196.574219 137.363281 L 197.390625 132.390625 C 197.453125 131.992188 197.328125 131.585938 197.050781 131.300781 L 194.972656 129.152344 C 194.972656 129.152344 193.617188 127.742188 193.617188 127.742188 C 193.433594 127.550781 193.3125 127.308594 193.277344 127.042969 C 193.175781 126.355469 193.644531 125.71875 194.316406 125.613281 L 198.945312 124.914062 C 199.046875 124.902344 199.144531 124.875 199.238281 124.832031 L 199.316406 124.789062 L 199.496094 124.683594 C 199.65625 124.558594 199.789062 124.398438 199.875 124.203125 L 201.882812 119.804688 C 201.9375 119.6875 202.007812 119.582031 202.089844 119.488281 L 202.128906 119.457031 L 202.136719 119.445312 L 202.175781 119.417969 L 202.367188 119.257812 L 202.453125 119.21875 L 202.492188 119.191406 L 202.550781 119.175781 L 202.695312 119.117188 L 202.898438 119.09375 L 202.96875 119.078125 Z M 202.972656 119.078125 " fill-opacity="1" fill-rule="evenodd"/></svg>