<svg xmlns="http://www.w3.org/2000/svg" xmlns:xlink="http://www.w3.org/1999/xlink" width="500" zoomAndPan="magnify" viewBox="0 0 375 374.999991" height="500" preserveAspectRatio="xMidYMid meet" version="1.0"><defs><clipPath id="06b37cbf9e"><path d="M 0 0 L 373.800781 0 L 373.800781 375 L 0 375 Z M 0 0 " clip-rule="nonzero"/></clipPath><clipPath id="e0d3499404"><path d="M 186.300781 0 C 82.75 0 -1.199219 83.945312 -1.199219 187.5 C -1.199219 291.054688 82.75 375 186.300781 375 C 289.855469 375 373.800781 291.054688 373.800781 187.5 C 373.800781 83.945312 289.855469 0 186.300781 0 Z M 186.300781 0 " clip-rule="nonzero"/></clipPath><clipPath id="ca0e3d5663"><path d="M 19.679688 20.875 L 352.925781 20.875 L 352.925781 354.125 L 19.679688 354.125 Z M 19.679688 20.875 " clip-rule="nonzero"/></clipPath><clipPath id="d4b03e785a"><path d="M 186.300781 20.875 C 94.277344 20.875 19.679688 95.476562 19.679688 187.5 C 19.679688 279.523438 94.277344 354.125 186.300781 354.125 C 278.324219 354.125 352.925781 279.523438 352.925781 187.5 C 352.925781 95.476562 278.324219 20.875 186.300781 20.875 Z M 186.300781 20.875 " clip-rule="nonzero"/></clipPath><clipPath id="a377851027"><path d="M 19.679688 20.875 L 352.679688 20.875 L 352.679688 353.875 L 19.679688 353.875 Z M 19.679688 20.875 " clip-rule="nonzero"/></clipPath><clipPath id="23823e357a"><path d="M 186.300781 20.875 C 94.277344 20.875 19.679688 95.476562 19.679688 187.5 C 19.679688 279.523438 94.277344 354.121094 186.300781 354.121094 C 278.324219 354.121094 352.925781 279.523438 352.925781 187.5 C 352.925781 95.476562 278.324219 20.875 186.300781 20.875 Z M 186.300781 20.875 " clip-rule="nonzero"/></clipPath><clipPath id="4bcbea44c3"><path d="M 98 119.789062 L 237 119.789062 L 237 252 L 98 252 Z M 98 119.789062 " clip-rule="nonzero"/></clipPath><clipPath id="cf3ee5a40b"><path d="M 242 139 L 320.722656 139 L 320.722656 252 L 242 252 Z M 242 139 " clip-rule="nonzero"/></clipPath><clipPath id="a9bc99267c"><path d="M 85 119.789062 L 94 119.789062 L 94 128 L 85 128 Z M 85 119.789062 " clip-rule="nonzero"/></clipPath><clipPath id="d9679bbbd3"><path d="M 69 119.789062 L 78 119.789062 L 78 128 L 69 128 Z M 69 119.789062 " clip-rule="nonzero"/></clipPath><clipPath id="f9e1d46fed"><path d="M 52.222656 163 L 61 163 L 61 172 L 52.222656 172 Z M 52.222656 163 " clip-rule="nonzero"/></clipPath></defs><rect x="-37.5" width="450" fill="#ffffff" y="-37.499999" height="449.999989" fill-opacity="1"/><rect x="-37.5" width="450" fill="#ffffff" y="-37.499999" height="449.999989" fill-opacity="1"/><g clip-path="url(#06b37cbf9e)"><g clip-path="url(#e0d3499404)"><path fill="#ff914d" d="M -1.199219 0 L 373.800781 0 L 373.800781 375 L -1.199219 375 Z M -1.199219 0 " fill-opacity="1" fill-rule="nonzero"/><path stroke-linecap="butt" transform="matrix(0.75, 0, 0, 0.75, -1.198078, 0.000000000000106581)" fill="none" stroke-linejoin="miter" d="M 249.99848 -0.000000000000142109 C 111.930771 -0.000000000000142109 -0.00152044 111.927084 -0.00152044 250 C -0.00152044 388.072917 111.930771 500.000001 249.99848 500.000001 C 388.071397 500.000001 499.99848 388.072917 499.99848 250 C 499.99848 111.927084 388.071397 -0.000000000000142109 249.99848 -0.000000000000142109 Z M 249.99848 -0.000000000000142109 " stroke="#000000" stroke-width="8" stroke-opacity="1" stroke-miterlimit="4"/></g></g><g clip-path="url(#ca0e3d5663)"><g clip-path="url(#d4b03e785a)"><path fill="#ff914d" d="M 19.679688 20.875 L 352.925781 20.875 L 352.925781 354.125 L 19.679688 354.125 Z M 19.679688 20.875 " fill-opacity="1" fill-rule="nonzero"/></g></g><g clip-path="url(#a377851027)"><g clip-path="url(#23823e357a)"><path stroke-linecap="butt" transform="matrix(0.75, 0, 0, 0.75, 19.678518, 20.876595)" fill="none" stroke-linejoin="miter" d="M 222.163032 -0.00212628 C 99.465107 -0.00212628 0.0015589 99.46663 0.0015589 222.164555 C 0.0015589 344.86248 99.465107 444.326028 222.163032 444.326028 C 344.860957 444.326028 444.329713 344.86248 444.329713 222.164555 C 444.329713 99.46663 344.860957 -0.00212628 222.163032 -0.00212628 Z M 222.163032 -0.00212628 " stroke="#ffffff" stroke-width="8" stroke-opacity="1" stroke-miterlimit="4"/></g></g><g clip-path="url(#4bcbea44c3)"><path fill="#ffffff" d="M 161.988281 119.820312 C 181.738281 119.820312 201.492188 119.820312 221.242188 119.820312 C 225.285156 119.820312 228.957031 120.726562 232.347656 123.089844 C 235.511719 125.300781 236.929688 128.046875 236.898438 131.941406 C 236.789062 147.300781 236.859375 162.664062 236.863281 178.023438 C 236.863281 194.703125 236.863281 211.378906 236.863281 228.058594 C 236.863281 229.078125 236.84375 230.105469 236.863281 231.128906 C 236.882812 232.152344 236.441406 232.769531 235.351562 232.769531 C 234.328125 232.769531 233.300781 232.78125 232.277344 232.78125 L 189.269531 232.78125 C 184.171875 232.78125 185.140625 232.585938 183.761719 236.554688 C 181.222656 243.859375 176.234375 248.515625 168.800781 250.628906 C 160.886719 252.878906 150.832031 249.246094 146.503906 242.292969 C 145.058594 239.9375 143.917969 237.445312 143.089844 234.808594 C 142.574219 233.195312 141.878906 232.726562 140.367188 232.753906 C 136.710938 232.8125 133.046875 232.664062 129.398438 232.796875 C 123.164062 233.023438 117.304688 227.558594 117.425781 221.003906 C 117.695312 206.234375 117.507812 191.457031 117.511719 176.679688 C 117.511719 176.09375 117.511719 175.507812 117.511719 174.925781 C 117.511719 173.839844 118.015625 173.3125 119.113281 173.375 C 119.257812 173.375 119.414062 173.375 119.550781 173.375 C 125.691406 173.375 124.570312 172.960938 124.589844 178.085938 C 124.648438 191.253906 124.609375 204.417969 124.613281 217.585938 C 124.613281 218.609375 124.542969 219.640625 124.636719 220.65625 C 124.9375 223.867188 126.148438 225.0625 129.34375 225.117188 C 133 225.1875 136.660156 225.058594 140.316406 225.160156 C 142.128906 225.210938 142.597656 224.441406 143.144531 222.753906 C 146.328125 212.867188 153.1875 207.152344 163.207031 206.730469 C 172.234375 206.351562 180.78125 212.089844 184.066406 221.773438 C 185.179688 225.066406 185.113281 225.125 188.453125 225.128906 C 201.03125 225.144531 213.613281 225.144531 226.195312 225.128906 C 226.925781 225.128906 227.730469 225.300781 228.367188 225.050781 C 229.019531 224.78125 229.464844 224.3125 229.699219 223.648438 C 229.925781 222.675781 229.792969 221.613281 229.792969 220.59375 C 229.792969 192.066406 229.792969 163.539062 229.792969 135.011719 C 229.792969 129.414062 227.871094 127.5 222.078125 127.488281 C 206.132812 127.453125 190.1875 127.453125 174.238281 127.488281 L 130.351562 127.488281 C 129.328125 127.488281 128.300781 127.445312 127.28125 127.511719 C 125.195312 127.648438 124.722656 128.039062 124.652344 130.144531 C 124.550781 133.214844 124.578125 136.289062 124.625 139.359375 C 124.648438 140.8125 124.136719 141.476562 122.601562 141.457031 C 116.3125 141.40625 117.644531 141.898438 117.515625 136.785156 C 117.453125 134.445312 117.429688 132.097656 117.515625 129.761719 C 117.585938 128.03125 116.851562 127.449219 115.191406 127.46875 C 110.511719 127.527344 105.820312 127.515625 101.148438 127.484375 C 98.28125 127.464844 98.28125 127.425781 98.214844 124.601562 C 98.214844 124.011719 98.195312 123.425781 98.214844 122.84375 C 98.289062 119.855469 98.289062 119.820312 101.464844 119.820312 C 121.652344 119.820312 141.84375 119.820312 162.03125 119.820312 Z M 149.835938 229.089844 C 149.835938 229.671875 149.792969 230.257812 149.835938 230.839844 C 150.515625 238.84375 159.332031 247.222656 169.824219 242.261719 C 175.566406 239.542969 179.695312 231.753906 176.453125 223.152344 C 173.167969 214.445312 162.652344 211.730469 155.894531 216.734375 C 151.792969 219.808594 149.621094 223.867188 149.835938 229.089844 Z M 149.835938 229.089844 " fill-opacity="1" fill-rule="nonzero"/></g><g clip-path="url(#cf3ee5a40b)"><path fill="#ffffff" d="M 267.246094 139.871094 C 271.339844 139.871094 275.441406 140.011719 279.527344 139.832031 C 284.71875 139.605469 288.949219 141.648438 292.484375 145.128906 C 294.839844 147.515625 297 150.074219 298.957031 152.800781 C 303.191406 158.542969 307.402344 164.335938 311.394531 170.257812 C 314.789062 175.292969 316.835938 180.851562 316.734375 187.070312 C 316.652344 192.1875 316.710938 197.304688 316.699219 202.421875 C 316.699219 203.632812 316.679688 204.804688 318.371094 204.917969 C 319.65625 205 320.042969 205.871094 320.042969 207.035156 C 320.042969 212.003906 320.347656 217.011719 319.957031 221.941406 C 319.460938 228.328125 314.300781 232.683594 307.8125 232.769531 C 305.476562 232.804688 303.132812 232.824219 300.796875 232.769531 C 299.230469 232.726562 298.570312 233.257812 298.175781 234.90625 C 296.738281 240.84375 293.359375 245.488281 288.007812 248.511719 C 276.066406 255.210938 261.746094 249.351562 257.199219 236.179688 C 256.058594 232.867188 256.148438 232.820312 252.851562 232.796875 C 249.925781 232.773438 247 232.730469 244.082031 232.796875 C 242.527344 232.835938 241.988281 232.148438 242.09375 230.699219 C 242.136719 230.121094 242.09375 229.53125 242.09375 228.945312 C 242.09375 203.214844 242.167969 177.480469 242.035156 151.75 C 242.011719 146.746094 244.039062 143.34375 248.273438 141.140625 C 249.6875 140.40625 251.1875 140.003906 252.78125 139.929688 C 257.59375 139.773438 262.421875 139.871094 267.246094 139.871094 Z M 290.390625 154.417969 C 287.265625 149.386719 284.808594 147.574219 280.761719 147.542969 C 271.84375 147.46875 262.925781 147.480469 254.007812 147.523438 C 250.707031 147.542969 249.535156 148.6875 249.21875 151.894531 C 249.132812 152.765625 249.1875 153.648438 249.1875 154.523438 C 249.1875 176.601562 249.1875 198.679688 249.1875 220.757812 C 249.1875 221.636719 249.21875 222.511719 249.1875 223.390625 C 249.167969 224.453125 249.671875 225.023438 250.726562 225.085938 C 251.453125 225.125 252.1875 225.125 252.917969 225.125 C 256.113281 225.125 256.109375 225.125 257.148438 222.101562 C 258.359375 218.632812 259.871094 215.34375 262.679688 212.816406 C 268.632812 207.492188 275.324219 205.246094 283.242188 207.492188 C 291.3125 209.792969 295.957031 215.355469 298.1875 223.144531 C 298.589844 224.542969 299.125 225.125 300.507812 225.109375 C 303.136719 225.082031 305.773438 225.183594 308.402344 225.078125 C 310.847656 224.984375 312.222656 223.707031 312.367188 221.339844 C 312.511719 218.972656 312.433594 216.660156 312.367188 214.324219 C 312.367188 213.792969 312.050781 212.835938 311.804688 212.8125 C 308.746094 212.507812 309.691406 210.191406 309.628906 208.496094 C 309.53125 205.867188 309.605469 203.230469 309.601562 200.601562 C 309.601562 198.40625 309.601562 196.214844 309.582031 194.019531 C 309.5625 192.425781 308.761719 191.601562 307.121094 191.664062 C 306.09375 191.695312 305.074219 191.664062 304.046875 191.664062 C 294.109375 191.664062 284.164062 191.703125 274.222656 191.644531 C 268.476562 191.613281 263.496094 186.984375 263.296875 181.3125 C 263.101562 175.90625 263.117188 170.488281 263.296875 165.082031 C 263.472656 159.574219 268.324219 154.894531 273.792969 154.777344 C 278.175781 154.683594 282.558594 154.777344 286.949219 154.746094 C 288.042969 154.746094 289.136719 154.546875 290.390625 154.417969 Z M 290.996094 184.550781 C 296.109375 184.550781 301.222656 184.582031 306.332031 184.535156 C 308.941406 184.507812 309.355469 183.824219 308.449219 181.304688 C 308.207031 180.617188 307.867188 179.96875 307.585938 179.296875 C 305.167969 173.425781 300.753906 168.828125 297.40625 163.546875 C 296.53125 162.15625 295.097656 161.882812 293.585938 161.886719 C 287.335938 161.917969 281.082031 161.886719 274.839844 162.015625 C 272.191406 162.074219 270.957031 163.4375 270.910156 166.214844 C 270.816406 170.742188 270.816406 175.273438 270.910156 179.800781 C 270.976562 183.375 272.136719 184.503906 275.671875 184.542969 C 280.777344 184.59375 285.882812 184.550781 291.003906 184.550781 Z M 291.382812 228.851562 C 291.382812 228.414062 291.382812 227.980469 291.382812 227.539062 C 291.234375 222.003906 288.074219 218.074219 283.632812 215.65625 C 279.191406 213.238281 274.441406 213.738281 269.964844 216.5625 C 262.734375 221.117188 262.492188 231.9375 265.949219 237.175781 C 268.152344 240.5 270.945312 242.917969 274.945312 243.445312 C 284.320312 244.710938 291.457031 238.332031 291.390625 228.851562 Z M 291.382812 228.851562 " fill-opacity="1" fill-rule="nonzero"/></g><path fill="#ffffff" d="M 136.429688 152.125 L 102.703125 152.125 C 101.683594 152.125 100.628906 152.253906 99.652344 152.046875 C 99.109375 151.9375 98.597656 151.316406 98.25 150.800781 C 98.046875 150.5 98.183594 149.949219 98.183594 149.515625 C 98.203125 144.421875 97.835938 145.007812 102.582031 145.007812 C 125.210938 145.007812 147.835938 145.007812 170.46875 145.007812 C 171.34375 145.007812 172.21875 145.050781 173.09375 145.007812 C 174.507812 144.941406 175.246094 145.429688 175.230469 146.992188 C 175.160156 153.039062 175.789062 152.09375 170.589844 152.117188 C 159.207031 152.167969 147.8125 152.125 136.429688 152.125 Z M 136.429688 152.125 " fill-opacity="1" fill-rule="nonzero"/><path fill="#ffffff" d="M 111.796875 170.609375 C 103.167969 170.609375 94.535156 170.609375 85.902344 170.609375 C 82.515625 170.609375 82.515625 170.570312 82.496094 167.285156 C 82.496094 166.554688 82.519531 165.820312 82.507812 165.089844 C 82.496094 164.007812 83.023438 163.492188 84.09375 163.5 C 84.824219 163.5 85.558594 163.5 86.289062 163.5 C 103.261719 163.5 120.234375 163.5 137.207031 163.5 C 138.082031 163.5 138.984375 163.417969 139.828125 163.59375 C 140.265625 163.6875 140.929688 164.261719 140.929688 164.621094 C 140.929688 166.484375 140.757812 168.347656 140.628906 170.210938 C 139.207031 170.34375 137.785156 170.582031 136.363281 170.59375 C 128.1875 170.625 119.996094 170.609375 111.796875 170.609375 Z M 111.796875 170.609375 " fill-opacity="1" fill-rule="nonzero"/><path fill="#ffffff" d="M 169.316406 229.125 C 169.269531 232.625 167.121094 234.703125 163.574219 234.6875 C 159.886719 234.6875 157.722656 232.382812 157.859375 228.640625 C 157.976562 225.316406 160.464844 223.085938 163.847656 223.238281 C 167.277344 223.382812 169.367188 225.632812 169.316406 229.125 Z M 169.316406 229.125 " fill-opacity="1" fill-rule="nonzero"/><path fill="#ffffff" d="M 277.417969 234.703125 C 273.914062 234.648438 271.894531 232.5 271.921875 228.84375 C 271.949219 225.355469 274.152344 223.34375 277.644531 223.171875 C 280.941406 223.007812 283.730469 225.960938 283.421875 229.292969 C 283.089844 232.703125 281.019531 234.746094 277.417969 234.703125 Z M 277.417969 234.703125 " fill-opacity="1" fill-rule="nonzero"/><g clip-path="url(#a9bc99267c)"><path fill="#ffffff" d="M 93.386719 123.824219 C 93.386719 124.089844 93.359375 124.351562 93.308594 124.609375 C 93.257812 124.871094 93.183594 125.121094 93.082031 125.367188 C 92.980469 125.609375 92.855469 125.839844 92.707031 126.0625 C 92.5625 126.28125 92.394531 126.484375 92.207031 126.671875 C 92.023438 126.859375 91.820312 127.023438 91.597656 127.171875 C 91.378906 127.320312 91.148438 127.441406 90.902344 127.542969 C 90.660156 127.644531 90.40625 127.722656 90.148438 127.773438 C 89.890625 127.824219 89.628906 127.851562 89.363281 127.851562 C 89.097656 127.851562 88.835938 127.824219 88.578125 127.773438 C 88.320312 127.722656 88.066406 127.644531 87.824219 127.542969 C 87.578125 127.441406 87.347656 127.320312 87.128906 127.171875 C 86.90625 127.023438 86.703125 126.859375 86.519531 126.671875 C 86.332031 126.484375 86.164062 126.28125 86.015625 126.0625 C 85.871094 125.839844 85.746094 125.609375 85.644531 125.367188 C 85.542969 125.121094 85.46875 124.871094 85.417969 124.609375 C 85.363281 124.351562 85.339844 124.089844 85.339844 123.824219 C 85.339844 123.5625 85.363281 123.300781 85.417969 123.039062 C 85.46875 122.78125 85.542969 122.53125 85.644531 122.285156 C 85.746094 122.042969 85.871094 121.808594 86.015625 121.589844 C 86.164062 121.371094 86.332031 121.167969 86.519531 120.980469 C 86.703125 120.792969 86.90625 120.625 87.128906 120.480469 C 87.347656 120.332031 87.578125 120.210938 87.824219 120.109375 C 88.066406 120.007812 88.320312 119.929688 88.578125 119.878906 C 88.835938 119.828125 89.097656 119.800781 89.363281 119.800781 C 89.628906 119.800781 89.890625 119.828125 90.148438 119.878906 C 90.40625 119.929688 90.660156 120.007812 90.902344 120.109375 C 91.148438 120.210938 91.378906 120.332031 91.597656 120.480469 C 91.820312 120.625 92.023438 120.792969 92.207031 120.980469 C 92.394531 121.167969 92.5625 121.371094 92.707031 121.589844 C 92.855469 121.808594 92.980469 122.042969 93.082031 122.285156 C 93.183594 122.53125 93.257812 122.78125 93.308594 123.039062 C 93.359375 123.300781 93.386719 123.5625 93.386719 123.824219 Z M 93.386719 123.824219 " fill-opacity="1" fill-rule="nonzero"/></g><g clip-path="url(#d9679bbbd3)"><path fill="#ffffff" d="M 77.789062 123.824219 C 77.789062 124.089844 77.765625 124.351562 77.714844 124.609375 C 77.660156 124.871094 77.585938 125.121094 77.484375 125.367188 C 77.382812 125.609375 77.257812 125.839844 77.113281 126.0625 C 76.964844 126.28125 76.796875 126.484375 76.613281 126.671875 C 76.425781 126.859375 76.222656 127.023438 76 127.171875 C 75.78125 127.320312 75.550781 127.441406 75.304688 127.542969 C 75.0625 127.644531 74.808594 127.722656 74.550781 127.773438 C 74.292969 127.824219 74.03125 127.851562 73.765625 127.851562 C 73.503906 127.851562 73.242188 127.824219 72.980469 127.773438 C 72.722656 127.722656 72.46875 127.644531 72.226562 127.542969 C 71.980469 127.441406 71.75 127.320312 71.53125 127.171875 C 71.3125 127.023438 71.109375 126.859375 70.921875 126.671875 C 70.734375 126.484375 70.566406 126.28125 70.421875 126.0625 C 70.273438 125.839844 70.148438 125.609375 70.046875 125.367188 C 69.949219 125.121094 69.871094 124.871094 69.820312 124.609375 C 69.769531 124.351562 69.742188 124.089844 69.742188 123.824219 C 69.742188 123.5625 69.769531 123.300781 69.820312 123.039062 C 69.871094 122.78125 69.949219 122.53125 70.046875 122.285156 C 70.148438 122.042969 70.273438 121.808594 70.421875 121.589844 C 70.566406 121.371094 70.734375 121.167969 70.921875 120.980469 C 71.109375 120.792969 71.3125 120.625 71.53125 120.480469 C 71.75 120.332031 71.980469 120.210938 72.226562 120.109375 C 72.46875 120.007812 72.722656 119.929688 72.980469 119.878906 C 73.242188 119.828125 73.503906 119.800781 73.765625 119.800781 C 74.03125 119.800781 74.292969 119.828125 74.550781 119.878906 C 74.808594 119.929688 75.0625 120.007812 75.304688 120.109375 C 75.550781 120.210938 75.78125 120.332031 76 120.480469 C 76.222656 120.625 76.425781 120.792969 76.613281 120.980469 C 76.796875 121.167969 76.964844 121.371094 77.113281 121.589844 C 77.257812 121.808594 77.382812 122.042969 77.484375 122.285156 C 77.585938 122.53125 77.660156 122.78125 77.714844 123.039062 C 77.765625 123.300781 77.789062 123.5625 77.789062 123.824219 Z M 77.789062 123.824219 " fill-opacity="1" fill-rule="nonzero"/></g><path fill="#ffffff" d="M 89.363281 148.578125 C 89.363281 148.839844 89.335938 149.101562 89.285156 149.363281 C 89.234375 149.621094 89.15625 149.871094 89.058594 150.117188 C 88.957031 150.359375 88.832031 150.59375 88.683594 150.8125 C 88.539062 151.03125 88.371094 151.234375 88.183594 151.421875 C 87.996094 151.609375 87.792969 151.777344 87.574219 151.921875 C 87.355469 152.070312 87.125 152.195312 86.878906 152.292969 C 86.636719 152.394531 86.382812 152.472656 86.125 152.523438 C 85.863281 152.574219 85.601562 152.601562 85.339844 152.601562 C 85.074219 152.601562 84.8125 152.574219 84.554688 152.523438 C 84.296875 152.472656 84.042969 152.394531 83.800781 152.292969 C 83.554688 152.195312 83.324219 152.070312 83.105469 151.921875 C 82.882812 151.777344 82.679688 151.609375 82.492188 151.421875 C 82.308594 151.234375 82.140625 151.03125 81.992188 150.8125 C 81.847656 150.59375 81.722656 150.359375 81.621094 150.117188 C 81.519531 149.871094 81.445312 149.621094 81.394531 149.363281 C 81.339844 149.101562 81.316406 148.839844 81.316406 148.578125 C 81.316406 148.3125 81.339844 148.050781 81.394531 147.792969 C 81.445312 147.53125 81.519531 147.28125 81.621094 147.039062 C 81.722656 146.792969 81.847656 146.5625 81.992188 146.339844 C 82.140625 146.121094 82.308594 145.917969 82.492188 145.730469 C 82.679688 145.542969 82.882812 145.378906 83.105469 145.230469 C 83.324219 145.085938 83.554688 144.960938 83.800781 144.859375 C 84.042969 144.757812 84.296875 144.683594 84.554688 144.628906 C 84.8125 144.578125 85.074219 144.554688 85.339844 144.554688 C 85.601562 144.554688 85.863281 144.578125 86.125 144.628906 C 86.382812 144.683594 86.636719 144.757812 86.878906 144.859375 C 87.125 144.960938 87.355469 145.085938 87.574219 145.230469 C 87.792969 145.378906 87.996094 145.542969 88.183594 145.730469 C 88.371094 145.917969 88.539062 146.121094 88.683594 146.339844 C 88.832031 146.5625 88.957031 146.792969 89.058594 147.039062 C 89.15625 147.28125 89.234375 147.53125 89.285156 147.792969 C 89.335938 148.050781 89.363281 148.3125 89.363281 148.578125 Z M 89.363281 148.578125 " fill-opacity="1" fill-rule="nonzero"/><path fill="#ffffff" d="M 73.765625 167.050781 C 73.765625 167.316406 73.742188 167.578125 73.6875 167.835938 C 73.636719 168.097656 73.5625 168.347656 73.460938 168.59375 C 73.359375 168.835938 73.234375 169.066406 73.089844 169.289062 C 72.941406 169.507812 72.773438 169.710938 72.585938 169.898438 C 72.402344 170.085938 72.199219 170.25 71.976562 170.398438 C 71.757812 170.542969 71.527344 170.667969 71.28125 170.769531 C 71.039062 170.871094 70.785156 170.945312 70.527344 171 C 70.269531 171.050781 70.007812 171.074219 69.742188 171.074219 C 69.476562 171.074219 69.214844 171.050781 68.957031 171 C 68.699219 170.945312 68.445312 170.871094 68.203125 170.769531 C 67.957031 170.667969 67.726562 170.542969 67.507812 170.398438 C 67.289062 170.25 67.082031 170.085938 66.898438 169.898438 C 66.710938 169.710938 66.542969 169.507812 66.398438 169.289062 C 66.25 169.066406 66.125 168.835938 66.023438 168.59375 C 65.921875 168.347656 65.847656 168.097656 65.796875 167.835938 C 65.746094 167.578125 65.71875 167.316406 65.71875 167.050781 C 65.71875 166.789062 65.746094 166.527344 65.796875 166.265625 C 65.847656 166.007812 65.921875 165.757812 66.023438 165.511719 C 66.125 165.269531 66.25 165.035156 66.398438 164.816406 C 66.542969 164.597656 66.710938 164.394531 66.898438 164.207031 C 67.082031 164.019531 67.289062 163.851562 67.507812 163.707031 C 67.726562 163.558594 67.957031 163.433594 68.203125 163.335938 C 68.445312 163.234375 68.699219 163.15625 68.957031 163.105469 C 69.214844 163.054688 69.476562 163.027344 69.742188 163.027344 C 70.007812 163.027344 70.269531 163.054688 70.527344 163.105469 C 70.785156 163.15625 71.039062 163.234375 71.28125 163.335938 C 71.527344 163.433594 71.757812 163.558594 71.976562 163.707031 C 72.199219 163.851562 72.402344 164.019531 72.585938 164.207031 C 72.773438 164.394531 72.941406 164.597656 73.089844 164.816406 C 73.234375 165.035156 73.359375 165.269531 73.460938 165.511719 C 73.5625 165.757812 73.636719 166.007812 73.6875 166.265625 C 73.742188 166.527344 73.765625 166.789062 73.765625 167.050781 Z M 73.765625 167.050781 " fill-opacity="1" fill-rule="nonzero"/><g clip-path="url(#f9e1d46fed)"><path fill="#ffffff" d="M 60.28125 167.050781 C 60.28125 167.316406 60.253906 167.578125 60.203125 167.835938 C 60.152344 168.097656 60.074219 168.347656 59.972656 168.59375 C 59.871094 168.835938 59.75 169.066406 59.601562 169.289062 C 59.453125 169.507812 59.289062 169.710938 59.101562 169.898438 C 58.914062 170.085938 58.710938 170.25 58.492188 170.398438 C 58.273438 170.542969 58.039062 170.667969 57.796875 170.769531 C 57.550781 170.871094 57.300781 170.945312 57.039062 171 C 56.78125 171.050781 56.519531 171.074219 56.253906 171.074219 C 55.992188 171.074219 55.730469 171.050781 55.472656 171 C 55.210938 170.945312 54.960938 170.871094 54.714844 170.769531 C 54.472656 170.667969 54.238281 170.542969 54.019531 170.398438 C 53.800781 170.25 53.597656 170.085938 53.410156 169.898438 C 53.222656 169.710938 53.058594 169.507812 52.910156 169.289062 C 52.761719 169.066406 52.640625 168.835938 52.539062 168.59375 C 52.4375 168.347656 52.359375 168.097656 52.308594 167.835938 C 52.257812 167.578125 52.230469 167.316406 52.230469 167.050781 C 52.230469 166.789062 52.257812 166.527344 52.308594 166.265625 C 52.359375 166.007812 52.4375 165.757812 52.539062 165.511719 C 52.640625 165.269531 52.761719 165.035156 52.910156 164.816406 C 53.058594 164.597656 53.222656 164.394531 53.410156 164.207031 C 53.597656 164.019531 53.800781 163.851562 54.019531 163.707031 C 54.238281 163.558594 54.472656 163.433594 54.714844 163.335938 C 54.960938 163.234375 55.210938 163.15625 55.472656 163.105469 C 55.730469 163.054688 55.992188 163.027344 56.253906 163.027344 C 56.519531 163.027344 56.78125 163.054688 57.039062 163.105469 C 57.300781 163.15625 57.550781 163.234375 57.796875 163.335938 C 58.039062 163.433594 58.273438 163.558594 58.492188 163.707031 C 58.710938 163.851562 58.914062 164.019531 59.101562 164.207031 C 59.289062 164.394531 59.453125 164.597656 59.601562 164.816406 C 59.75 165.035156 59.871094 165.269531 59.972656 165.511719 C 60.074219 165.757812 60.152344 166.007812 60.203125 166.265625 C 60.253906 166.527344 60.28125 166.789062 60.28125 167.050781 Z M 60.28125 167.050781 " fill-opacity="1" fill-rule="nonzero"/></g></svg>