<svg xmlns="http://www.w3.org/2000/svg" xmlns:xlink="http://www.w3.org/1999/xlink" width="500" zoomAndPan="magnify" viewBox="0 0 375 374.999991" height="500" preserveAspectRatio="xMidYMid meet" version="1.0"><defs><clipPath id="e6b969b81a"><path d="M 0 0 L 373.800781 0 L 373.800781 375 L 0 375 Z M 0 0 " clip-rule="nonzero"/></clipPath><clipPath id="877d42e050"><path d="M 186.300781 0 C 82.75 0 -1.199219 83.945312 -1.199219 187.5 C -1.199219 291.054688 82.75 375 186.300781 375 C 289.855469 375 373.800781 291.054688 373.800781 187.5 C 373.800781 83.945312 289.855469 0 186.300781 0 Z M 186.300781 0 " clip-rule="nonzero"/></clipPath><clipPath id="d49ecd495d"><path d="M 19.679688 20.875 L 352.925781 20.875 L 352.925781 354.125 L 19.679688 354.125 Z M 19.679688 20.875 " clip-rule="nonzero"/></clipPath><clipPath id="9531984f10"><path d="M 186.300781 20.875 C 94.277344 20.875 19.679688 95.476562 19.679688 187.5 C 19.679688 279.523438 94.277344 354.125 186.300781 354.125 C 278.324219 354.125 352.925781 279.523438 352.925781 187.5 C 352.925781 95.476562 278.324219 20.875 186.300781 20.875 Z M 186.300781 20.875 " clip-rule="nonzero"/></clipPath><clipPath id="dcd710357f"><path d="M 19.679688 20.875 L 352.679688 20.875 L 352.679688 353.875 L 19.679688 353.875 Z M 19.679688 20.875 " clip-rule="nonzero"/></clipPath><clipPath id="f092798afb"><path d="M 186.300781 20.875 C 94.277344 20.875 19.679688 95.476562 19.679688 187.5 C 19.679688 279.523438 94.277344 354.121094 186.300781 354.121094 C 278.324219 354.121094 352.925781 279.523438 352.925781 187.5 C 352.925781 95.476562 278.324219 20.875 186.300781 20.875 Z M 186.300781 20.875 " clip-rule="nonzero"/></clipPath><clipPath id="148ed6c5a3"><path d="M 107 235 L 265 235 L 265 310.578125 L 107 310.578125 Z M 107 235 " clip-rule="nonzero"/></clipPath><clipPath id="f7c542d960"><path d="M 134 64.578125 L 239 64.578125 L 239 169 L 134 169 Z M 134 64.578125 " clip-rule="nonzero"/></clipPath><clipPath id="c3c32a3ddc"><path d="M 224 137 L 309.378906 137 L 309.378906 222 L 224 222 Z M 224 137 " clip-rule="nonzero"/></clipPath><clipPath id="d299ec674e"><path d="M 63.378906 137 L 148 137 L 148 222 L 63.378906 222 Z M 63.378906 137 " clip-rule="nonzero"/></clipPath></defs><rect x="-37.5" width="450" fill="#ffffff" y="-37.499999" height="449.999989" fill-opacity="1"/><rect x="-37.5" width="450" fill="#ffffff" y="-37.499999" height="449.999989" fill-opacity="1"/><g clip-path="url(#e6b969b81a)"><g clip-path="url(#877d42e050)"><path fill="#ff914d" d="M -1.199219 0 L 373.800781 0 L 373.800781 375 L -1.199219 375 Z M -1.199219 0 " fill-opacity="1" fill-rule="nonzero"/><path stroke-linecap="butt" transform="matrix(0.75, 0, 0, 0.75, -1.198078, 0.000000000000106581)" fill="none" stroke-linejoin="miter" d="M 249.99848 -0.000000000000142109 C 111.930771 -0.000000000000142109 -0.00152044 111.927084 -0.00152044 250 C -0.00152044 388.072917 111.930771 500.000001 249.99848 500.000001 C 388.071397 500.000001 499.99848 388.072917 499.99848 250 C 499.99848 111.927084 388.071397 -0.000000000000142109 249.99848 -0.000000000000142109 Z M 249.99848 -0.000000000000142109 " stroke="#000000" stroke-width="8" stroke-opacity="1" stroke-miterlimit="4"/></g></g><g clip-path="url(#d49ecd495d)"><g clip-path="url(#9531984f10)"><path fill="#ff914d" d="M 19.679688 20.875 L 352.925781 20.875 L 352.925781 354.125 L 19.679688 354.125 Z M 19.679688 20.875 " fill-opacity="1" fill-rule="nonzero"/></g></g><g clip-path="url(#dcd710357f)"><g clip-path="url(#f092798afb)"><path stroke-linecap="butt" transform="matrix(0.75, 0, 0, 0.75, 19.678518, 20.876595)" fill="none" stroke-linejoin="miter" d="M 222.163032 -0.00212628 C 99.465107 -0.00212628 0.0015589 99.46663 0.0015589 222.164555 C 0.0015589 344.86248 99.465107 444.326028 222.163032 444.326028 C 344.860957 444.326028 444.329713 344.86248 444.329713 222.164555 C 444.329713 99.46663 344.860957 -0.00212628 222.163032 -0.00212628 Z M 222.163032 -0.00212628 " stroke="#ffffff" stroke-width="8" stroke-opacity="1" stroke-miterlimit="4"/></g></g><path fill="#ffffff" d="M 163.285156 208.394531 C 163.285156 221.050781 173.640625 231.40625 186.296875 231.40625 C 198.953125 231.40625 209.308594 221.050781 209.308594 208.394531 C 209.308594 195.742188 198.953125 185.386719 186.296875 185.386719 C 173.640625 185.386719 163.285156 195.742188 163.285156 208.394531 Z M 201.636719 208.394531 C 201.636719 216.832031 194.734375 223.738281 186.296875 223.738281 C 177.859375 223.738281 170.957031 216.832031 170.957031 208.394531 C 170.957031 199.960938 177.859375 193.054688 186.296875 193.054688 C 194.734375 193.054688 201.636719 199.960938 201.636719 208.394531 Z M 201.636719 208.394531 " fill-opacity="1" fill-rule="nonzero"/><g clip-path="url(#148ed6c5a3)"><path fill="#ffffff" d="M 258.78125 240.804688 C 255.90625 237.925781 251.496094 237.542969 248.234375 240.035156 C 248.234375 240.035156 248.042969 240.035156 248.042969 240.230469 L 232.320312 253.269531 C 232.128906 253.269531 231.933594 253.269531 231.933594 253.269531 L 217.746094 242.914062 C 210.457031 236.011719 201.828125 235.242188 198.378906 235.242188 L 173.257812 235.242188 C 173.066406 235.242188 172.875 235.242188 172.679688 235.242188 C 168.65625 235.433594 161.175781 236.777344 154.65625 242.914062 L 140.65625 253.269531 C 140.464844 253.269531 140.273438 253.460938 140.273438 253.269531 L 124.550781 240.230469 C 124.550781 240.230469 124.359375 240.230469 124.359375 240.035156 C 121.097656 237.734375 116.6875 237.925781 113.8125 240.804688 L 109.976562 244.832031 C 108.441406 246.554688 107.484375 248.664062 107.675781 250.96875 C 107.867188 253.269531 109.015625 255.378906 110.742188 256.71875 L 135.671875 277.238281 C 138.546875 279.347656 142.382812 279.347656 145.261719 277.429688 L 159.449219 268.226562 L 159.449219 301.589844 C 159.449219 305.617188 162.902344 310.414062 167.695312 310.414062 L 205.089844 310.414062 C 209.691406 310.414062 213.335938 305.808594 213.335938 301.589844 L 213.335938 268.226562 L 227.523438 277.621094 C 230.402344 279.730469 234.238281 279.539062 237.113281 277.429688 L 261.851562 257.101562 C 263.765625 255.761719 264.917969 253.652344 264.917969 251.351562 C 265.109375 249.050781 264.152344 246.75 262.617188 245.214844 Z M 257.054688 250.582031 L 232.320312 270.910156 C 232.128906 271.101562 231.933594 271.101562 231.742188 270.910156 C 231.742188 270.910156 231.550781 270.910156 231.550781 270.71875 L 211.226562 257.488281 C 210.074219 256.71875 208.539062 256.71875 207.390625 257.296875 C 206.238281 257.871094 205.472656 259.210938 205.472656 260.746094 L 205.472656 301.207031 C 205.472656 301.589844 205.089844 302.167969 204.707031 302.359375 L 171.148438 302.359375 C 170.957031 302.359375 170.765625 302.359375 170.765625 302.359375 L 167.886719 302.359375 C 167.695312 302.167969 167.121094 301.589844 167.121094 301.207031 L 167.121094 260.746094 C 167.121094 259.40625 166.355469 258.0625 165.203125 257.296875 C 164.628906 256.910156 164.050781 256.910156 163.285156 256.910156 C 162.519531 256.910156 161.75 257.101562 161.175781 257.488281 L 140.847656 270.527344 C 140.847656 270.527344 140.65625 270.527344 140.65625 270.71875 C 140.464844 270.910156 140.273438 270.910156 140.273438 270.71875 L 115.539062 250.582031 C 115.539062 250.582031 115.34375 250.582031 115.34375 250.390625 C 115.34375 250.199219 115.34375 250.199219 115.34375 250.199219 L 119.179688 246.171875 C 119.371094 245.980469 119.5625 245.980469 119.757812 246.171875 L 135.480469 259.210938 C 135.480469 259.210938 135.671875 259.210938 135.671875 259.40625 C 138.546875 261.515625 142.382812 261.515625 145.261719 259.40625 L 159.449219 249.050781 C 159.640625 248.859375 159.640625 248.859375 159.832031 248.664062 C 164.628906 243.871094 170.378906 243.105469 173.257812 242.914062 C 173.257812 242.914062 173.449219 242.914062 173.449219 242.914062 L 198.378906 242.914062 C 200.871094 242.914062 207.199219 243.488281 212.566406 248.664062 C 212.757812 248.859375 212.757812 248.859375 212.949219 249.050781 L 227.140625 259.40625 C 230.019531 261.515625 233.851562 261.515625 236.730469 259.40625 C 236.730469 259.40625 236.921875 259.40625 236.921875 259.210938 L 252.644531 246.171875 C 252.835938 246.171875 253.027344 246.171875 253.21875 246.171875 L 257.054688 250.199219 C 257.054688 250.199219 257.246094 250.390625 257.054688 250.390625 C 257.246094 250.582031 257.246094 250.582031 257.054688 250.582031 Z M 257.054688 250.582031 " fill-opacity="1" fill-rule="nonzero"/></g><path fill="#ffffff" d="M 117.070312 154.703125 C 112.660156 154.511719 108.632812 156.621094 105.757812 159.496094 C 102.882812 156.621094 98.855469 154.511719 94.445312 154.703125 C 86.007812 155.085938 79.101562 162.375 78.910156 171.195312 C 78.71875 175.414062 80.253906 179.441406 82.554688 182.507812 C 82.746094 182.890625 102.6875 207.054688 102.6875 207.054688 C 103.457031 208.011719 104.414062 208.394531 105.566406 208.394531 C 106.714844 208.394531 107.867188 207.820312 108.441406 207.054688 L 127.617188 183.660156 C 128.769531 182.316406 129.535156 181.167969 130.300781 179.824219 C 131.835938 176.949219 132.410156 174.070312 132.410156 171.386719 C 132.410156 162.375 125.507812 155.085938 117.070312 154.703125 Z M 124.933594 171.386719 C 124.933594 172.921875 124.550781 174.453125 123.589844 176.179688 C 123.207031 176.949219 122.632812 177.90625 121.867188 178.671875 L 105.757812 198.617188 C 100.195312 191.90625 88.691406 177.90625 88.5 177.714844 C 87.15625 176.179688 86.390625 173.878906 86.582031 171.578125 C 86.773438 166.785156 90.417969 162.757812 94.828125 162.566406 C 94.828125 162.566406 95.019531 162.566406 95.019531 162.566406 C 98.085938 162.566406 100.964844 165.25 102.496094 167.742188 C 103.265625 168.894531 104.414062 169.46875 105.757812 169.46875 C 107.101562 169.46875 108.25 168.703125 109.015625 167.742188 C 110.550781 165.25 113.429688 162.375 116.6875 162.566406 C 121.097656 162.566406 124.742188 166.59375 124.933594 171.386719 Z M 124.933594 171.386719 " fill-opacity="1" fill-rule="nonzero"/><path fill="#ffffff" d="M 276.617188 166.402344 L 270.671875 152.976562 C 270.09375 151.636719 268.753906 150.675781 267.21875 150.675781 C 265.683594 150.675781 264.34375 151.445312 263.765625 152.785156 L 257.246094 165.824219 L 243.25 167.742188 C 241.90625 167.933594 240.566406 168.894531 240.179688 170.234375 C 239.605469 171.578125 239.988281 173.113281 240.949219 174.070312 L 250.917969 184.617188 L 248.234375 199.191406 C 248.042969 200.726562 248.617188 202.070312 249.769531 203.027344 C 250.917969 203.984375 252.453125 203.984375 253.796875 203.410156 L 266.261719 196.890625 L 278.53125 203.984375 C 279.109375 204.371094 279.875 204.5625 280.449219 204.5625 C 281.21875 204.5625 281.984375 204.371094 282.558594 203.984375 C 283.710938 203.21875 284.476562 201.683594 284.285156 200.34375 L 282.175781 185.578125 L 292.53125 175.414062 C 293.488281 174.453125 293.875 172.921875 293.488281 171.578125 C 293.105469 170.234375 291.957031 169.277344 290.421875 168.894531 Z M 275.464844 181.359375 C 274.507812 182.125 274.121094 183.46875 274.3125 184.617188 L 275.65625 193.4375 L 268.371094 189.21875 C 267.792969 188.835938 267.027344 188.644531 266.453125 188.644531 C 265.875 188.644531 265.300781 188.835938 264.726562 189.027344 L 257.246094 192.863281 L 258.78125 184.042969 C 258.972656 182.890625 258.589844 181.550781 257.824219 180.78125 L 251.6875 174.261719 L 260.125 173.113281 C 261.464844 172.921875 262.425781 172.152344 263 171.003906 L 266.835938 163.332031 L 270.289062 171.195312 C 270.863281 172.34375 271.820312 173.113281 273.164062 173.496094 L 281.601562 175.03125 Z M 275.464844 181.359375 " fill-opacity="1" fill-rule="nonzero"/><path fill="#ffffff" d="M 222.730469 114.050781 C 222.730469 111.75 221.964844 109.449219 219.855469 107.722656 C 220.621094 106.378906 221.003906 105.039062 221.003906 103.503906 C 221.003906 98.519531 216.785156 94.492188 211.035156 93.914062 C 210.84375 93.914062 210.84375 93.914062 210.648438 93.914062 L 193.96875 93.914062 L 195.882812 88.355469 C 196.652344 86.054688 196.460938 83.5625 195.308594 81.453125 C 194.160156 79.152344 192.242188 77.617188 189.75 76.847656 C 184.761719 75.316406 179.585938 78 177.859375 82.792969 L 173.257812 96.984375 C 173.257812 97.175781 173.257812 97.367188 173.066406 97.558594 C 173.066406 97.941406 172.488281 98.328125 171.914062 98.519531 C 170.765625 97.175781 169.039062 96.410156 167.121094 96.410156 L 160.027344 96.410156 C 156.382812 96.410156 153.3125 99.476562 153.3125 103.121094 L 153.3125 138.789062 C 153.3125 142.429688 156.382812 145.5 160.027344 145.5 L 167.121094 145.5 C 168.078125 145.5 168.847656 145.308594 169.613281 144.925781 C 170.378906 145.308594 171.148438 145.5 171.914062 145.5 L 204.707031 145.5 C 207.773438 145.5 210.457031 144.347656 212.566406 142.238281 C 214.292969 140.511719 215.253906 138.019531 215.253906 135.71875 C 215.253906 134.570312 215.058594 133.417969 214.675781 132.460938 C 216.976562 130.925781 218.511719 128.242188 218.511719 124.980469 C 218.511719 124.023438 218.320312 123.0625 217.9375 122.105469 C 221.003906 120.378906 222.730469 117.695312 222.730469 114.050781 Z M 166.546875 137.445312 L 161.367188 137.445312 L 161.367188 103.503906 L 166.546875 103.503906 Z M 212.566406 115.585938 L 208.539062 115.585938 C 206.429688 115.585938 204.707031 117.3125 204.707031 119.421875 C 204.707031 121.53125 206.429688 123.253906 208.539062 123.253906 C 210.074219 123.253906 211.035156 124.214844 211.035156 124.789062 C 211.035156 125.746094 210.457031 126.324219 209.308594 126.324219 L 206.046875 126.324219 C 203.9375 126.324219 202.210938 128.050781 202.210938 130.160156 C 202.210938 132.269531 203.9375 133.992188 206.046875 133.992188 L 206.238281 133.992188 C 207.390625 133.992188 207.964844 134.570312 207.964844 135.527344 C 207.964844 135.71875 207.964844 136.101562 207.582031 136.679688 C 207.007812 137.253906 206.238281 137.445312 205.28125 137.445312 L 174.214844 137.445312 L 174.214844 105.421875 C 177.476562 104.65625 180.160156 102.160156 180.925781 98.902344 L 185.53125 84.902344 C 185.914062 84.136719 186.871094 83.5625 187.832031 83.945312 C 188.40625 84.136719 188.789062 84.519531 188.789062 84.710938 C 188.980469 84.902344 188.980469 85.285156 188.789062 85.671875 L 185.722656 94.683594 C 185.144531 96.410156 185.53125 98.328125 186.679688 99.667969 C 187.832031 101.011719 189.363281 101.585938 191.089844 101.394531 L 210.457031 101.394531 C 212.183594 101.585938 213.144531 102.546875 213.144531 103.3125 C 213.144531 103.886719 212.183594 104.847656 210.648438 104.847656 C 210.648438 104.847656 210.648438 104.847656 210.457031 104.847656 C 208.347656 104.847656 206.625 106.570312 206.625 108.679688 C 206.625 110.789062 208.347656 112.515625 210.457031 112.515625 C 211.226562 112.515625 214.675781 112.515625 214.675781 114.050781 C 215.058594 114.625 215.058594 115.585938 212.566406 115.585938 Z M 212.566406 115.585938 " fill-opacity="1" fill-rule="nonzero"/><g clip-path="url(#f7c542d960)"><path fill="#ffffff" d="M 238.070312 116.351562 C 238.070312 87.78125 214.867188 64.578125 186.296875 64.578125 C 157.722656 64.578125 134.519531 87.78125 134.519531 116.351562 C 134.519531 144.925781 157.722656 168.125 186.296875 168.125 C 214.867188 168.125 238.070312 144.925781 238.070312 116.351562 Z M 186.296875 160.457031 C 161.941406 160.457031 142.191406 140.707031 142.191406 116.351562 C 142.191406 92 161.941406 72.246094 186.296875 72.246094 C 210.648438 72.246094 230.402344 92 230.402344 116.351562 C 230.402344 140.707031 210.648438 160.457031 186.296875 160.457031 Z M 186.296875 160.457031 " fill-opacity="1" fill-rule="nonzero"/></g><g clip-path="url(#c3c32a3ddc)"><path fill="#ffffff" d="M 266.835938 137.445312 C 243.632812 137.445312 224.648438 156.429688 224.648438 179.632812 C 224.648438 202.835938 243.632812 221.820312 266.835938 221.820312 C 290.039062 221.820312 309.023438 202.835938 309.023438 179.632812 C 309.023438 156.429688 290.039062 137.445312 266.835938 137.445312 Z M 266.835938 214.148438 C 247.851562 214.148438 232.320312 198.617188 232.320312 179.632812 C 232.320312 160.648438 247.851562 145.117188 266.835938 145.117188 C 285.820312 145.117188 301.351562 160.648438 301.351562 179.632812 C 301.351562 198.617188 285.820312 214.148438 266.835938 214.148438 Z M 266.835938 214.148438 " fill-opacity="1" fill-rule="nonzero"/></g><g clip-path="url(#d299ec674e)"><path fill="#ffffff" d="M 147.945312 179.632812 C 147.945312 156.429688 128.960938 137.445312 105.757812 137.445312 C 82.554688 137.445312 63.570312 156.429688 63.570312 179.632812 C 63.570312 202.835938 82.554688 221.820312 105.757812 221.820312 C 128.960938 221.820312 147.945312 202.835938 147.945312 179.632812 Z M 105.757812 214.148438 C 86.773438 214.148438 71.242188 198.617188 71.242188 179.632812 C 71.242188 160.648438 86.773438 145.117188 105.757812 145.117188 C 124.742188 145.117188 140.273438 160.648438 140.273438 179.632812 C 140.273438 198.617188 124.742188 214.148438 105.757812 214.148438 Z M 105.757812 214.148438 " fill-opacity="1" fill-rule="nonzero"/></g></svg>