<svg xmlns="http://www.w3.org/2000/svg" xmlns:xlink="http://www.w3.org/1999/xlink" width="500" zoomAndPan="magnify" viewBox="0 0 375 374.999991" height="500" preserveAspectRatio="xMidYMid meet" version="1.0"><defs><clipPath id="5726fb4202"><path d="M 0 0 L 373.800781 0 L 373.800781 375 L 0 375 Z M 0 0 " clip-rule="nonzero"/></clipPath><clipPath id="92b1515412"><path d="M 186.300781 0 C 82.75 0 -1.199219 83.945312 -1.199219 187.5 C -1.199219 291.054688 82.75 375 186.300781 375 C 289.855469 375 373.800781 291.054688 373.800781 187.5 C 373.800781 83.945312 289.855469 0 186.300781 0 Z M 186.300781 0 " clip-rule="nonzero"/></clipPath><clipPath id="8fe8f7a908"><path d="M 19.679688 20.875 L 352.925781 20.875 L 352.925781 354.125 L 19.679688 354.125 Z M 19.679688 20.875 " clip-rule="nonzero"/></clipPath><clipPath id="e7520c0a0f"><path d="M 186.300781 20.875 C 94.277344 20.875 19.679688 95.476562 19.679688 187.5 C 19.679688 279.523438 94.277344 354.125 186.300781 354.125 C 278.324219 354.125 352.925781 279.523438 352.925781 187.5 C 352.925781 95.476562 278.324219 20.875 186.300781 20.875 Z M 186.300781 20.875 " clip-rule="nonzero"/></clipPath><clipPath id="5a8b0dce7a"><path d="M 19.679688 20.875 L 352.679688 20.875 L 352.679688 353.875 L 19.679688 353.875 Z M 19.679688 20.875 " clip-rule="nonzero"/></clipPath><clipPath id="b520729f4b"><path d="M 186.300781 20.875 C 94.277344 20.875 19.679688 95.476562 19.679688 187.5 C 19.679688 279.523438 94.277344 354.121094 186.300781 354.121094 C 278.324219 354.121094 352.925781 279.523438 352.925781 187.5 C 352.925781 95.476562 278.324219 20.875 186.300781 20.875 Z M 186.300781 20.875 " clip-rule="nonzero"/></clipPath><clipPath id="d88186f22f"><path d="M 72.847656 56.589844 L 234 56.589844 L 234 217 L 72.847656 217 Z M 72.847656 56.589844 " clip-rule="nonzero"/></clipPath><clipPath id="8c6375e0cb"><path d="M 213 221 L 277.597656 221 L 277.597656 310.839844 L 213 310.839844 Z M 213 221 " clip-rule="nonzero"/></clipPath><clipPath id="08e5a39dc3"><path d="M 135 221 L 200 221 L 200 310.839844 L 135 310.839844 Z M 135 221 " clip-rule="nonzero"/></clipPath></defs><rect x="-37.5" width="450" fill="#ffffff" y="-37.499999" height="449.999989" fill-opacity="1"/><rect x="-37.5" width="450" fill="#ffffff" y="-37.499999" height="449.999989" fill-opacity="1"/><g clip-path="url(#5726fb4202)"><g clip-path="url(#92b1515412)"><path fill="#ff914d" d="M -1.199219 0 L 373.800781 0 L 373.800781 375 L -1.199219 375 Z M -1.199219 0 " fill-opacity="1" fill-rule="nonzero"/><path stroke-linecap="butt" transform="matrix(0.75, 0, 0, 0.75, -1.198078, 0.000000000000106581)" fill="none" stroke-linejoin="miter" d="M 249.99848 -0.000000000000142109 C 111.930771 -0.000000000000142109 -0.00152044 111.927084 -0.00152044 250 C -0.00152044 388.072917 111.930771 500.000001 249.99848 500.000001 C 388.071397 500.000001 499.99848 388.072917 499.99848 250 C 499.99848 111.927084 388.071397 -0.000000000000142109 249.99848 -0.000000000000142109 Z M 249.99848 -0.000000000000142109 " stroke="#000000" stroke-width="8" stroke-opacity="1" stroke-miterlimit="4"/></g></g><g clip-path="url(#8fe8f7a908)"><g clip-path="url(#e7520c0a0f)"><path fill="#ff914d" d="M 19.679688 20.875 L 352.925781 20.875 L 352.925781 354.125 L 19.679688 354.125 Z M 19.679688 20.875 " fill-opacity="1" fill-rule="nonzero"/></g></g><g clip-path="url(#5a8b0dce7a)"><g clip-path="url(#b520729f4b)"><path stroke-linecap="butt" transform="matrix(0.75, 0, 0, 0.75, 19.678518, 20.876595)" fill="none" stroke-linejoin="miter" d="M 222.163032 -0.00212628 C 99.465107 -0.00212628 0.0015589 99.46663 0.0015589 222.164555 C 0.0015589 344.86248 99.465107 444.326028 222.163032 444.326028 C 344.860957 444.326028 444.329713 344.86248 444.329713 222.164555 C 444.329713 99.46663 344.860957 -0.00212628 222.163032 -0.00212628 Z M 222.163032 -0.00212628 " stroke="#ffffff" stroke-width="8" stroke-opacity="1" stroke-miterlimit="4"/></g></g><path fill="#ffffff" d="M 206.378906 268.832031 C 206.042969 268.832031 205.699219 268.777344 205.371094 268.667969 C 173.210938 258.328125 152.910156 234.578125 146.648438 199.988281 C 141.976562 174.175781 146.707031 151.757812 146.90625 150.816406 C 147.25 149.242188 148.683594 148.144531 150.296875 148.214844 C 152.335938 148.3125 154.320312 148.359375 156.242188 148.359375 C 189.386719 148.359375 203.910156 134.496094 204.066406 134.347656 C 205.355469 133.078125 207.429688 133.074219 208.714844 134.347656 C 208.925781 134.550781 225.1875 150.011719 262.476562 148.214844 C 264.078125 148.136719 265.523438 149.234375 265.867188 150.816406 C 266.070312 151.757812 270.796875 174.175781 266.125 199.988281 C 259.863281 234.578125 239.558594 258.332031 207.402344 268.667969 C 207.0625 268.777344 206.71875 268.832031 206.378906 268.832031 Z M 152.871094 154.921875 C 151.796875 161.558594 149.609375 179.484375 153.175781 199.007812 C 159.027344 231.035156 176.929688 252.242188 206.375 262.058594 C 235.886719 252.21875 253.796875 230.949219 259.609375 198.820312 C 263.136719 179.324219 260.953125 161.527344 259.886719 154.929688 C 229.023438 155.761719 212.1875 145.476562 206.375 141.019531 C 200.566406 145.46875 183.722656 155.742188 152.871094 154.921875 Z M 152.871094 154.921875 " fill-opacity="1" fill-rule="nonzero"/><path fill="#ffffff" d="M 206.378906 254.257812 C 205.984375 254.257812 205.582031 254.179688 205.207031 254.039062 C 180.644531 244.703125 165.542969 225.949219 160.324219 198.308594 C 158.441406 188.351562 157.859375 175.90625 158.757812 165.027344 C 158.894531 163.367188 160.242188 162.074219 161.90625 162 C 175.011719 161.429688 186.894531 158.878906 197.222656 154.414062 C 199.765625 153.3125 202.363281 152.015625 204.734375 150.652344 C 205.757812 150.066406 207.003906 150.066406 208.019531 150.652344 C 210.394531 152.011719 212.992188 153.3125 215.53125 154.414062 C 225.863281 158.878906 237.742188 161.429688 250.851562 162 C 252.511719 162.074219 253.859375 163.367188 253.996094 165.027344 C 254.898438 175.90625 254.3125 188.351562 252.433594 198.308594 C 247.214844 225.957031 232.113281 244.703125 207.550781 254.039062 C 207.171875 254.179688 206.777344 254.257812 206.378906 254.257812 Z M 165.140625 168.4375 C 164.59375 178.03125 165.195312 188.539062 166.8125 197.082031 C 171.5625 222.222656 184.507812 238.695312 206.375 247.40625 C 228.242188 238.695312 241.195312 222.21875 245.9375 197.074219 C 247.546875 188.527344 248.15625 178.023438 247.609375 168.429688 C 234.851562 167.589844 223.191406 164.917969 212.90625 160.472656 C 210.714844 159.527344 208.484375 158.445312 206.371094 157.296875 C 204.253906 158.445312 202.023438 159.527344 199.832031 160.472656 C 189.558594 164.921875 177.898438 167.601562 165.140625 168.4375 Z M 165.140625 168.4375 " fill-opacity="1" fill-rule="nonzero"/><g clip-path="url(#d88186f22f)"><path fill="#ffffff" d="M 153.488281 216.949219 L 148.652344 216.949219 C 139.34375 216.949219 131.777344 209.378906 131.777344 200.074219 L 131.777344 195.730469 C 129.941406 195.0625 128.128906 194.316406 126.363281 193.480469 L 123.285156 196.558594 C 116.703125 203.136719 106 203.136719 99.421875 196.558594 L 93.242188 190.378906 C 86.660156 183.796875 86.660156 173.09375 93.242188 166.515625 L 96.316406 163.445312 C 95.484375 161.671875 94.734375 159.867188 94.066406 158.023438 L 89.722656 158.023438 C 80.417969 158.023438 72.847656 150.457031 72.847656 141.152344 L 72.847656 132.402344 C 72.847656 123.097656 80.417969 115.527344 89.722656 115.527344 L 94.066406 115.527344 C 94.726562 113.695312 95.476562 111.882812 96.316406 110.109375 L 93.242188 107.039062 C 86.660156 100.457031 86.660156 89.75 93.242188 83.175781 L 99.421875 76.992188 C 106.003906 70.410156 116.710938 70.410156 123.285156 76.992188 L 126.363281 80.074219 C 128.136719 79.242188 129.941406 78.492188 131.78125 77.824219 L 131.78125 73.480469 C 131.78125 64.175781 139.351562 56.605469 148.65625 56.605469 L 157.398438 56.605469 C 166.707031 56.605469 174.273438 64.175781 174.273438 73.480469 L 174.273438 77.820312 C 176.109375 78.484375 177.917969 79.230469 179.691406 80.066406 L 182.769531 76.988281 C 189.351562 70.410156 200.058594 70.40625 206.632812 76.988281 L 212.8125 83.167969 C 219.394531 89.75 219.394531 100.457031 212.8125 107.03125 L 209.742188 110.105469 C 210.570312 111.875 211.324219 113.683594 211.988281 115.523438 L 216.335938 115.523438 C 225.640625 115.523438 233.207031 123.089844 233.207031 132.398438 L 233.207031 141.140625 C 233.207031 144.0625 232.441406 146.953125 230.984375 149.492188 C 230.21875 150.824219 228.648438 151.453125 227.183594 151.019531 C 216.429688 147.84375 209.667969 143.503906 206.390625 141.003906 C 200.808594 145.285156 185.019531 154.964844 156.355469 154.964844 C 155.222656 154.964844 154.0625 154.945312 152.882812 154.917969 C 151.574219 163.066406 148.582031 188.253906 156.632812 212.609375 C 156.964844 213.617188 156.792969 214.71875 156.171875 215.578125 C 155.546875 216.4375 154.550781 216.949219 153.488281 216.949219 Z M 125.703125 186.164062 C 126.222656 186.164062 126.742188 186.285156 127.222656 186.539062 C 130.0625 188.011719 133.039062 189.25 136.078125 190.214844 C 137.445312 190.648438 138.382812 191.921875 138.382812 193.359375 L 138.382812 200.074219 C 138.382812 205.738281 142.992188 210.34375 148.652344 210.34375 L 149.023438 210.34375 C 140.636719 180.644531 146.625 152.074219 146.902344 150.816406 C 147.246094 149.242188 148.679688 148.144531 150.289062 148.214844 C 187.917969 150.027344 203.886719 134.511719 204.042969 134.359375 C 205.332031 133.066406 207.425781 133.066406 208.707031 134.359375 C 208.753906 134.402344 214.304688 139.753906 226.242188 143.800781 C 226.476562 142.941406 226.597656 142.046875 226.597656 141.144531 L 226.597656 132.402344 C 226.597656 126.738281 221.988281 122.132812 216.328125 122.132812 L 209.613281 122.132812 C 208.175781 122.132812 206.902344 121.199219 206.46875 119.828125 C 205.503906 116.789062 204.269531 113.808594 202.796875 110.976562 C 202.132812 109.699219 202.375 108.136719 203.394531 107.117188 L 208.148438 102.363281 C 212.148438 98.363281 212.148438 91.84375 208.148438 87.839844 L 201.964844 81.660156 C 197.964844 77.660156 191.445312 77.660156 187.441406 81.660156 L 182.691406 86.414062 C 181.667969 87.433594 180.109375 87.675781 178.832031 87.011719 C 175.992188 85.535156 173.011719 84.296875 169.980469 83.335938 C 168.609375 82.898438 167.675781 81.625 167.675781 80.1875 L 167.675781 73.46875 C 167.675781 67.804688 163.0625 63.199219 157.40625 63.199219 L 148.660156 63.199219 C 142.996094 63.199219 138.394531 67.808594 138.394531 73.46875 L 138.394531 80.183594 C 138.394531 81.621094 137.457031 82.894531 136.089844 83.328125 C 133.054688 84.292969 130.074219 85.527344 127.234375 87 C 125.957031 87.664062 124.398438 87.421875 123.378906 86.402344 L 118.625 81.648438 C 114.621094 77.648438 108.101562 77.648438 104.101562 81.648438 L 97.921875 87.832031 C 93.917969 91.832031 93.917969 98.351562 97.921875 102.351562 L 102.671875 107.105469 C 103.695312 108.125 103.933594 109.6875 103.269531 110.964844 C 101.789062 113.808594 100.558594 116.785156 99.59375 119.816406 C 99.160156 121.1875 97.886719 122.121094 96.445312 122.121094 L 89.722656 122.121094 C 84.058594 122.121094 79.453125 126.730469 79.453125 132.390625 L 79.453125 141.132812 C 79.453125 146.800781 84.0625 151.402344 89.722656 151.402344 L 96.4375 151.402344 C 97.875 151.402344 99.148438 152.335938 99.582031 153.707031 C 100.546875 156.746094 101.777344 159.726562 103.253906 162.558594 C 103.917969 163.839844 103.675781 165.398438 102.65625 166.417969 L 97.902344 171.171875 C 93.902344 175.175781 93.902344 181.691406 97.902344 185.695312 L 104.085938 191.875 C 108.085938 195.878906 114.605469 195.878906 118.605469 191.875 L 123.359375 187.121094 C 124.003906 186.496094 124.851562 186.164062 125.703125 186.164062 Z M 125.703125 186.164062 " fill-opacity="1" fill-rule="nonzero"/></g><path fill="#ffffff" d="M 147.941406 176.761719 C 147.789062 176.761719 147.640625 176.75 147.492188 176.734375 C 127.65625 174.011719 112.691406 156.832031 112.691406 136.777344 C 112.691406 114.535156 130.785156 96.4375 153.023438 96.4375 C 175.265625 96.4375 193.359375 114.53125 193.359375 136.777344 C 193.359375 140.367188 192.882812 143.9375 191.949219 147.382812 C 191.667969 148.425781 190.890625 149.265625 189.875 149.625 C 178.996094 153.511719 166.566406 155.289062 152.871094 154.921875 C 152.296875 158.445312 151.410156 165.140625 151.234375 173.527344 C 151.21875 174.46875 150.792969 175.359375 150.078125 175.972656 C 149.480469 176.480469 148.71875 176.761719 147.941406 176.761719 Z M 153.023438 103.035156 C 134.425781 103.035156 119.289062 118.167969 119.289062 136.769531 C 119.289062 152.296875 130.011719 165.757812 144.761719 169.480469 C 145.273438 158.464844 146.828125 151.15625 146.902344 150.8125 C 147.238281 149.234375 148.671875 148.128906 150.289062 148.210938 C 163.550781 148.847656 175.546875 147.417969 185.980469 143.972656 C 186.496094 141.617188 186.753906 139.195312 186.753906 136.769531 C 186.753906 118.171875 171.625 103.035156 153.023438 103.035156 Z M 188.761719 146.511719 Z M 188.761719 146.511719 " fill-opacity="1" fill-rule="nonzero"/><g clip-path="url(#8c6375e0cb)"><path fill="#ffffff" d="M 229.28125 310.886719 C 229.160156 310.886719 229.035156 310.878906 228.90625 310.863281 C 227.558594 310.707031 226.441406 309.746094 226.085938 308.4375 L 213.726562 262.300781 C 213.308594 260.742188 214.074219 259.113281 215.542969 258.441406 C 231.871094 250.96875 244.054688 239.164062 251.765625 223.351562 C 252.367188 222.113281 253.683594 221.386719 255.050781 221.511719 C 256.421875 221.644531 257.570312 222.613281 257.925781 223.941406 L 276.914062 294.816406 C 277.265625 296.128906 276.777344 297.519531 275.6875 298.328125 C 274.59375 299.136719 273.117188 299.1875 271.972656 298.472656 L 246.347656 282.390625 L 232.199219 309.132812 C 231.625 310.214844 230.496094 310.886719 229.28125 310.886719 Z M 220.824219 263.246094 L 230.296875 298.605469 L 242.175781 276.152344 C 242.605469 275.339844 243.351562 274.742188 244.238281 274.507812 C 245.128906 274.265625 246.074219 274.410156 246.847656 274.894531 L 268.359375 288.398438 L 253.671875 233.582031 C 245.769531 246.402344 234.753906 256.347656 220.824219 263.246094 Z M 220.824219 263.246094 " fill-opacity="1" fill-rule="nonzero"/></g><g clip-path="url(#08e5a39dc3)"><path fill="#ffffff" d="M 183.476562 310.886719 C 182.261719 310.886719 181.136719 310.214844 180.558594 309.125 L 166.40625 282.382812 L 140.785156 298.464844 C 139.632812 299.1875 138.15625 299.132812 137.070312 298.324219 C 135.972656 297.515625 135.488281 296.121094 135.84375 294.808594 L 154.832031 223.9375 C 155.1875 222.605469 156.332031 221.636719 157.703125 221.507812 C 159.078125 221.375 160.386719 222.109375 160.988281 223.347656 C 168.699219 239.160156 180.882812 250.964844 197.214844 258.4375 C 198.679688 259.105469 199.441406 260.734375 199.03125 262.292969 L 186.667969 308.429688 C 186.320312 309.746094 185.203125 310.707031 183.847656 310.855469 C 183.722656 310.878906 183.597656 310.886719 183.476562 310.886719 Z M 167.664062 274.398438 C 167.949219 274.398438 168.234375 274.433594 168.515625 274.511719 C 169.40625 274.746094 170.152344 275.34375 170.582031 276.15625 L 182.460938 298.609375 L 191.933594 263.25 C 178 256.355469 166.984375 246.40625 159.078125 233.59375 L 144.390625 288.410156 L 165.902344 274.90625 C 166.441406 274.570312 167.050781 274.398438 167.664062 274.398438 Z M 167.664062 274.398438 " fill-opacity="1" fill-rule="nonzero"/></g><path fill="#ffffff" d="M 197.867188 222.871094 C 197.023438 222.871094 196.175781 222.550781 195.53125 221.902344 L 177.898438 204.265625 C 176.605469 202.976562 176.605469 200.882812 177.898438 199.59375 C 179.1875 198.304688 181.28125 198.304688 182.570312 199.59375 L 197.871094 214.894531 L 230.199219 182.570312 C 231.488281 181.28125 233.582031 181.28125 234.871094 182.570312 C 236.160156 183.859375 236.160156 185.953125 234.871094 187.242188 L 200.207031 221.90625 C 199.558594 222.550781 198.710938 222.871094 197.867188 222.871094 Z M 197.867188 222.871094 " fill-opacity="1" fill-rule="nonzero"/></svg>