<svg xmlns="http://www.w3.org/2000/svg" xmlns:xlink="http://www.w3.org/1999/xlink" width="500" zoomAndPan="magnify" viewBox="0 0 375 374.999991" height="500" preserveAspectRatio="xMidYMid meet" version="1.0"><defs><clipPath id="f26c388949"><path d="M 0 0 L 373.800781 0 L 373.800781 375 L 0 375 Z M 0 0 " clip-rule="nonzero"/></clipPath><clipPath id="6b4056d1b9"><path d="M 186.300781 0 C 82.75 0 -1.199219 83.945312 -1.199219 187.5 C -1.199219 291.054688 82.75 375 186.300781 375 C 289.855469 375 373.800781 291.054688 373.800781 187.5 C 373.800781 83.945312 289.855469 0 186.300781 0 Z M 186.300781 0 " clip-rule="nonzero"/></clipPath><clipPath id="7473d8fc91"><path d="M 19.679688 20.875 L 352.925781 20.875 L 352.925781 354.125 L 19.679688 354.125 Z M 19.679688 20.875 " clip-rule="nonzero"/></clipPath><clipPath id="a3572c7c8c"><path d="M 186.300781 20.875 C 94.277344 20.875 19.679688 95.476562 19.679688 187.5 C 19.679688 279.523438 94.277344 354.125 186.300781 354.125 C 278.324219 354.125 352.925781 279.523438 352.925781 187.5 C 352.925781 95.476562 278.324219 20.875 186.300781 20.875 Z M 186.300781 20.875 " clip-rule="nonzero"/></clipPath><clipPath id="28c2895458"><path d="M 19.679688 20.875 L 352.679688 20.875 L 352.679688 353.875 L 19.679688 353.875 Z M 19.679688 20.875 " clip-rule="nonzero"/></clipPath><clipPath id="6f991a4569"><path d="M 186.300781 20.875 C 94.277344 20.875 19.679688 95.476562 19.679688 187.5 C 19.679688 279.523438 94.277344 354.121094 186.300781 354.121094 C 278.324219 354.121094 352.925781 279.523438 352.925781 187.5 C 352.925781 95.476562 278.324219 20.875 186.300781 20.875 Z M 186.300781 20.875 " clip-rule="nonzero"/></clipPath><clipPath id="13dc784059"><path d="M 81.128906 84 L 291.128906 84 L 291.128906 291.519531 L 81.128906 291.519531 Z M 81.128906 84 " clip-rule="nonzero"/></clipPath></defs><rect x="-37.5" width="450" fill="#ffffff" y="-37.499999" height="449.999989" fill-opacity="1"/><rect x="-37.5" width="450" fill="#ffffff" y="-37.499999" height="449.999989" fill-opacity="1"/><g clip-path="url(#f26c388949)"><g clip-path="url(#6b4056d1b9)"><path fill="#ff914d" d="M -1.199219 0 L 373.800781 0 L 373.800781 375 L -1.199219 375 Z M -1.199219 0 " fill-opacity="1" fill-rule="nonzero"/><path stroke-linecap="butt" transform="matrix(0.75, 0, 0, 0.75, -1.198078, 0.000000000000106581)" fill="none" stroke-linejoin="miter" d="M 249.99848 -0.000000000000142109 C 111.930771 -0.000000000000142109 -0.00152044 111.927084 -0.00152044 250 C -0.00152044 388.072917 111.930771 500.000001 249.99848 500.000001 C 388.071397 500.000001 499.99848 388.072917 499.99848 250 C 499.99848 111.927084 388.071397 -0.000000000000142109 249.99848 -0.000000000000142109 Z M 249.99848 -0.000000000000142109 " stroke="#000000" stroke-width="8" stroke-opacity="1" stroke-miterlimit="4"/></g></g><g clip-path="url(#7473d8fc91)"><g clip-path="url(#a3572c7c8c)"><path fill="#ff914d" d="M 19.679688 20.875 L 352.925781 20.875 L 352.925781 354.125 L 19.679688 354.125 Z M 19.679688 20.875 " fill-opacity="1" fill-rule="nonzero"/></g></g><g clip-path="url(#28c2895458)"><g clip-path="url(#6f991a4569)"><path stroke-linecap="butt" transform="matrix(0.75, 0, 0, 0.75, 19.678518, 20.876595)" fill="none" stroke-linejoin="miter" d="M 222.163032 -0.00212628 C 99.465107 -0.00212628 0.0015589 99.46663 0.0015589 222.164555 C 0.0015589 344.86248 99.465107 444.326028 222.163032 444.326028 C 344.860957 444.326028 444.329713 344.86248 444.329713 222.164555 C 444.329713 99.46663 344.860957 -0.00212628 222.163032 -0.00212628 Z M 222.163032 -0.00212628 " stroke="#ffffff" stroke-width="8" stroke-opacity="1" stroke-miterlimit="4"/></g></g><g clip-path="url(#13dc784059)"><path fill="#ffffff" d="M 179.199219 242.535156 C 179.199219 242.152344 179.273438 241.785156 179.417969 241.433594 C 179.566406 241.082031 179.773438 240.769531 180.042969 240.5 C 180.3125 240.230469 180.625 240.023438 180.976562 239.878906 C 181.328125 239.730469 181.695312 239.660156 182.074219 239.660156 L 190.515625 239.660156 C 190.898438 239.660156 191.265625 239.730469 191.617188 239.878906 C 191.96875 240.023438 192.28125 240.230469 192.550781 240.5 C 192.820312 240.769531 193.027344 241.082031 193.171875 241.433594 C 193.320312 241.785156 193.390625 242.152344 193.390625 242.535156 C 193.390625 242.914062 193.320312 243.28125 193.171875 243.632812 C 193.027344 243.984375 192.820312 244.296875 192.550781 244.566406 C 192.28125 244.835938 191.96875 245.042969 191.617188 245.191406 C 191.265625 245.335938 190.898438 245.410156 190.515625 245.410156 L 182.074219 245.410156 C 181.695312 245.410156 181.328125 245.335938 180.976562 245.191406 C 180.625 245.042969 180.3125 244.835938 180.042969 244.566406 C 179.773438 244.296875 179.566406 243.984375 179.417969 243.632812 C 179.273438 243.28125 179.199219 242.914062 179.199219 242.535156 Z M 291.441406 125.625 L 291.441406 245.863281 C 291.441406 246.617188 291.367188 247.363281 291.21875 248.101562 C 291.070312 248.84375 290.851562 249.558594 290.5625 250.257812 C 290.273438 250.953125 289.917969 251.613281 289.5 252.238281 C 289.082031 252.867188 288.605469 253.445312 288.070312 253.980469 C 287.539062 254.511719 286.957031 254.988281 286.332031 255.40625 C 285.703125 255.824219 285.042969 256.179688 284.34375 256.46875 C 283.648438 256.757812 282.929688 256.972656 282.191406 257.121094 C 281.453125 257.269531 280.707031 257.34375 279.953125 257.34375 L 208.421875 257.34375 L 208.421875 273.128906 L 211.683594 273.128906 C 212.277344 273.128906 212.863281 273.1875 213.445312 273.304688 C 214.027344 273.421875 214.589844 273.59375 215.140625 273.820312 C 215.6875 274.046875 216.207031 274.324219 216.699219 274.65625 C 217.195312 274.984375 217.648438 275.359375 218.070312 275.78125 C 218.488281 276.199219 218.863281 276.65625 219.191406 277.148438 C 219.523438 277.640625 219.800781 278.160156 220.027344 278.710938 C 220.253906 279.257812 220.425781 279.824219 220.542969 280.402344 C 220.660156 280.984375 220.71875 281.574219 220.71875 282.167969 L 220.71875 288.328125 C 220.71875 288.707031 220.644531 289.074219 220.5 289.425781 C 220.355469 289.78125 220.144531 290.089844 219.875 290.359375 C 219.605469 290.628906 219.296875 290.835938 218.945312 290.984375 C 218.589844 291.128906 218.222656 291.203125 217.84375 291.203125 L 154.753906 291.203125 C 154.371094 291.203125 154.003906 291.128906 153.652344 290.984375 C 153.300781 290.835938 152.988281 290.628906 152.71875 290.359375 C 152.449219 290.089844 152.242188 289.78125 152.097656 289.425781 C 151.953125 289.074219 151.878906 288.707031 151.878906 288.328125 L 151.878906 282.167969 C 151.878906 281.574219 151.9375 280.984375 152.054688 280.402344 C 152.167969 279.824219 152.339844 279.257812 152.570312 278.710938 C 152.796875 278.160156 153.074219 277.640625 153.402344 277.148438 C 153.734375 276.65625 154.109375 276.199219 154.527344 275.78125 C 154.945312 275.359375 155.402344 274.984375 155.894531 274.65625 C 156.390625 274.324219 156.910156 274.046875 157.457031 273.820312 C 158.003906 273.59375 158.570312 273.421875 159.152344 273.304688 C 159.734375 273.1875 160.320312 273.128906 160.914062 273.128906 L 164.175781 273.128906 L 164.175781 257.34375 L 92.632812 257.34375 C 91.878906 257.34375 91.132812 257.269531 90.390625 257.121094 C 89.652344 256.972656 88.9375 256.753906 88.238281 256.464844 C 87.542969 256.175781 86.882812 255.824219 86.257812 255.40625 C 85.628906 254.984375 85.050781 254.511719 84.515625 253.976562 C 83.984375 253.445312 83.507812 252.863281 83.089844 252.238281 C 82.671875 251.613281 82.316406 250.949219 82.027344 250.253906 C 81.738281 249.558594 81.523438 248.839844 81.375 248.101562 C 81.226562 247.363281 81.152344 246.617188 81.152344 245.863281 L 81.152344 125.625 C 81.152344 124.871094 81.226562 124.125 81.375 123.386719 C 81.523438 122.648438 81.738281 121.929688 82.027344 121.234375 C 82.316406 120.539062 82.671875 119.875 83.089844 119.25 C 83.507812 118.625 83.984375 118.042969 84.519531 117.511719 C 85.050781 116.976562 85.628906 116.503906 86.257812 116.082031 C 86.882812 115.664062 87.542969 115.3125 88.238281 115.023438 C 88.9375 114.734375 89.652344 114.515625 90.390625 114.367188 C 91.132812 114.21875 91.878906 114.144531 92.632812 114.144531 L 251.152344 114.144531 C 254.5625 109.511719 257.628906 105.457031 260.351562 101.976562 C 265.082031 95.925781 268.730469 91.652344 271.503906 88.914062 C 274.328125 86.125 277.316406 83.761719 280.054688 85.332031 C 283.144531 87.113281 282.09375 91.628906 280.753906 96.101562 C 279.480469 100.351562 277.25 106.261719 273.9375 114.144531 L 279.949219 114.144531 C 280.703125 114.144531 281.449219 114.21875 282.191406 114.367188 C 282.929688 114.515625 283.648438 114.730469 284.34375 115.019531 C 285.039062 115.308594 285.703125 115.664062 286.328125 116.082031 C 286.957031 116.5 287.535156 116.976562 288.070312 117.507812 C 288.601562 118.042969 289.078125 118.621094 289.5 119.246094 C 289.917969 119.875 290.273438 120.535156 290.5625 121.230469 C 290.851562 121.925781 291.070312 122.644531 291.21875 123.382812 C 291.367188 124.125 291.441406 124.871094 291.441406 125.625 Z M 255.035156 118.574219 C 254.96875 118.679688 254.894531 118.777344 254.816406 118.871094 C 248.214844 127.867188 240.335938 138.980469 231.027344 152.429688 L 246.261719 161.230469 C 255.710938 141.167969 262.222656 126.890625 266.925781 115.9375 C 266.9375 115.910156 266.949219 115.882812 266.964844 115.855469 C 267.019531 115.722656 267.074219 115.589844 267.132812 115.460938 C 272.519531 102.890625 274.8125 96.273438 275.738281 92.792969 C 273.429688 95.0625 269.417969 99.574219 262.546875 108.539062 C 260.253906 111.53125 257.75 114.875 255.035156 118.574219 Z M 241.726562 170.835938 C 242.433594 169.347656 243.125 167.882812 243.800781 166.449219 L 227.75 157.179688 C 226.84375 158.492188 225.929688 159.824219 224.996094 161.179688 Z M 220.609375 165.285156 C 215.761719 167.382812 214.972656 171.320312 213.980469 178.265625 C 213.0625 184.6875 211.957031 192.425781 204.882812 198.429688 C 216.164062 201.957031 224.207031 198.648438 229.167969 194.9375 C 236.4375 189.5 240.042969 181.238281 240.203125 176.597656 Z M 160.910156 278.878906 C 160.476562 278.878906 160.058594 278.964844 159.65625 279.132812 C 159.253906 279.296875 158.898438 279.535156 158.589844 279.84375 C 158.285156 280.152344 158.046875 280.503906 157.878906 280.90625 C 157.710938 281.308594 157.628906 281.726562 157.628906 282.164062 L 157.628906 285.445312 L 214.964844 285.445312 L 214.964844 282.164062 C 214.964844 281.726562 214.882812 281.308594 214.714844 280.90625 C 214.546875 280.503906 214.3125 280.152344 214.003906 279.84375 C 213.695312 279.535156 213.339844 279.296875 212.9375 279.132812 C 212.535156 278.964844 212.117188 278.878906 211.683594 278.878906 Z M 202.671875 273.128906 L 202.671875 257.34375 L 169.921875 257.34375 L 169.921875 273.128906 Z M 285.691406 233.488281 L 86.902344 233.488281 L 86.902344 245.863281 C 86.902344 246.238281 86.9375 246.613281 87.011719 246.980469 C 87.085938 247.347656 87.195312 247.707031 87.339844 248.054688 C 87.484375 248.402344 87.660156 248.730469 87.867188 249.042969 C 88.078125 249.355469 88.316406 249.644531 88.582031 249.910156 C 88.847656 250.175781 89.136719 250.414062 89.449219 250.625 C 89.761719 250.832031 90.089844 251.007812 90.4375 251.152344 C 90.785156 251.296875 91.144531 251.40625 91.511719 251.480469 C 91.882812 251.554688 92.253906 251.589844 92.628906 251.589844 L 279.953125 251.589844 C 280.328125 251.589844 280.699219 251.554688 281.070312 251.480469 C 281.4375 251.40625 281.796875 251.300781 282.144531 251.15625 C 282.492188 251.011719 282.824219 250.835938 283.136719 250.625 C 283.449219 250.417969 283.738281 250.179688 284.007812 249.914062 C 284.273438 249.648438 284.511719 249.359375 284.722656 249.046875 C 284.929688 248.734375 285.109375 248.402344 285.253906 248.054688 C 285.398438 247.707031 285.507812 247.351562 285.582031 246.980469 C 285.652344 246.613281 285.691406 246.238281 285.691406 245.863281 Z M 285.691406 125.625 C 285.691406 125.246094 285.652344 124.875 285.582031 124.507812 C 285.507812 124.136719 285.398438 123.777344 285.253906 123.429688 C 285.109375 123.082031 284.929688 122.753906 284.722656 122.441406 C 284.511719 122.128906 284.273438 121.839844 284.007812 121.574219 C 283.742188 121.308594 283.449219 121.070312 283.136719 120.859375 C 282.824219 120.652344 282.496094 120.476562 282.144531 120.332031 C 281.796875 120.1875 281.441406 120.078125 281.070312 120.007812 C 280.703125 119.933594 280.328125 119.894531 279.953125 119.894531 L 271.480469 119.894531 C 266.609375 131.148438 259.824219 145.960938 250.222656 166.316406 C 250.167969 166.457031 250.105469 166.59375 250.027344 166.726562 L 250.023438 166.734375 C 248.710938 169.519531 247.34375 172.40625 245.925781 175.394531 C 246.335938 182.09375 241.566406 192.847656 232.609375 199.546875 C 229.96875 201.554688 227.074219 203.089844 223.925781 204.148438 C 220.78125 205.203125 217.546875 205.730469 214.230469 205.726562 C 209.359375 205.726562 203.800781 204.613281 197.554688 201.761719 C 197.058594 201.535156 196.660156 201.195312 196.355469 200.742188 C 196.054688 200.289062 195.894531 199.792969 195.875 199.25 C 195.855469 198.703125 195.980469 198.195312 196.25 197.722656 C 196.519531 197.25 196.890625 196.882812 197.367188 196.621094 C 206.242188 191.773438 207.234375 184.816406 208.285156 177.453125 C 209.25 170.710938 210.339844 163.097656 219.019531 159.722656 C 220.855469 157.050781 222.640625 154.457031 224.375 151.941406 C 224.378906 151.933594 224.382812 151.925781 224.386719 151.917969 C 224.464844 151.785156 224.554688 151.65625 224.652344 151.539062 C 233.207031 139.152344 240.609375 128.648438 246.949219 119.898438 L 92.632812 119.898438 C 92.253906 119.898438 91.882812 119.933594 91.515625 120.007812 C 91.144531 120.082031 90.789062 120.191406 90.441406 120.335938 C 90.09375 120.480469 89.761719 120.65625 89.449219 120.863281 C 89.136719 121.074219 88.847656 121.308594 88.582031 121.578125 C 88.316406 121.84375 88.078125 122.132812 87.871094 122.445312 C 87.660156 122.757812 87.484375 123.085938 87.339844 123.433594 C 87.195312 123.78125 87.085938 124.136719 87.011719 124.507812 C 86.9375 124.875 86.902344 125.25 86.902344 125.625 L 86.902344 227.738281 L 285.691406 227.738281 Z M 185.023438 134.554688 L 185.023438 214.570312 C 185.023438 214.949219 184.949219 215.316406 184.804688 215.667969 C 184.660156 216.023438 184.453125 216.332031 184.183594 216.601562 C 183.914062 216.871094 183.601562 217.078125 183.25 217.226562 C 182.898438 217.371094 182.53125 217.445312 182.148438 217.445312 L 99.894531 217.445312 C 99.515625 217.445312 99.148438 217.371094 98.796875 217.226562 C 98.441406 217.078125 98.132812 216.871094 97.863281 216.601562 C 97.59375 216.332031 97.386719 216.023438 97.238281 215.667969 C 97.09375 215.316406 97.019531 214.949219 97.019531 214.570312 L 97.019531 134.554688 C 97.019531 134.171875 97.09375 133.804688 97.238281 133.453125 C 97.386719 133.101562 97.59375 132.789062 97.863281 132.519531 C 98.132812 132.25 98.441406 132.042969 98.796875 131.898438 C 99.148438 131.75 99.515625 131.679688 99.894531 131.679688 L 182.148438 131.679688 C 182.53125 131.679688 182.898438 131.75 183.25 131.898438 C 183.601562 132.042969 183.914062 132.25 184.183594 132.519531 C 184.453125 132.789062 184.660156 133.101562 184.804688 133.453125 C 184.949219 133.804688 185.023438 134.171875 185.023438 134.554688 Z M 151.613281 211.695312 L 131.605469 189.699219 L 131.589844 189.675781 L 121.890625 179.019531 C 121.65625 178.757812 121.375 178.554688 121.054688 178.410156 C 120.734375 178.269531 120.398438 178.195312 120.042969 178.195312 C 119.691406 178.195312 119.355469 178.265625 119.035156 178.410156 C 118.710938 178.550781 118.433594 178.753906 118.195312 179.015625 L 102.769531 195.972656 L 102.769531 211.695312 Z M 179.269531 195.960938 L 156.5625 171.007812 C 156.324219 170.75 156.046875 170.546875 155.726562 170.40625 C 155.402344 170.265625 155.066406 170.195312 154.71875 170.195312 C 154.367188 170.195312 154.03125 170.265625 153.710938 170.40625 C 153.386719 170.546875 153.109375 170.75 152.875 171.007812 L 137.625 187.769531 L 159.386719 211.695312 L 179.269531 211.695312 Z M 179.269531 137.429688 L 102.769531 137.429688 L 102.769531 187.425781 L 113.9375 175.148438 C 114.324219 174.722656 114.75 174.339844 115.21875 174.003906 C 115.683594 173.667969 116.179688 173.382812 116.707031 173.148438 C 117.230469 172.914062 117.777344 172.738281 118.339844 172.621094 C 118.902344 172.5 119.46875 172.441406 120.042969 172.441406 C 120.621094 172.441406 121.1875 172.503906 121.75 172.621094 C 122.3125 172.742188 122.859375 172.917969 123.382812 173.152344 C 123.910156 173.382812 124.40625 173.667969 124.871094 174.007812 C 125.335938 174.34375 125.761719 174.726562 126.148438 175.152344 L 133.738281 183.496094 L 148.621094 167.136719 C 149.007812 166.710938 149.433594 166.332031 149.898438 165.996094 C 150.363281 165.660156 150.859375 165.378906 151.386719 165.144531 C 151.910156 164.914062 152.453125 164.738281 153.015625 164.621094 C 153.574219 164.5 154.144531 164.441406 154.71875 164.441406 C 155.292969 164.441406 155.859375 164.5 156.421875 164.621094 C 156.984375 164.738281 157.527344 164.914062 158.050781 165.144531 C 158.574219 165.378906 159.070312 165.660156 159.535156 165.996094 C 160.003906 166.332031 160.429688 166.710938 160.816406 167.136719 L 179.269531 187.417969 Z M 110.640625 152.597656 C 110.640625 152.0625 110.695312 151.53125 110.796875 151.003906 C 110.902344 150.476562 111.058594 149.964844 111.265625 149.472656 C 111.46875 148.976562 111.722656 148.503906 112.019531 148.058594 C 112.316406 147.613281 112.65625 147.199219 113.035156 146.820312 C 113.414062 146.441406 113.828125 146.101562 114.273438 145.800781 C 114.71875 145.503906 115.191406 145.253906 115.6875 145.046875 C 116.183594 144.84375 116.695312 144.6875 117.21875 144.582031 C 117.746094 144.476562 118.277344 144.425781 118.816406 144.425781 C 119.351562 144.425781 119.882812 144.476562 120.410156 144.582031 C 120.9375 144.6875 121.445312 144.84375 121.941406 145.046875 C 122.4375 145.253906 122.910156 145.503906 123.355469 145.800781 C 123.800781 146.101562 124.214844 146.441406 124.59375 146.820312 C 124.972656 147.199219 125.3125 147.613281 125.609375 148.058594 C 125.910156 148.503906 126.160156 148.976562 126.367188 149.472656 C 126.570312 149.964844 126.726562 150.476562 126.832031 151.003906 C 126.9375 151.53125 126.988281 152.0625 126.988281 152.597656 C 126.988281 153.136719 126.9375 153.667969 126.832031 154.191406 C 126.726562 154.71875 126.570312 155.230469 126.367188 155.726562 C 126.160156 156.222656 125.910156 156.691406 125.609375 157.140625 C 125.3125 157.585938 124.972656 158 124.59375 158.378906 C 124.214844 158.757812 123.800781 159.097656 123.355469 159.394531 C 122.910156 159.691406 122.4375 159.945312 121.941406 160.148438 C 121.445312 160.355469 120.9375 160.511719 120.410156 160.613281 C 119.882812 160.71875 119.351562 160.773438 118.816406 160.773438 C 118.277344 160.773438 117.746094 160.71875 117.222656 160.613281 C 116.695312 160.507812 116.183594 160.351562 115.6875 160.148438 C 115.191406 159.941406 114.722656 159.691406 114.277344 159.390625 C 113.832031 159.09375 113.417969 158.753906 113.039062 158.375 C 112.660156 157.996094 112.320312 157.582031 112.023438 157.136719 C 111.722656 156.691406 111.472656 156.222656 111.265625 155.726562 C 111.058594 155.230469 110.90625 154.71875 110.800781 154.191406 C 110.695312 153.667969 110.640625 153.136719 110.640625 152.597656 Z M 116.390625 152.597656 C 116.390625 152.917969 116.453125 153.226562 116.578125 153.523438 C 116.699219 153.820312 116.875 154.082031 117.101562 154.308594 C 117.328125 154.535156 117.589844 154.710938 117.886719 154.835938 C 118.183594 154.957031 118.492188 155.019531 118.8125 155.019531 C 119.136719 155.019531 119.445312 154.957031 119.742188 154.832031 C 120.039062 154.710938 120.300781 154.535156 120.527344 154.308594 C 120.753906 154.082031 120.925781 153.820312 121.050781 153.523438 C 121.171875 153.226562 121.234375 152.917969 121.234375 152.597656 C 121.234375 152.273438 121.171875 151.964844 121.050781 151.667969 C 120.925781 151.371094 120.75 151.109375 120.523438 150.882812 C 120.296875 150.65625 120.035156 150.484375 119.738281 150.359375 C 119.441406 150.238281 119.132812 150.175781 118.8125 150.175781 C 118.492188 150.175781 118.183594 150.238281 117.886719 150.359375 C 117.589844 150.484375 117.328125 150.660156 117.101562 150.886719 C 116.875 151.113281 116.699219 151.375 116.574219 151.671875 C 116.453125 151.96875 116.390625 152.277344 116.390625 152.597656 Z M 116.390625 152.597656 " fill-opacity="1" fill-rule="nonzero"/></g></svg>