<svg xmlns="http://www.w3.org/2000/svg" xmlns:xlink="http://www.w3.org/1999/xlink" width="500" zoomAndPan="magnify" viewBox="0 0 375 374.999991" height="500" preserveAspectRatio="xMidYMid meet" version="1.0"><defs><clipPath id="4e545f3d6e"><path d="M 0 0 L 373.800781 0 L 373.800781 375 L 0 375 Z M 0 0 " clip-rule="nonzero"/></clipPath><clipPath id="51deeb6425"><path d="M 186.300781 0 C 82.75 0 -1.199219 83.945312 -1.199219 187.5 C -1.199219 291.054688 82.75 375 186.300781 375 C 289.855469 375 373.800781 291.054688 373.800781 187.5 C 373.800781 83.945312 289.855469 0 186.300781 0 Z M 186.300781 0 " clip-rule="nonzero"/></clipPath><clipPath id="9e7a8cafdc"><path d="M 19.679688 20.875 L 352.925781 20.875 L 352.925781 354.125 L 19.679688 354.125 Z M 19.679688 20.875 " clip-rule="nonzero"/></clipPath><clipPath id="4152c30624"><path d="M 186.300781 20.875 C 94.277344 20.875 19.679688 95.476562 19.679688 187.5 C 19.679688 279.523438 94.277344 354.125 186.300781 354.125 C 278.324219 354.125 352.925781 279.523438 352.925781 187.5 C 352.925781 95.476562 278.324219 20.875 186.300781 20.875 Z M 186.300781 20.875 " clip-rule="nonzero"/></clipPath><clipPath id="a7e96efa9c"><path d="M 19.679688 20.875 L 352.679688 20.875 L 352.679688 353.875 L 19.679688 353.875 Z M 19.679688 20.875 " clip-rule="nonzero"/></clipPath><clipPath id="1bed6eae00"><path d="M 186.300781 20.875 C 94.277344 20.875 19.679688 95.476562 19.679688 187.5 C 19.679688 279.523438 94.277344 354.121094 186.300781 354.121094 C 278.324219 354.121094 352.925781 279.523438 352.925781 187.5 C 352.925781 95.476562 278.324219 20.875 186.300781 20.875 Z M 186.300781 20.875 " clip-rule="nonzero"/></clipPath><clipPath id="34e5c1b888"><path d="M 77 79.203125 L 305 79.203125 L 305 306.453125 L 77 306.453125 Z M 77 79.203125 " clip-rule="nonzero"/></clipPath></defs><rect x="-37.5" width="450" fill="#ffffff" y="-37.499999" height="449.999989" fill-opacity="1"/><rect x="-37.5" width="450" fill="#ffffff" y="-37.499999" height="449.999989" fill-opacity="1"/><g clip-path="url(#4e545f3d6e)"><g clip-path="url(#51deeb6425)"><path fill="#ff914d" d="M -1.199219 0 L 373.800781 0 L 373.800781 375 L -1.199219 375 Z M -1.199219 0 " fill-opacity="1" fill-rule="nonzero"/><path stroke-linecap="butt" transform="matrix(0.75, 0, 0, 0.75, -1.198078, 0.000000000000106581)" fill="none" stroke-linejoin="miter" d="M 249.99848 -0.000000000000142109 C 111.930771 -0.000000000000142109 -0.00152044 111.927084 -0.00152044 250 C -0.00152044 388.072917 111.930771 500.000001 249.99848 500.000001 C 388.071397 500.000001 499.99848 388.072917 499.99848 250 C 499.99848 111.927084 388.071397 -0.000000000000142109 249.99848 -0.000000000000142109 Z M 249.99848 -0.000000000000142109 " stroke="#000000" stroke-width="8" stroke-opacity="1" stroke-miterlimit="4"/></g></g><g clip-path="url(#9e7a8cafdc)"><g clip-path="url(#4152c30624)"><path fill="#ff914d" d="M 19.679688 20.875 L 352.925781 20.875 L 352.925781 354.125 L 19.679688 354.125 Z M 19.679688 20.875 " fill-opacity="1" fill-rule="nonzero"/></g></g><g clip-path="url(#a7e96efa9c)"><g clip-path="url(#1bed6eae00)"><path stroke-linecap="butt" transform="matrix(0.75, 0, 0, 0.75, 19.678518, 20.876595)" fill="none" stroke-linejoin="miter" d="M 222.163032 -0.00212628 C 99.465107 -0.00212628 0.0015589 99.46663 0.0015589 222.164555 C 0.0015589 344.86248 99.465107 444.326028 222.163032 444.326028 C 344.860957 444.326028 444.329713 344.86248 444.329713 222.164555 C 444.329713 99.46663 344.860957 -0.00212628 222.163032 -0.00212628 Z M 222.163032 -0.00212628 " stroke="#ffffff" stroke-width="8" stroke-opacity="1" stroke-miterlimit="4"/></g></g><g clip-path="url(#34e5c1b888)"><path fill="#ffffff" d="M 259.839844 121.035156 C 268.273438 121.035156 275.132812 114.175781 275.132812 105.742188 C 275.132812 97.3125 268.273438 90.453125 259.839844 90.453125 C 251.410156 90.453125 244.546875 97.3125 244.546875 105.742188 C 244.546875 114.175781 251.40625 121.035156 259.839844 121.035156 Z M 259.839844 96.894531 C 264.71875 96.894531 268.691406 100.863281 268.691406 105.742188 C 268.691406 110.621094 264.71875 114.59375 259.839844 114.59375 C 254.960938 114.59375 250.988281 110.621094 250.988281 105.742188 C 250.988281 100.863281 254.960938 96.894531 259.839844 96.894531 Z M 92.183594 150.886719 C 92.183594 134.710938 105.34375 121.550781 121.523438 121.550781 C 137.699219 121.550781 150.859375 134.710938 150.859375 150.886719 C 150.859375 154.117188 149.203125 158.621094 141.300781 161.753906 C 140.910156 161.90625 140.507812 161.980469 140.113281 161.980469 C 138.832031 161.980469 137.621094 161.207031 137.117188 159.945312 C 136.464844 158.289062 137.273438 156.417969 138.925781 155.761719 C 140.976562 154.949219 144.421875 153.238281 144.421875 150.886719 C 144.421875 138.261719 134.148438 127.992188 121.523438 127.992188 C 108.898438 127.992188 98.625 138.261719 98.625 150.886719 C 98.625 153.234375 102.066406 154.949219 104.117188 155.761719 C 105.773438 156.417969 106.582031 158.289062 105.925781 159.945312 C 105.269531 161.597656 103.398438 162.40625 101.746094 161.753906 C 93.839844 158.621094 92.183594 154.117188 92.183594 150.886719 Z M 230.5 150.886719 C 230.5 134.710938 243.660156 121.550781 259.839844 121.550781 C 276.019531 121.550781 289.179688 134.710938 289.179688 150.886719 C 289.179688 154.117188 287.519531 158.621094 279.617188 161.753906 C 279.226562 161.90625 278.824219 161.980469 278.433594 161.980469 C 277.148438 161.980469 275.9375 161.207031 275.4375 159.945312 C 274.78125 158.289062 275.589844 156.417969 277.246094 155.761719 C 279.296875 154.949219 282.738281 153.238281 282.738281 150.886719 C 282.738281 138.261719 272.464844 127.992188 259.839844 127.992188 C 247.214844 127.992188 236.941406 138.261719 236.941406 150.886719 C 236.941406 153.234375 240.382812 154.949219 242.433594 155.761719 C 244.089844 156.417969 244.898438 158.289062 244.242188 159.945312 C 243.585938 161.597656 241.714844 162.40625 240.0625 161.753906 C 232.160156 158.621094 230.5 154.117188 230.5 150.886719 Z M 157.023438 149.097656 C 157.023438 130.542969 172.121094 115.445312 190.683594 115.445312 C 209.238281 115.445312 224.335938 130.542969 224.335938 149.097656 C 224.335938 152.996094 222.164062 158.378906 211.804688 161.898438 C 211.460938 162.015625 211.109375 162.070312 210.765625 162.070312 C 209.425781 162.070312 208.171875 161.226562 207.71875 159.886719 C 207.144531 158.203125 208.046875 156.371094 209.730469 155.800781 C 212.183594 154.964844 217.894531 152.640625 217.894531 149.097656 C 217.894531 134.09375 205.6875 121.886719 190.683594 121.886719 C 175.675781 121.886719 163.464844 134.09375 163.464844 149.097656 C 163.464844 152.640625 169.175781 154.964844 171.628906 155.800781 C 173.316406 156.371094 174.214844 158.203125 173.644531 159.886719 C 173.070312 161.570312 171.242188 162.472656 169.558594 161.898438 C 159.199219 158.378906 157.023438 152.996094 157.023438 149.097656 Z M 303.484375 226 C 301.878906 221.269531 298.046875 217.832031 292.699219 216.328125 C 286.953125 214.714844 279.480469 215.234375 270.5 217.878906 L 229.695312 229.878906 C 227.589844 225.613281 223.726562 222.238281 218.777344 220.917969 L 189.753906 213.164062 C 168.535156 198.320312 157.175781 202.601562 140.46875 210.785156 C 131.230469 215.3125 121.871094 219.753906 112.339844 224.257812 L 111.589844 222.550781 C 109.390625 217.554688 103.535156 215.273438 98.53125 217.464844 L 82.984375 224.285156 C 80.546875 225.355469 78.675781 227.300781 77.714844 229.761719 C 76.757812 232.222656 76.820312 234.917969 77.890625 237.355469 L 105.703125 300.582031 C 107.332031 304.289062 110.976562 306.5 114.792969 306.5 C 116.121094 306.5 117.46875 306.234375 118.757812 305.667969 L 134.308594 298.847656 C 136.746094 297.777344 138.617188 295.832031 139.574219 293.371094 C 140.535156 290.910156 140.472656 288.210938 139.398438 285.777344 L 136.6875 279.605469 L 150.5625 272.847656 C 154.28125 271.035156 158.023438 270.714844 161.996094 271.863281 L 194.617188 281.3125 C 197.019531 282.007812 199.5 282.304688 202.011719 282.304688 C 210.699219 282.304688 219.800781 278.753906 227.449219 275.769531 C 228.125 275.507812 228.785156 275.25 229.433594 275 L 290.628906 251.367188 C 300.5625 247.527344 306.691406 235.4375 303.484375 226 Z M 133.574219 291.035156 C 133.238281 291.890625 132.582031 292.570312 131.722656 292.949219 L 116.171875 299.769531 C 114.421875 300.539062 112.367188 299.738281 111.597656 297.988281 L 83.789062 234.761719 C 83.410156 233.902344 83.382812 232.957031 83.71875 232.097656 C 84.050781 231.242188 84.710938 230.5625 85.570312 230.183594 L 101.121094 223.363281 C 101.574219 223.164062 102.042969 223.070312 102.507812 223.070312 C 103.84375 223.070312 105.121094 223.847656 105.695312 225.144531 L 133.503906 288.371094 C 133.882812 289.230469 133.90625 290.175781 133.574219 291.035156 Z M 288.308594 245.355469 L 227.113281 268.992188 C 226.457031 269.242188 225.789062 269.503906 225.109375 269.769531 C 216.152344 273.261719 205 277.609375 196.410156 275.125 L 163.785156 265.675781 C 158.285156 264.085938 152.886719 264.546875 147.742188 267.054688 L 134.089844 273.707031 L 114.933594 230.15625 C 124.542969 225.617188 133.976562 221.136719 143.304688 216.566406 C 158.882812 208.933594 167.878906 205.566406 186.507812 218.753906 C 186.820312 218.976562 187.167969 219.140625 187.535156 219.238281 L 217.117188 227.140625 C 222.796875 228.65625 226.179688 234.511719 224.664062 240.191406 C 223.148438 245.867188 217.289062 249.253906 211.617188 247.738281 L 172.304688 237.234375 C 170.585938 236.773438 168.820312 237.796875 168.359375 239.515625 C 167.902344 241.234375 168.921875 243 170.640625 243.457031 L 209.953125 253.960938 C 214.351562 255.132812 218.957031 254.519531 222.917969 252.226562 C 226.882812 249.933594 229.714844 246.25 230.886719 241.851562 C 231.402344 239.921875 231.566406 237.976562 231.414062 236.089844 L 272.316406 224.058594 C 285.8125 220.085938 295.183594 221.585938 297.386719 228.070312 C 299.472656 234.21875 294.976562 242.78125 288.308594 245.355469 Z M 190.683594 113.777344 C 200.214844 113.777344 207.96875 106.023438 207.96875 96.492188 C 207.96875 86.960938 200.214844 79.203125 190.683594 79.203125 C 181.148438 79.203125 173.394531 86.960938 173.394531 96.492188 C 173.394531 106.023438 181.148438 113.777344 190.683594 113.777344 Z M 190.683594 85.644531 C 196.664062 85.644531 201.527344 90.511719 201.527344 96.488281 C 201.527344 102.46875 196.664062 107.335938 190.683594 107.335938 C 184.703125 107.335938 179.835938 102.46875 179.835938 96.488281 C 179.835938 90.511719 184.703125 85.644531 190.683594 85.644531 Z M 121.523438 121.035156 C 129.953125 121.035156 136.816406 114.175781 136.816406 105.742188 C 136.816406 97.3125 129.953125 90.453125 121.523438 90.453125 C 113.089844 90.453125 106.230469 97.3125 106.230469 105.742188 C 106.230469 114.175781 113.089844 121.035156 121.523438 121.035156 Z M 121.523438 96.894531 C 126.402344 96.894531 130.375 100.863281 130.375 105.742188 C 130.375 110.621094 126.402344 114.59375 121.523438 114.59375 C 116.640625 114.59375 112.671875 110.621094 112.671875 105.742188 C 112.671875 100.863281 116.640625 96.894531 121.523438 96.894531 Z M 288.601562 167.683594 C 288.191406 166.425781 287.054688 165.546875 285.734375 165.464844 L 268.984375 164.441406 L 262.835938 148.828125 C 262.351562 147.597656 261.164062 146.789062 259.839844 146.789062 C 258.515625 146.789062 257.328125 147.597656 256.84375 148.828125 L 250.695312 164.441406 L 233.945312 165.464844 C 232.625 165.546875 231.488281 166.425781 231.078125 167.683594 C 230.667969 168.941406 231.070312 170.324219 232.09375 171.164062 L 245.042969 181.835938 L 240.839844 198.082031 C 240.507812 199.363281 240.992188 200.71875 242.0625 201.496094 C 243.132812 202.273438 244.574219 202.316406 245.6875 201.605469 L 259.839844 192.589844 L 273.992188 201.605469 C 274.519531 201.945312 275.121094 202.113281 275.722656 202.113281 C 276.386719 202.113281 277.054688 201.90625 277.617188 201.496094 C 278.6875 200.71875 279.171875 199.363281 278.839844 198.082031 L 274.636719 181.835938 L 287.585938 171.164062 C 288.609375 170.324219 289.011719 168.941406 288.601562 167.683594 Z M 268.957031 178.171875 C 267.988281 178.96875 267.574219 180.253906 267.886719 181.464844 L 270.554688 191.777344 L 261.570312 186.054688 C 260.515625 185.378906 259.164062 185.378906 258.109375 186.054688 L 249.125 191.777344 L 251.792969 181.464844 C 252.105469 180.253906 251.6875 178.96875 250.722656 178.171875 L 242.5 171.394531 L 253.136719 170.746094 C 254.386719 170.671875 255.476562 169.875 255.9375 168.710938 L 259.839844 158.796875 L 263.742188 168.710938 C 264.203125 169.875 265.292969 170.671875 266.542969 170.746094 L 277.179688 171.394531 Z M 150.285156 167.683594 C 149.875 166.425781 148.738281 165.546875 147.417969 165.464844 L 130.667969 164.441406 L 124.519531 148.828125 C 124.035156 147.597656 122.84375 146.789062 121.523438 146.789062 C 120.199219 146.789062 119.011719 147.597656 118.523438 148.828125 L 112.375 164.441406 L 95.628906 165.464844 C 94.308594 165.546875 93.167969 166.425781 92.761719 167.683594 C 92.351562 168.941406 92.753906 170.324219 93.773438 171.164062 L 106.726562 181.835938 L 102.523438 198.085938 C 102.191406 199.363281 102.675781 200.71875 103.746094 201.496094 C 104.816406 202.273438 106.253906 202.316406 107.371094 201.605469 L 121.523438 192.589844 L 135.675781 201.605469 C 136.203125 201.945312 136.804688 202.113281 137.40625 202.113281 C 138.070312 202.113281 138.734375 201.90625 139.296875 201.496094 C 140.367188 200.71875 140.855469 199.363281 140.523438 198.082031 L 136.320312 181.835938 L 149.269531 171.164062 C 150.289062 170.324219 150.691406 168.941406 150.285156 167.683594 Z M 130.640625 178.171875 C 129.671875 178.96875 129.253906 180.253906 129.570312 181.464844 L 132.238281 191.777344 L 123.253906 186.054688 C 122.726562 185.71875 122.125 185.550781 121.523438 185.550781 C 120.921875 185.550781 120.320312 185.71875 119.792969 186.054688 L 110.804688 191.777344 L 113.476562 181.464844 C 113.789062 180.253906 113.371094 178.96875 112.40625 178.171875 L 104.183594 171.394531 L 114.816406 170.746094 C 116.066406 170.671875 117.160156 169.875 117.617188 168.710938 L 121.523438 158.800781 L 125.425781 168.710938 C 125.882812 169.875 126.976562 170.671875 128.226562 170.746094 L 138.859375 171.394531 Z M 219.441406 167.683594 C 219.035156 166.425781 217.894531 165.546875 216.574219 165.464844 L 199.828125 164.441406 L 193.675781 148.828125 C 193.191406 147.597656 192.003906 146.789062 190.679688 146.789062 C 189.359375 146.789062 188.167969 147.597656 187.683594 148.828125 L 181.535156 164.441406 L 164.785156 165.464844 C 163.464844 165.546875 162.328125 166.425781 161.917969 167.683594 C 161.511719 168.941406 161.914062 170.324219 162.933594 171.164062 L 175.882812 181.835938 L 171.679688 198.082031 C 171.347656 199.363281 171.835938 200.71875 172.90625 201.496094 C 173.976562 202.273438 175.414062 202.316406 176.53125 201.605469 L 190.679688 192.589844 L 204.832031 201.605469 C 205.363281 201.945312 205.964844 202.113281 206.5625 202.113281 C 207.230469 202.113281 207.894531 201.90625 208.457031 201.496094 C 209.527344 200.71875 210.011719 199.363281 209.683594 198.082031 L 205.480469 181.835938 L 218.429688 171.164062 C 219.449219 170.324219 219.851562 168.941406 219.441406 167.683594 Z M 199.796875 178.171875 C 198.832031 178.96875 198.414062 180.253906 198.726562 181.464844 L 201.394531 191.777344 L 192.410156 186.054688 C 191.882812 185.71875 191.28125 185.550781 190.679688 185.550781 C 190.078125 185.550781 189.476562 185.71875 188.949219 186.054688 L 179.964844 191.777344 L 182.632812 181.464844 C 182.945312 180.253906 182.53125 178.96875 181.5625 178.171875 L 173.34375 171.394531 L 183.976562 170.746094 C 185.226562 170.671875 186.316406 169.875 186.777344 168.710938 L 190.679688 158.796875 L 194.585938 168.710938 C 195.042969 169.875 196.136719 170.671875 197.386719 170.746094 L 208.019531 171.394531 Z M 199.796875 178.171875 " fill-opacity="1" fill-rule="nonzero"/></g></svg>