<svg xmlns="http://www.w3.org/2000/svg" xmlns:xlink="http://www.w3.org/1999/xlink" width="500" zoomAndPan="magnify" viewBox="0 0 375 374.999991" height="500" preserveAspectRatio="xMidYMid meet" version="1.0"><defs><clipPath id="c7e721c771"><path d="M 0 0 L 373.800781 0 L 373.800781 375 L 0 375 Z M 0 0 " clip-rule="nonzero"/></clipPath><clipPath id="8fdc33b6a3"><path d="M 186.300781 0 C 82.75 0 -1.199219 83.945312 -1.199219 187.5 C -1.199219 291.054688 82.75 375 186.300781 375 C 289.855469 375 373.800781 291.054688 373.800781 187.5 C 373.800781 83.945312 289.855469 0 186.300781 0 Z M 186.300781 0 " clip-rule="nonzero"/></clipPath><clipPath id="56349fa501"><path d="M 19.679688 20.875 L 352.925781 20.875 L 352.925781 354.125 L 19.679688 354.125 Z M 19.679688 20.875 " clip-rule="nonzero"/></clipPath><clipPath id="9965d99ed6"><path d="M 186.300781 20.875 C 94.277344 20.875 19.679688 95.476562 19.679688 187.5 C 19.679688 279.523438 94.277344 354.125 186.300781 354.125 C 278.324219 354.125 352.925781 279.523438 352.925781 187.5 C 352.925781 95.476562 278.324219 20.875 186.300781 20.875 Z M 186.300781 20.875 " clip-rule="nonzero"/></clipPath><clipPath id="3e81798e21"><path d="M 19.679688 20.875 L 352.679688 20.875 L 352.679688 353.875 L 19.679688 353.875 Z M 19.679688 20.875 " clip-rule="nonzero"/></clipPath><clipPath id="b0e9484a63"><path d="M 186.300781 20.875 C 94.277344 20.875 19.679688 95.476562 19.679688 187.5 C 19.679688 279.523438 94.277344 354.121094 186.300781 354.121094 C 278.324219 354.121094 352.925781 279.523438 352.925781 187.5 C 352.925781 95.476562 278.324219 20.875 186.300781 20.875 Z M 186.300781 20.875 " clip-rule="nonzero"/></clipPath><clipPath id="5092a95689"><path d="M 75.636719 100.523438 L 241.769531 100.523438 L 241.769531 301.765625 L 75.636719 301.765625 Z M 75.636719 100.523438 " clip-rule="nonzero"/></clipPath><clipPath id="94718b5582"><path d="M 134 73.207031 L 183 73.207031 L 183 104 L 134 104 Z M 134 73.207031 " clip-rule="nonzero"/></clipPath><clipPath id="07e74eb67c"><path d="M 160 131.515625 L 299.136719 131.515625 L 299.136719 270.996094 L 160 270.996094 Z M 160 131.515625 " clip-rule="nonzero"/></clipPath></defs><rect x="-37.5" width="450" fill="#ffffff" y="-37.499999" height="449.999989" fill-opacity="1"/><rect x="-37.5" width="450" fill="#ffffff" y="-37.499999" height="449.999989" fill-opacity="1"/><g clip-path="url(#c7e721c771)"><g clip-path="url(#8fdc33b6a3)"><path fill="#ff914d" d="M -1.199219 0 L 373.800781 0 L 373.800781 375 L -1.199219 375 Z M -1.199219 0 " fill-opacity="1" fill-rule="nonzero"/><path stroke-linecap="butt" transform="matrix(0.75, 0, 0, 0.75, -1.198078, 0.000000000000106581)" fill="none" stroke-linejoin="miter" d="M 249.99848 -0.000000000000142109 C 111.930771 -0.000000000000142109 -0.00152044 111.927084 -0.00152044 250 C -0.00152044 388.072917 111.930771 500.000001 249.99848 500.000001 C 388.071397 500.000001 499.99848 388.072917 499.99848 250 C 499.99848 111.927084 388.071397 -0.000000000000142109 249.99848 -0.000000000000142109 Z M 249.99848 -0.000000000000142109 " stroke="#000000" stroke-width="8" stroke-opacity="1" stroke-miterlimit="4"/></g></g><g clip-path="url(#56349fa501)"><g clip-path="url(#9965d99ed6)"><path fill="#ff914d" d="M 19.679688 20.875 L 352.925781 20.875 L 352.925781 354.125 L 19.679688 354.125 Z M 19.679688 20.875 " fill-opacity="1" fill-rule="nonzero"/></g></g><g clip-path="url(#3e81798e21)"><g clip-path="url(#b0e9484a63)"><path stroke-linecap="butt" transform="matrix(0.75, 0, 0, 0.75, 19.678518, 20.876595)" fill="none" stroke-linejoin="miter" d="M 222.163032 -0.00212628 C 99.465107 -0.00212628 0.0015589 99.46663 0.0015589 222.164555 C 0.0015589 344.86248 99.465107 444.326028 222.163032 444.326028 C 344.860957 444.326028 444.329713 344.86248 444.329713 222.164555 C 444.329713 99.46663 344.860957 -0.00212628 222.163032 -0.00212628 Z M 222.163032 -0.00212628 " stroke="#ffffff" stroke-width="8" stroke-opacity="1" stroke-miterlimit="4"/></g></g><path fill="#ffffff" d="M 218.980469 286.140625 L 98 286.140625 C 94.285156 286.140625 91.257812 283.117188 91.257812 279.398438 L 91.257812 123.246094 C 91.257812 119.527344 94.285156 116.503906 98 116.503906 L 119.21875 116.503906 C 121.191406 116.503906 122.789062 118.101562 122.789062 120.074219 C 122.789062 122.046875 121.191406 123.644531 119.21875 123.644531 L 98.398438 123.644531 L 98.398438 279 L 218.582031 279 L 218.582031 266.742188 C 218.582031 264.769531 220.179688 263.171875 222.152344 263.171875 C 224.125 263.171875 225.722656 264.769531 225.722656 266.742188 L 225.722656 279.398438 C 225.722656 283.117188 222.699219 286.140625 218.980469 286.140625 " fill-opacity="1" fill-rule="evenodd"/><path fill="#ffffff" d="M 222.152344 139.476562 C 220.183594 139.476562 218.582031 137.878906 218.582031 135.90625 L 218.582031 123.644531 L 197.765625 123.644531 C 195.792969 123.644531 194.195312 122.046875 194.195312 120.074219 C 194.195312 118.101562 195.792969 116.503906 197.765625 116.503906 L 218.980469 116.503906 C 222.699219 116.503906 225.726562 119.527344 225.726562 123.246094 L 225.726562 135.90625 C 225.726562 137.878906 224.125 139.476562 222.152344 139.476562 Z M 218.980469 123.644531 L 218.984375 123.644531 L 218.980469 123.644531 " fill-opacity="1" fill-rule="evenodd"/><path fill="#ffffff" d="M 197.765625 130.6875 L 119.21875 130.6875 C 117.246094 130.6875 115.648438 129.089844 115.648438 127.113281 L 115.648438 98.734375 C 115.648438 92.9375 120.363281 88.222656 126.164062 88.222656 L 137.574219 88.222656 C 139.546875 88.222656 141.144531 89.820312 141.144531 91.792969 C 141.144531 93.765625 139.546875 95.363281 137.574219 95.363281 L 126.164062 95.363281 C 124.304688 95.363281 122.789062 96.875 122.789062 98.734375 L 122.789062 123.546875 L 194.191406 123.546875 L 194.191406 98.734375 C 194.191406 96.875 192.679688 95.363281 190.820312 95.363281 L 179.40625 95.363281 C 177.433594 95.363281 175.835938 93.765625 175.835938 91.792969 C 175.835938 89.820312 177.433594 88.222656 179.40625 88.222656 L 190.820312 88.222656 C 196.617188 88.222656 201.332031 92.9375 201.332031 98.734375 L 201.332031 127.113281 C 201.332031 129.089844 199.734375 130.6875 197.765625 130.6875 " fill-opacity="1" fill-rule="evenodd"/><g clip-path="url(#5092a95689)"><path fill="#ffffff" d="M 231.433594 301.765625 L 85.550781 301.765625 C 80.082031 301.765625 75.636719 297.320312 75.636719 291.855469 L 75.636719 110.792969 C 75.636719 105.328125 80.082031 100.878906 85.550781 100.878906 L 119.21875 100.878906 C 121.1875 100.878906 122.789062 102.480469 122.789062 104.453125 C 122.789062 106.421875 121.1875 108.019531 119.21875 108.019531 L 85.550781 108.019531 C 84.023438 108.019531 82.777344 109.261719 82.777344 110.792969 L 82.777344 291.855469 C 82.777344 293.382812 84.023438 294.625 85.550781 294.625 L 231.433594 294.625 C 232.960938 294.625 234.203125 293.382812 234.203125 291.855469 L 234.203125 266.734375 C 234.203125 264.761719 235.804688 263.164062 237.777344 263.164062 C 239.746094 263.164062 241.347656 264.761719 241.347656 266.734375 L 241.347656 291.855469 C 241.347656 297.320312 236.898438 301.765625 231.433594 301.765625 " fill-opacity="1" fill-rule="evenodd"/></g><path fill="#ffffff" d="M 237.773438 139.484375 C 235.804688 139.484375 234.203125 137.886719 234.203125 135.914062 L 234.203125 110.792969 C 234.203125 109.265625 232.960938 108.019531 231.433594 108.019531 L 197.765625 108.019531 C 195.792969 108.019531 194.195312 106.421875 194.195312 104.453125 C 194.195312 102.480469 195.792969 100.878906 197.765625 100.878906 L 231.433594 100.878906 C 236.898438 100.878906 241.347656 105.328125 241.347656 110.792969 L 241.347656 135.914062 C 241.347656 137.886719 239.746094 139.484375 237.773438 139.484375 " fill-opacity="1" fill-rule="evenodd"/><g clip-path="url(#94718b5582)"><path fill="#ffffff" d="M 179.40625 103.648438 L 137.574219 103.648438 C 135.601562 103.648438 134.003906 102.050781 134.003906 100.078125 L 134.003906 79.792969 C 134.003906 76.183594 136.941406 73.246094 140.550781 73.246094 L 176.433594 73.246094 C 180.039062 73.246094 182.976562 76.183594 182.976562 79.792969 L 182.976562 100.078125 C 182.976562 102.050781 181.378906 103.648438 179.40625 103.648438 Z M 141.144531 96.507812 L 175.835938 96.507812 L 175.835938 80.386719 L 141.144531 80.386719 L 141.144531 96.507812 " fill-opacity="1" fill-rule="evenodd"/></g><path fill="#ffffff" d="M 178.753906 163.40625 L 145.898438 163.40625 C 143.925781 163.40625 142.328125 161.808594 142.328125 159.835938 C 142.328125 157.867188 143.925781 156.265625 145.898438 156.265625 L 178.753906 156.265625 C 180.726562 156.265625 182.324219 157.867188 182.324219 159.835938 C 182.324219 161.808594 180.726562 163.40625 178.753906 163.40625 " fill-opacity="1" fill-rule="evenodd"/><path fill="#ffffff" d="M 120.121094 166.273438 C 119.207031 166.273438 118.296875 165.925781 117.597656 165.226562 L 112.648438 160.28125 C 111.253906 158.886719 111.253906 156.625 112.648438 155.230469 C 114.042969 153.835938 116.300781 153.835938 117.695312 155.226562 L 120.121094 157.652344 L 129.050781 148.722656 C 130.445312 147.328125 132.707031 147.328125 134.101562 148.722656 C 135.496094 150.113281 135.496094 152.375 134.101562 153.769531 L 122.648438 165.226562 C 121.949219 165.925781 121.035156 166.273438 120.121094 166.273438 " fill-opacity="1" fill-rule="evenodd"/><path fill="#ffffff" d="M 164.925781 194.132812 L 145.898438 194.132812 C 143.925781 194.132812 142.328125 192.535156 142.328125 190.558594 C 142.328125 188.589844 143.925781 186.992188 145.898438 186.992188 L 164.925781 186.992188 C 166.898438 186.992188 168.496094 188.589844 168.496094 190.558594 C 168.496094 192.535156 166.898438 194.132812 164.925781 194.132812 " fill-opacity="1" fill-rule="evenodd"/><path fill="#ffffff" d="M 120.121094 196.996094 C 119.207031 196.996094 118.296875 196.648438 117.597656 195.949219 L 112.648438 191.003906 C 111.253906 189.609375 111.253906 187.347656 112.648438 185.953125 C 114.042969 184.558594 116.300781 184.558594 117.695312 185.953125 L 120.121094 188.375 L 129.050781 179.441406 C 130.445312 178.050781 132.707031 178.050781 134.101562 179.441406 C 135.496094 180.839844 135.496094 183.101562 134.101562 184.496094 L 122.648438 195.949219 C 121.949219 196.648438 121.035156 196.996094 120.121094 196.996094 " fill-opacity="1" fill-rule="evenodd"/><path fill="#ffffff" d="M 167.132812 224.855469 L 145.898438 224.855469 C 143.925781 224.855469 142.328125 223.257812 142.328125 221.285156 C 142.328125 219.3125 143.925781 217.714844 145.898438 217.714844 L 167.132812 217.714844 C 169.109375 217.714844 170.707031 219.3125 170.707031 221.285156 C 170.707031 223.257812 169.109375 224.855469 167.132812 224.855469 " fill-opacity="1" fill-rule="evenodd"/><path fill="#ffffff" d="M 120.121094 227.71875 C 119.175781 227.71875 118.265625 227.34375 117.59375 226.675781 L 112.648438 221.726562 C 111.253906 220.332031 111.253906 218.070312 112.648438 216.679688 C 114.042969 215.285156 116.300781 215.285156 117.695312 216.679688 L 120.121094 219.101562 L 129.050781 210.167969 C 130.445312 208.773438 132.707031 208.773438 134.101562 210.167969 C 135.496094 211.5625 135.496094 213.824219 134.101562 215.21875 L 122.648438 226.675781 C 121.976562 227.34375 121.066406 227.71875 120.121094 227.71875 " fill-opacity="1" fill-rule="evenodd"/><path fill="#ffffff" d="M 187.847656 255.578125 L 145.898438 255.578125 C 143.925781 255.578125 142.328125 253.980469 142.328125 252.007812 C 142.328125 250.035156 143.925781 248.4375 145.898438 248.4375 L 187.847656 248.4375 C 189.820312 248.4375 191.417969 250.035156 191.417969 252.007812 C 191.417969 253.980469 189.820312 255.578125 187.847656 255.578125 " fill-opacity="1" fill-rule="evenodd"/><path fill="#ffffff" d="M 120.121094 258.445312 C 119.207031 258.445312 118.296875 258.097656 117.597656 257.398438 L 112.648438 252.453125 C 111.253906 251.058594 111.253906 248.796875 112.648438 247.402344 C 114.042969 246.007812 116.300781 246.007812 117.695312 247.402344 L 120.121094 249.824219 L 129.050781 240.890625 C 130.445312 239.5 132.707031 239.496094 134.101562 240.890625 C 135.496094 242.285156 135.496094 244.546875 134.101562 245.941406 L 122.648438 257.398438 C 121.949219 258.097656 121.035156 258.445312 120.121094 258.445312 " fill-opacity="1" fill-rule="evenodd"/><g clip-path="url(#07e74eb67c)"><path fill="#ffffff" d="M 229.925781 270.765625 C 220.558594 270.765625 211.464844 268.929688 202.894531 265.304688 C 194.617188 261.804688 187.195312 256.800781 180.824219 250.429688 C 174.453125 244.058594 169.445312 236.632812 165.949219 228.359375 C 162.324219 219.789062 160.484375 210.691406 160.484375 201.324219 C 160.484375 191.960938 162.324219 182.863281 165.949219 174.289062 C 169.445312 166.015625 174.453125 158.59375 180.824219 152.222656 C 187.195312 145.851562 194.617188 140.84375 202.894531 137.34375 C 211.464844 133.71875 220.5625 131.882812 229.925781 131.882812 C 239.292969 131.882812 248.390625 133.71875 256.960938 137.34375 C 265.238281 140.84375 272.660156 145.851562 279.03125 152.222656 C 285.402344 158.59375 290.40625 166.015625 293.90625 174.289062 C 297.53125 182.863281 299.371094 191.960938 299.371094 201.324219 C 299.371094 210.691406 297.53125 219.789062 293.90625 228.359375 C 290.40625 236.632812 285.402344 244.058594 279.03125 250.429688 C 272.660156 256.800781 265.238281 261.804688 256.960938 265.304688 C 248.390625 268.929688 239.292969 270.765625 229.925781 270.765625 Z M 229.925781 139.023438 C 221.523438 139.023438 213.363281 140.671875 205.671875 143.921875 C 198.253906 147.0625 191.589844 151.550781 185.871094 157.273438 C 180.15625 162.988281 175.664062 169.652344 172.527344 177.070312 C 169.273438 184.757812 167.625 192.917969 167.625 201.324219 C 167.625 209.730469 169.273438 217.890625 172.527344 225.578125 C 175.664062 233 180.15625 239.660156 185.871094 245.378906 C 191.589844 251.097656 198.253906 255.585938 205.675781 258.726562 C 213.359375 261.976562 221.519531 263.625 229.929688 263.625 C 238.332031 263.625 246.492188 261.976562 254.183594 258.726562 C 261.601562 255.585938 268.261719 251.097656 273.984375 245.378906 C 279.699219 239.660156 284.1875 233 287.328125 225.578125 C 290.578125 217.890625 292.230469 209.730469 292.230469 201.324219 C 292.230469 192.917969 290.578125 184.757812 287.328125 177.070312 C 284.1875 169.652344 279.699219 162.988281 273.984375 157.273438 C 268.261719 151.550781 261.601562 147.0625 254.179688 143.921875 C 246.492188 140.671875 238.332031 139.023438 229.925781 139.023438 " fill-opacity="1" fill-rule="evenodd"/></g><path fill="#ffffff" d="M 229.925781 256.320312 C 222.503906 256.320312 215.304688 254.867188 208.519531 251.996094 C 201.96875 249.226562 196.089844 245.261719 191.039062 240.214844 C 185.992188 235.160156 182.023438 229.28125 179.253906 222.730469 C 176.382812 215.949219 174.929688 208.746094 174.929688 201.324219 C 174.929688 193.898438 176.382812 186.699219 179.253906 179.914062 C 182.023438 173.367188 185.992188 167.484375 191.039062 162.433594 C 196.089844 157.386719 201.96875 153.417969 208.519531 150.648438 C 215.304688 147.78125 222.503906 146.328125 229.925781 146.328125 C 237.351562 146.328125 244.550781 147.78125 251.335938 150.648438 C 257.882812 153.417969 263.765625 157.386719 268.816406 162.433594 C 273.867188 167.484375 277.832031 173.367188 280.601562 179.914062 C 283.46875 186.699219 284.921875 193.898438 284.921875 201.324219 C 284.921875 208.746094 283.46875 215.949219 280.601562 222.730469 C 277.832031 229.28125 273.867188 235.160156 268.816406 240.210938 C 263.765625 245.261719 257.882812 249.226562 251.335938 251.996094 C 244.550781 254.867188 237.351562 256.320312 229.925781 256.320312 Z M 229.925781 153.46875 C 203.539062 153.46875 182.074219 174.9375 182.074219 201.324219 C 182.074219 227.710938 203.539062 249.179688 229.925781 249.179688 C 256.316406 249.179688 277.78125 227.710938 277.78125 201.324219 C 277.78125 174.9375 256.316406 153.46875 229.925781 153.46875 " fill-opacity="1" fill-rule="evenodd"/><path fill="#ffffff" d="M 229.925781 160.691406 C 227.953125 160.691406 226.355469 159.09375 226.355469 157.121094 L 226.355469 149.898438 C 226.355469 147.925781 227.953125 146.328125 229.925781 146.328125 C 231.898438 146.328125 233.496094 147.925781 233.496094 149.898438 L 233.496094 157.121094 C 233.496094 159.09375 231.898438 160.691406 229.925781 160.691406 " fill-opacity="1" fill-rule="evenodd"/><path fill="#ffffff" d="M 207.828125 166.609375 C 206.59375 166.609375 205.394531 165.96875 204.734375 164.824219 L 201.121094 158.566406 C 200.132812 156.859375 200.71875 154.675781 202.425781 153.691406 C 204.136719 152.707031 206.320312 153.289062 207.304688 155 L 210.917969 161.25 C 211.902344 162.960938 211.320312 165.140625 209.609375 166.128906 C 209.046875 166.453125 208.433594 166.609375 207.828125 166.609375 " fill-opacity="1" fill-rule="evenodd"/><path fill="#ffffff" d="M 191.640625 182.785156 C 191.035156 182.785156 190.417969 182.628906 189.859375 182.304688 L 183.601562 178.691406 C 181.894531 177.707031 181.308594 175.523438 182.296875 173.816406 C 183.28125 172.109375 185.464844 171.523438 187.171875 172.511719 L 193.429688 176.121094 C 195.136719 177.109375 195.722656 179.289062 194.734375 180.996094 C 194.074219 182.144531 192.871094 182.785156 191.640625 182.785156 " fill-opacity="1" fill-rule="evenodd"/><path fill="#ffffff" d="M 185.714844 204.886719 L 178.492188 204.886719 C 176.519531 204.886719 174.921875 203.289062 174.921875 201.3125 C 174.921875 199.34375 176.519531 197.746094 178.492188 197.746094 L 185.714844 197.746094 C 187.6875 197.746094 189.285156 199.34375 189.285156 201.3125 C 189.285156 203.289062 187.6875 204.886719 185.714844 204.886719 " fill-opacity="1" fill-rule="evenodd"/><path fill="#ffffff" d="M 185.378906 230.601562 C 184.148438 230.601562 182.945312 229.957031 182.285156 228.8125 C 181.300781 227.105469 181.882812 224.921875 183.59375 223.9375 L 189.847656 220.324219 C 191.554688 219.339844 193.738281 219.921875 194.726562 221.628906 C 195.710938 223.339844 195.125 225.523438 193.417969 226.511719 L 187.164062 230.121094 C 186.601562 230.445312 185.988281 230.601562 185.378906 230.601562 " fill-opacity="1" fill-rule="evenodd"/><path fill="#ffffff" d="M 204.191406 249.425781 C 203.585938 249.425781 202.972656 249.273438 202.410156 248.949219 C 200.703125 247.960938 200.117188 245.777344 201.101562 244.070312 L 204.714844 237.8125 C 205.703125 236.105469 207.886719 235.519531 209.59375 236.503906 C 211.300781 237.492188 211.886719 239.679688 210.902344 241.386719 L 207.289062 247.640625 C 206.625 248.785156 205.429688 249.425781 204.191406 249.425781 " fill-opacity="1" fill-rule="evenodd"/><path fill="#ffffff" d="M 229.910156 256.320312 C 227.9375 256.320312 226.339844 254.722656 226.339844 252.75 L 226.339844 245.527344 C 226.339844 243.554688 227.9375 241.957031 229.910156 241.957031 C 231.882812 241.957031 233.480469 243.554688 233.480469 245.527344 L 233.480469 252.75 C 233.480469 254.722656 231.882812 256.320312 229.910156 256.320312 " fill-opacity="1" fill-rule="evenodd"/><path fill="#ffffff" d="M 255.625 249.4375 C 254.390625 249.4375 253.191406 248.792969 252.53125 247.648438 L 248.921875 241.390625 C 247.933594 239.683594 248.519531 237.5 250.226562 236.515625 C 251.933594 235.53125 254.121094 236.117188 255.105469 237.824219 L 258.714844 244.082031 C 259.699219 245.789062 259.113281 247.972656 257.40625 248.957031 C 256.847656 249.28125 256.230469 249.4375 255.625 249.4375 " fill-opacity="1" fill-rule="evenodd"/><path fill="#ffffff" d="M 274.449219 230.613281 C 273.839844 230.613281 273.226562 230.460938 272.664062 230.136719 L 266.410156 226.523438 C 264.703125 225.542969 264.113281 223.355469 265.101562 221.648438 C 266.089844 219.941406 268.273438 219.355469 269.980469 220.339844 L 276.234375 223.949219 C 277.941406 224.9375 278.527344 227.121094 277.542969 228.828125 C 276.882812 229.976562 275.679688 230.613281 274.449219 230.613281 " fill-opacity="1" fill-rule="evenodd"/><path fill="#ffffff" d="M 281.34375 204.902344 L 274.121094 204.902344 C 272.148438 204.902344 270.550781 203.304688 270.550781 201.332031 C 270.550781 199.359375 272.148438 197.761719 274.121094 197.761719 L 281.34375 197.761719 C 283.316406 197.761719 284.914062 199.359375 284.914062 201.332031 C 284.914062 203.304688 283.316406 204.902344 281.34375 204.902344 " fill-opacity="1" fill-rule="evenodd"/><path fill="#ffffff" d="M 268.207031 182.800781 C 266.972656 182.800781 265.773438 182.160156 265.109375 181.015625 C 264.125 179.308594 264.710938 177.125 266.417969 176.136719 L 272.671875 172.523438 C 274.378906 171.539062 276.5625 172.125 277.550781 173.832031 C 278.539062 175.539062 277.953125 177.722656 276.246094 178.710938 L 269.988281 182.324219 C 269.425781 182.648438 268.8125 182.800781 268.207031 182.800781 " fill-opacity="1" fill-rule="evenodd"/><path fill="#ffffff" d="M 252.023438 166.617188 C 251.417969 166.617188 250.808594 166.464844 250.242188 166.140625 C 248.535156 165.152344 247.949219 162.96875 248.933594 161.261719 L 252.546875 155.007812 C 253.535156 153.296875 255.714844 152.710938 257.425781 153.699219 C 259.132812 154.683594 259.71875 156.867188 258.730469 158.578125 L 255.121094 164.832031 C 254.460938 165.976562 253.257812 166.617188 252.023438 166.617188 " fill-opacity="1" fill-rule="evenodd"/><path fill="#ffffff" d="M 229.925781 211.207031 C 224.507812 211.207031 220.101562 206.800781 220.101562 201.382812 C 220.101562 195.964844 224.507812 191.554688 229.925781 191.554688 C 235.34375 191.554688 239.753906 195.964844 239.753906 201.382812 C 239.753906 206.800781 235.34375 211.207031 229.925781 211.207031 Z M 229.925781 198.695312 C 228.445312 198.695312 227.242188 199.902344 227.242188 201.382812 C 227.242188 202.863281 228.445312 204.066406 229.925781 204.066406 C 231.40625 204.066406 232.613281 202.863281 232.613281 201.382812 C 232.613281 199.902344 231.40625 198.695312 229.925781 198.695312 " fill-opacity="1" fill-rule="evenodd"/><path fill="#ffffff" d="M 234.34375 200.535156 C 233.429688 200.535156 232.515625 200.1875 231.820312 199.488281 C 230.425781 198.097656 230.425781 195.835938 231.816406 194.441406 L 245.164062 181.085938 C 246.558594 179.6875 248.816406 179.6875 250.210938 181.082031 C 251.605469 182.476562 251.609375 184.738281 250.214844 186.132812 L 236.871094 199.484375 C 236.171875 200.183594 235.257812 200.535156 234.34375 200.535156 " fill-opacity="1" fill-rule="evenodd"/><path fill="#ffffff" d="M 247.691406 222.71875 C 246.777344 222.71875 245.863281 222.371094 245.167969 221.675781 L 231.8125 208.335938 C 230.417969 206.9375 230.414062 204.679688 231.808594 203.28125 C 233.203125 201.886719 235.464844 201.886719 236.859375 203.28125 L 250.214844 216.621094 C 251.609375 218.019531 251.609375 220.28125 250.21875 221.675781 C 249.519531 222.371094 248.605469 222.71875 247.691406 222.71875 " fill-opacity="1" fill-rule="evenodd"/></svg>